  0
SECTION
  2
HEADER
  9
$ACADVER
  1
AC1015
  9
$INSUNITS
 70
0
  9
$EXTMIN
 10
48.1
 20
68.261392
 30
0
  9
$EXTMAX
 10
5891.8999
 20
4151.6614
 30
0
  0
ENDSEC
  0
SECTION
  2
TABLES
  0
TABLE
  2
LTYPE
 70
25
  0
LTYPE
  2
CONTINUOUS
 70
0
  3
실선
 72
65
 73
0
 40
0
  0
LTYPE
  2
DASHED
 70
0
  3
Dashed line
 72
65
 73
2
 40
19.05
 49
12.7
 49
-6.35
  0
LTYPE
  2
HIDDEN
 70
0
  3
Hidden line
 72
65
 73
2
 40
9.525
 49
6.35
 49
-3.175
  0
LTYPE
  2
CENTER
 70
0
  3
Center line
 72
65
 73
4
 40
50.8
 49
31.75
 49
-6.35
 49
6.35
 49
-6.35
  0
LTYPE
  2
DASHDOT
 70
0
  3
Dash dot line
 72
65
 73
4
 40
25.4
 49
12.7
 49
-6.35
 49
0
 49
-6.35
  0
LTYPE
  2
PHANTOM
 70
0
  3
Phantom line
 72
65
 73
6
 40
63.5
 49
31.75
 49
-6.35
 49
6.35
 49
-6.35
 49
6.35
 49
-6.35
  0
LTYPE
  2
DOT
 70
0
  3
-   -   -   -   -   -   -   -
 72
65
 73
2
 40
2.5
 49
0.625
 49
-1.875
  0
LTYPE
  2
DASHED1
 70
0
  3
--  --  --  --  --  --  --  --
 72
65
 73
2
 40
2.5
 49
1.25
 49
-1.25
  0
LTYPE
  2
DASHED2
 70
0
  3
----    ----    ----    ----
 72
65
 73
2
 40
5
 49
2.5
 49
-2.5
  0
LTYPE
  2
DASHED3
 70
0
  3
------  ------  ------  ------
 72
65
 73
2
 40
5
 49
3.75
 49
-1.25
  0
LTYPE
  2
CENTER1
 70
0
  3
----- - ----- - ----- - ----- -
 72
65
 73
4
 40
10
 49
6.25
 49
-1.25
 49
1.25
 49
-1.25
  0
LTYPE
  2
CENTER2
 70
0
  3
----------  --  ----------  --
 72
65
 73
4
 40
20
 49
12.5
 49
-2.5
 49
2.5
 49
-2.5
  0
LTYPE
  2
PHANTOM1
 70
0
  3
--- - - --- - - --- - - --- - -
 72
65
 73
6
 40
10
 49
3.25
 49
-1.25
 49
1.25
 49
-1.25
 49
1.25
 49
-1.25
  0
LTYPE
  2
PHANTOM2
 70
0
  3
--------  -  -  --------  -  -
 72
65
 73
6
 40
20
 49
10
 49
-2.5
 49
1.25
 49
-2.5
 49
1.25
 49
-2.5
  0
LTYPE
  2
DUMMY
 70
0
  3
더미
 72
65
 73
0
 40
0
  0
LTYPE
  2
RAND1
 70
0
  3
----- - ----- - ----- - ----- -
 72
65
 73
4
 40
10
 49
6.25
 49
-1.25
 49
1.25
 49
-1.25
  0
LTYPE
  2
RAND2
 70
0
  3
----------  --  ----------  --
 72
65
 73
4
 40
20
 49
12.5
 49
-2.5
 49
2.5
 49
-2.5
  0
LTYPE
  2
RAND3
 70
0
  3
--- - - --- - - --- - - --- - -
 72
65
 73
6
 40
10
 49
3.25
 49
-1.25
 49
1.25
 49
-1.25
 49
1.25
 49
-1.25
  0
LTYPE
  2
RAND4
 70
0
  3
--------  -  -  --------  -  -
 72
65
 73
6
 40
20
 49
10
 49
-2.5
 49
1.25
 49
-2.5
 49
1.25
 49
-2.5
  0
LTYPE
  2
RAND5
 70
0
  3
----- - ----- - ----- - ----- -
 72
65
 73
4
 40
10
 49
6.25
 49
-1.25
 49
1.25
 49
-1.25
  0
LTYPE
  2
LONG1
 70
0
  3
----------  --  ----------  --
 72
65
 73
4
 40
20
 49
12.5
 49
-2.5
 49
2.5
 49
-2.5
  0
LTYPE
  2
LONG2
 70
0
  3
--- - - --- - - --- - - --- - -
 72
65
 73
6
 40
10
 49
3.25
 49
-1.25
 49
1.25
 49
-1.25
 49
1.25
 49
-1.25
  0
LTYPE
  2
LONG3
 70
0
  3
--------  -  -  --------  -  -
 72
65
 73
6
 40
20
 49
10
 49
-2.5
 49
1.25
 49
-2.5
 49
1.25
 49
-2.5
  0
LTYPE
  2
LONG4
 70
0
  3
----- - ----- - ----- - ----- -
 72
65
 73
4
 40
10
 49
6.25
 49
-1.25
 49
1.25
 49
-1.25
  0
LTYPE
  2
LONG5
 70
0
  3
----------  --  ----------  --
 72
65
 73
4
 40
20
 49
12.5
 49
-2.5
 49
2.5
 49
-2.5
  0
ENDTAB
  0
TABLE
  2
LAYER
 70
2
  0
LAYER
  2
_0-0_
 70
0
 62
7
  6
CONTINUOUS
  0
LAYER
  2
ADD_LINE
 70
0
 62
7
  6
CONTINUOUS
  0
ENDTAB
  0
ENDSEC
  0
SECTION
  2
BLOCKS
  0
ENDSEC
  0
SECTION
  2
ENTITIES
  0
LINE
  8
_0-0_
 62
6
 10
48.1
 20
4151.6614
 30
0
 11
48.1
 21
68.261392
 31
0
  0
LINE
  8
_0-0_
 62
6
 10
48.1
 20
4151.6614
 30
0
 11
5891.8999
 21
4151.6614
 31
0
  0
LINE
  8
_0-0_
 62
6
 10
5891.8999
 20
68.261392
 30
0
 11
48.1
 21
68.261392
 31
0
  0
LINE
  8
_0-0_
 62
6
 10
5891.8999
 20
68.261392
 30
0
 11
5891.8999
 21
4151.6614
 31
0
  0
LINE
  8
_0-0_
 62
2
 10
5891.8999
 20
318.26139
 30
0
 11
48.1
 21
318.26139
 31
0
  0
LINE
  8
_0-0_
 62
2
 10
48.1
 20
3951.6614
 30
0
 11
5891.8999
 21
3951.6614
 31
0
  0
LINE
  8
_0-0_
 62
2
 10
2970
 20
3951.6614
 30
0
 11
2970
 21
2134.9613
 31
0
  0
LINE
  8
_0-0_
 62
2
 10
2970
 20
2134.9613
 30
0
 11
2970
 21
318.26139
 31
0
  0
LINE
  8
_0-0_
 62
2
 10
309.04999
 20
3893.3114
 30
0
 11
2709.05
 21
3893.3114
 31
0
  0
LINE
  8
_0-0_
 62
2
 10
2709.05
 20
3893.3114
 30
0
 11
2709.05
 21
376.61137
 31
0
  0
LINE
  8
_0-0_
 62
2
 10
2709.05
 20
376.61137
 30
0
 11
309.04999
 21
376.61137
 31
0
  0
LINE
  8
_0-0_
 62
2
 10
309.04999
 20
376.61137
 30
0
 11
309.04999
 21
3893.3114
 31
0
  0
LINE
  8
_0-0_
 62
3
 10
1991.6
 20
1677.0714
 30
0
 11
469.99998
 21
1677.0714
 31
0
  0
LINE
  8
_0-0_
 62
4
 10
1879.9299
 20
1077.0714
 30
0
 11
1879.9299
 21
1677.0714
 31
0
  0
LINE
  8
_0-0_
 62
4
 10
1085.7999
 20
948.38136
 30
0
 11
1125.8
 21
948.38136
 31
0
  0
LINE
  8
_0-0_
 62
4
 10
1185.8
 20
948.38136
 30
0
 11
1275.7999
 21
948.38136
 31
0
  0
LINE
  8
_0-0_
 62
4
 10
1335.7999
 20
948.38136
 30
0
 11
1375.8
 21
948.38136
 31
0
  0
LINE
  8
_0-0_
 62
3
 10
1025.7999
 20
1689.0714
 30
0
 11
1435.8
 21
1689.0714
 31
0
  0
LINE
  8
_0-0_
 62
3
 10
1435.8
 20
1689.0714
 30
0
 11
1435.8
 21
1677.0714
 31
0
  0
LINE
  8
_0-0_
 62
3
 10
1435.8
 20
1677.0714
 30
0
 11
1025.7999
 21
1677.0714
 31
0
  0
LINE
  8
_0-0_
 62
3
 10
1025.7999
 20
1677.0714
 30
0
 11
1025.7999
 21
1689.0714
 31
0
  0
LINE
  8
_0-0_
 62
3
 10
1025.7999
 20
1661.0713
 30
0
 11
1435.8
 21
1661.0713
 31
0
  0
LINE
  8
_0-0_
 62
3
 10
1435.8
 20
1661.0713
 30
0
 11
1435.8
 21
1649.0713
 31
0
  0
LINE
  8
_0-0_
 62
3
 10
1435.8
 20
1649.0713
 30
0
 11
1025.7999
 21
1649.0713
 31
0
  0
LINE
  8
_0-0_
 62
3
 10
1025.7999
 20
1649.0713
 30
0
 11
1025.7999
 21
1661.0713
 31
0
  0
LINE
  8
_0-0_
 62
3
 10
1235.7999
 20
1649.0713
 30
0
 11
1235.7999
 21
1597.0713
 31
0
  0
LINE
  8
_0-0_
 62
3
 10
1225.7999
 20
1649.0713
 30
0
 11
1225.7999
 21
1597.0713
 31
0
  0
LINE
  8
_0-0_
 62
3
 10
1235.7999
 20
1661.0713
 30
0
 11
1235.7999
 21
1677.0714
 31
0
  0
LINE
  8
_0-0_
 62
3
 10
1225.7999
 20
1661.0713
 30
0
 11
1225.7999
 21
1677.0714
 31
0
  0
LINE
  8
_0-0_
 62
4
 10
1185.8
 20
1631.3813
 30
0
 11
1185.8
 21
1819.3813
 31
0
  0
LINE
  8
_0-0_
 62
4
 10
1025.7999
 20
1875.1413
 30
0
 11
1065.8
 21
1875.1413
 31
0
  0
LINE
  8
_0-0_
 62
4
 10
1125.8
 20
1875.1413
 30
0
 11
1185.8
 21
1875.1413
 31
0
  0
LINE
  8
_0-0_
 62
4
 10
1185.8
 20
1875.1413
 30
0
 11
1275.7999
 21
1875.1413
 31
0
  0
LINE
  8
_0-0_
 62
4
 10
1185.8
 20
1805.1414
 30
0
 11
1185.8
 21
1885.1413
 31
0
  0
LINE
  8
_0-0_
 62
4
 10
1435.8
 20
1877.1413
 30
0
 11
1395.8
 21
1877.1413
 31
0
  0
LINE
  8
_0-0_
 62
4
 10
1335.7999
 20
1875.1413
 30
0
 11
1275.7999
 21
1875.1413
 31
0
  0
LINE
  8
_0-0_
 62
4
 10
1275.7999
 20
1805.1414
 30
0
 11
1275.7999
 21
1885.1413
 31
0
  0
LINE
  8
_0-0_
 62
4
 10
1275.7999
 20
1631.3813
 30
0
 11
1275.7999
 21
1819.3813
 31
0
  0
LINE
  8
_0-0_
 62
4
 10
555.86001
 20
1583.4013
 30
0
 11
1022.5709
 21
1583.4013
 31
0
  0
LINE
  8
_0-0_
 62
4
 10
1022.5709
 20
1583.4013
 30
0
 11
1095.813
 21
1656.6434
 31
0
  0
LINE
  8
_0-0_
 62
4
 10
564.85999
 20
1741.8814
 30
0
 11
1043.5579
 21
1741.8814
 31
0
  0
LINE
  8
_0-0_
 62
4
 10
1043.5579
 20
1741.8814
 30
0
 11
1098.8
 21
1686.6394
 31
0
  0
LINE
  8
_0-0_
 62
4
 10
1025.7999
 20
1803.1413
 30
0
 11
1025.7999
 21
1933.6414
 31
0
  0
LINE
  8
_0-0_
 62
4
 10
1025.7999
 20
1925.1414
 30
0
 11
1435.8
 21
1925.1414
 31
0
  0
LINE
  8
_0-0_
 62
4
 10
1025.7999
 20
1629.3813
 30
0
 11
1025.7999
 21
1817.3813
 31
0
  0
LINE
  8
_0-0_
 62
4
 10
1435.8
 20
1805.1414
 30
0
 11
1435.8
 21
1935.6413
 31
0
  0
LINE
  8
_0-0_
 62
4
 10
1435.8
 20
1631.3813
 30
0
 11
1435.8
 21
1819.3813
 31
0
  0
LINE
  8
_0-0_
 62
4
 10
1065.8
 20
1629.3813
 30
0
 11
1065.8
 21
1817.3813
 31
0
  0
LINE
  8
_0-0_
 62
4
 10
1065.8
 20
1803.1413
 30
0
 11
1065.8
 21
1883.1414
 31
0
  0
LINE
  8
_0-0_
 62
4
 10
1395.8
 20
1805.1414
 30
0
 11
1395.8
 21
1885.1413
 31
0
  0
LINE
  8
_0-0_
 62
4
 10
1395.8
 20
1631.3813
 30
0
 11
1395.8
 21
1819.3813
 31
0
  0
LINE
  8
_0-0_
 62
4
 10
1085.7999
 20
898.38138
 30
0
 11
1375.8
 21
898.38138
 31
0
  0
LINE
  8
_0-0_
 62
4
 10
1085.7999
 20
1207.0714
 30
0
 11
1085.7999
 21
982.0949
 31
0
  0
LINE
  8
_0-0_
 62
4
 10
1085.7999
 20
987.38134
 30
0
 11
1085.7999
 21
888.14139
 31
0
  0
LINE
  8
_0-0_
 62
4
 10
1375.8
 20
1207.0714
 30
0
 11
1375.8
 21
982.0949
 31
0
  0
LINE
  8
_0-0_
 62
4
 10
1375.8
 20
987.38134
 30
0
 11
1375.8
 21
888.14139
 31
0
  0
LINE
  8
_0-0_
 62
4
 10
1125.8
 20
987.38134
 30
0
 11
1125.8
 21
936.38138
 31
0
  0
LINE
  8
_0-0_
 62
4
 10
1335.7999
 20
987.38134
 30
0
 11
1335.7999
 21
936.38138
 31
0
  0
LINE
  8
_0-0_
 62
3
 10
1235.7999
 20
1105.0713
 30
0
 11
1235.7999
 21
1157.0713
 31
0
  0
LINE
  8
_0-0_
 62
3
 10
1225.7999
 20
1105.0713
 30
0
 11
1225.7999
 21
1157.0713
 31
0
  0
LINE
  8
_0-0_
 62
4
 10
1539.1469
 20
1775.0583
 30
0
 11
1472.888
 21
1775.0583
 31
0
  0
LINE
  8
_0-0_
 62
4
 10
1472.888
 20
1775.0583
 30
0
 11
1406.5179
 21
1708.6884
 31
0
  0
LINE
  8
_0-0_
 62
4
 10
1125.8
 20
1631.3813
 30
0
 11
1125.8
 21
1819.3813
 31
0
  0
LINE
  8
_0-0_
 62
4
 10
1065.8
 20
1875.1413
 30
0
 11
1125.8
 21
1875.1413
 31
0
  0
LINE
  8
_0-0_
 62
4
 10
1125.8
 20
1805.1414
 30
0
 11
1125.8
 21
1885.1413
 31
0
  0
LINE
  8
_0-0_
 62
4
 10
1395.8
 20
1875.1413
 30
0
 11
1335.7999
 21
1875.1413
 31
0
  0
LINE
  8
_0-0_
 62
4
 10
1335.7999
 20
1805.1414
 30
0
 11
1335.7999
 21
1885.1413
 31
0
  0
LINE
  8
_0-0_
 62
4
 10
1335.7999
 20
1631.3813
 30
0
 11
1335.7999
 21
1819.3813
 31
0
  0
LINE
  8
_0-0_
 62
4
 10
1040.86
 20
1689.0714
 30
0
 11
986.64592
 21
1689.0714
 31
0
  0
LINE
  8
_0-0_
 62
4
 10
1040.86
 20
1677.0714
 30
0
 11
986.64592
 21
1677.0714
 31
0
  0
LINE
  8
_0-0_
 62
4
 10
994.24038
 20
1689.0714
 30
0
 11
948.85948
 21
1689.0714
 31
0
  0
LINE
  8
_0-0_
 62
4
 10
994.24038
 20
1677.0714
 30
0
 11
948.85948
 21
1677.0714
 31
0
  0
LINE
  8
_0-0_
 62
4
 10
962.10931
 20
1689.0714
 30
0
 11
962.10931
 21
1677.0714
 31
0
  0
LINE
  8
_0-0_
 62
3
 10
1991.6
 20
1077.0714
 30
0
 11
469.99998
 21
1077.0714
 31
0
  0
LINE
  8
_0-0_
 62
3
 10
1025.7999
 20
1077.0714
 30
0
 11
1435.8
 21
1077.0714
 31
0
  0
LINE
  8
_0-0_
 62
3
 10
1435.8
 20
1077.0714
 30
0
 11
1435.8
 21
1065.0714
 31
0
  0
LINE
  8
_0-0_
 62
3
 10
1435.8
 20
1065.0714
 30
0
 11
1025.7999
 21
1065.0714
 31
0
  0
LINE
  8
_0-0_
 62
3
 10
1025.7999
 20
1065.0714
 30
0
 11
1025.7999
 21
1077.0714
 31
0
  0
LINE
  8
_0-0_
 62
3
 10
1025.7999
 20
1105.0713
 30
0
 11
1435.8
 21
1105.0713
 31
0
  0
LINE
  8
_0-0_
 62
3
 10
1435.8
 20
1105.0713
 30
0
 11
1435.8
 21
1093.0714
 31
0
  0
LINE
  8
_0-0_
 62
3
 10
1435.8
 20
1093.0714
 30
0
 11
1025.7999
 21
1093.0714
 31
0
  0
LINE
  8
_0-0_
 62
3
 10
1025.7999
 20
1093.0714
 30
0
 11
1025.7999
 21
1105.0713
 31
0
  0
LINE
  8
_0-0_
 62
3
 10
1235.7999
 20
1093.0714
 30
0
 11
1235.7999
 21
1077.0714
 31
0
  0
LINE
  8
_0-0_
 62
3
 10
1225.7999
 20
1093.0714
 30
0
 11
1225.7999
 21
1077.0714
 31
0
  0
LINE
  8
_0-0_
 62
4
 10
1040.86
 20
1093.0714
 30
0
 11
986.64592
 21
1093.0714
 31
0
  0
LINE
  8
_0-0_
 62
4
 10
1040.86
 20
1105.0713
 30
0
 11
986.64592
 21
1105.0713
 31
0
  0
LINE
  8
_0-0_
 62
4
 10
994.24038
 20
1093.0714
 30
0
 11
948.85948
 21
1093.0714
 31
0
  0
LINE
  8
_0-0_
 62
4
 10
994.24038
 20
1105.0713
 30
0
 11
948.85948
 21
1105.0713
 31
0
  0
LINE
  8
_0-0_
 62
4
 10
962.10931
 20
1093.0714
 30
0
 11
962.10931
 21
1105.0713
 31
0
  0
LINE
  8
_0-0_
 62
3
 10
1991.6
 20
1661.0713
 30
0
 11
469.99998
 21
1661.0713
 31
0
  0
LINE
  8
_0-0_
 62
3
 10
1050.505
 20
1713.5714
 30
0
 11
1081.1039
 21
1713.5714
 31
0
  0
LINE
  8
_0-0_
 62
3
 10
1084.2999
 20
1695.7313
 30
0
 11
1084.2999
 21
1711.4003
 31
0
  0
LINE
  8
_0-0_
 62
3
 10
1047.2999
 20
1695.7313
 30
0
 11
1047.2999
 21
1711.4003
 31
0
  0
LINE
  8
_0-0_
 62
3
 10
1050.505
 20
1693.5714
 30
0
 11
1081.1039
 21
1693.5714
 31
0
  0
LINE
  8
_0-0_
 62
3
 10
1081.1039
 20
1693.5714
 30
0
 11
1084.2999
 21
1695.7313
 31
0
  0
LINE
  8
_0-0_
 62
3
 10
1050.505
 20
1693.5714
 30
0
 11
1047.2999
 21
1695.7313
 31
0
  0
LINE
  8
_0-0_
 62
3
 10
1056.5729
 20
1695.7313
 30
0
 11
1056.5729
 21
1711.4003
 31
0
  0
LINE
  8
_0-0_
 62
3
 10
1053.359
 20
1693.5714
 30
0
 11
1056.5729
 21
1695.7313
 31
0
  0
LINE
  8
_0-0_
 62
3
 10
1059.7689
 20
1693.5714
 30
0
 11
1056.5729
 21
1695.7313
 31
0
  0
LINE
  8
_0-0_
 62
3
 10
1075.036
 20
1695.7313
 30
0
 11
1075.036
 21
1711.4003
 31
0
  0
LINE
  8
_0-0_
 62
3
 10
1078.241
 20
1693.5714
 30
0
 11
1075.036
 21
1695.7313
 31
0
  0
LINE
  8
_0-0_
 62
3
 10
1071.84
 20
1693.5714
 30
0
 11
1075.036
 21
1695.7313
 31
0
  0
LINE
  8
_0-0_
 62
3
 10
1081.1039
 20
1713.5714
 30
0
 11
1084.2999
 21
1711.4003
 31
0
  0
LINE
  8
_0-0_
 62
3
 10
1050.505
 20
1713.5714
 30
0
 11
1047.2999
 21
1711.4003
 31
0
  0
LINE
  8
_0-0_
 62
3
 10
1053.359
 20
1713.5714
 30
0
 11
1056.5729
 21
1711.4003
 31
0
  0
LINE
  8
_0-0_
 62
3
 10
1059.7689
 20
1713.5714
 30
0
 11
1056.5729
 21
1711.4003
 31
0
  0
LINE
  8
_0-0_
 62
3
 10
1078.241
 20
1713.5714
 30
0
 11
1075.036
 21
1711.4003
 31
0
  0
LINE
  8
_0-0_
 62
3
 10
1071.84
 20
1713.5714
 30
0
 11
1075.036
 21
1711.4003
 31
0
  0
LINE
  8
_0-0_
 62
4
 10
1055.2199
 20
1725.2013
 30
0
 11
1075.22
 21
1721.5613
 31
0
  0
LINE
  8
_0-0_
 62
4
 10
1055.2199
 20
1721.6114
 30
0
 11
1075.22
 21
1717.9713
 31
0
  0
LINE
  8
_0-0_
 62
4
 10
1055.2199
 20
1717.6214
 30
0
 11
1072.4009
 21
1714.5014
 31
0
  0
LINE
  8
_0-0_
 62
3
 10
1075.22
 20
1725.2013
 30
0
 11
1075.22
 21
1713.5714
 31
0
  0
LINE
  8
_0-0_
 62
3
 10
1055.2199
 20
1725.2013
 30
0
 11
1055.2199
 21
1713.5714
 31
0
  0
LINE
  8
_0-0_
 62
3
 10
1075.22
 20
1725.2013
 30
0
 11
1055.2199
 21
1725.2013
 31
0
  0
LINE
  8
_0-0_
 62
3
 10
1045.8049
 20
1693.5714
 30
0
 11
1085.8049
 21
1693.5714
 31
0
  0
LINE
  8
_0-0_
 62
3
 10
1085.8049
 20
1693.5714
 30
0
 11
1085.8049
 21
1689.0714
 31
0
  0
LINE
  8
_0-0_
 62
3
 10
1085.8049
 20
1689.0714
 30
0
 11
1045.8049
 21
1689.0714
 31
0
  0
LINE
  8
_0-0_
 62
3
 10
1045.8049
 20
1689.0714
 30
0
 11
1045.8049
 21
1693.5714
 31
0
  0
LINE
  8
_0-0_
 62
3
 10
1085.2999
 20
1649.0713
 30
0
 11
1046.2999
 21
1649.0713
 31
0
  0
LINE
  8
_0-0_
 62
3
 10
1078.953
 20
1636.0714
 30
0
 11
1052.6469
 21
1636.0714
 31
0
  0
LINE
  8
_0-0_
 62
3
 10
1085.2999
 20
1649.0713
 30
0
 11
1085.2008
 21
1647.3448
 31
0
  0
LINE
  8
_0-0_
 62
3
 10
1085.2008
 20
1647.3448
 30
0
 11
1084.9033
 21
1645.6474
 31
0
  0
LINE
  8
_0-0_
 62
3
 10
1084.9033
 20
1645.6474
 30
0
 11
1084.4074
 21
1643.9788
 31
0
  0
LINE
  8
_0-0_
 62
3
 10
1084.4074
 20
1643.9788
 30
0
 11
1083.7132
 21
1642.3393
 31
0
  0
LINE
  8
_0-0_
 62
3
 10
1083.7132
 20
1642.3393
 30
0
 11
1082.8206
 21
1640.7288
 31
0
  0
LINE
  8
_0-0_
 62
3
 10
1082.8206
 20
1640.7288
 30
0
 11
1081.7297
 21
1639.1474
 31
0
  0
LINE
  8
_0-0_
 62
3
 10
1081.7297
 20
1639.1474
 30
0
 11
1080.4405
 21
1637.5949
 31
0
  0
LINE
  8
_0-0_
 62
3
 10
1080.4405
 20
1637.5949
 30
0
 11
1078.953
 21
1636.0714
 31
0
  0
LINE
  8
_0-0_
 62
3
 10
1046.2999
 20
1649.0713
 30
0
 11
1046.3992
 21
1647.3448
 31
0
  0
LINE
  8
_0-0_
 62
3
 10
1046.3992
 20
1647.3448
 30
0
 11
1046.6966
 21
1645.6474
 31
0
  0
LINE
  8
_0-0_
 62
3
 10
1046.6966
 20
1645.6474
 30
0
 11
1047.1925
 21
1643.9788
 31
0
  0
LINE
  8
_0-0_
 62
3
 10
1047.1925
 20
1643.9788
 30
0
 11
1047.8867
 21
1642.3393
 31
0
  0
LINE
  8
_0-0_
 62
3
 10
1047.8867
 20
1642.3393
 30
0
 11
1048.7793
 21
1640.7288
 31
0
  0
LINE
  8
_0-0_
 62
3
 10
1048.7793
 20
1640.7288
 30
0
 11
1049.8701
 21
1639.1474
 31
0
  0
LINE
  8
_0-0_
 62
3
 10
1049.8701
 20
1639.1474
 30
0
 11
1051.1594
 21
1637.5949
 31
0
  0
LINE
  8
_0-0_
 62
3
 10
1051.1594
 20
1637.5949
 30
0
 11
1052.6469
 21
1636.0714
 31
0
  0
LINE
  8
_0-0_
 62
4
 10
1075.805
 20
1689.0714
 30
0
 11
1075.805
 21
1649.0713
 31
0
  0
LINE
  8
_0-0_
 62
4
 10
1055.805
 20
1689.0714
 30
0
 11
1055.805
 21
1649.0713
 31
0
  0
LINE
  8
_0-0_
 62
3
 10
1110.5049
 20
1713.5714
 30
0
 11
1141.1039
 21
1713.5714
 31
0
  0
LINE
  8
_0-0_
 62
3
 10
1144.2999
 20
1695.7313
 30
0
 11
1144.2999
 21
1711.4003
 31
0
  0
LINE
  8
_0-0_
 62
3
 10
1107.2999
 20
1695.7313
 30
0
 11
1107.2999
 21
1711.4003
 31
0
  0
LINE
  8
_0-0_
 62
3
 10
1110.5049
 20
1693.5714
 30
0
 11
1141.1039
 21
1693.5714
 31
0
  0
LINE
  8
_0-0_
 62
3
 10
1141.1039
 20
1693.5714
 30
0
 11
1144.2999
 21
1695.7313
 31
0
  0
LINE
  8
_0-0_
 62
3
 10
1110.5049
 20
1693.5714
 30
0
 11
1107.2999
 21
1695.7313
 31
0
  0
LINE
  8
_0-0_
 62
3
 10
1116.5729
 20
1695.7313
 30
0
 11
1116.5729
 21
1711.4003
 31
0
  0
LINE
  8
_0-0_
 62
3
 10
1113.359
 20
1693.5714
 30
0
 11
1116.5729
 21
1695.7313
 31
0
  0
LINE
  8
_0-0_
 62
3
 10
1119.7689
 20
1693.5714
 30
0
 11
1116.5729
 21
1695.7313
 31
0
  0
LINE
  8
_0-0_
 62
3
 10
1135.036
 20
1695.7313
 30
0
 11
1135.036
 21
1711.4003
 31
0
  0
LINE
  8
_0-0_
 62
3
 10
1138.241
 20
1693.5714
 30
0
 11
1135.036
 21
1695.7313
 31
0
  0
LINE
  8
_0-0_
 62
3
 10
1131.8399
 20
1693.5714
 30
0
 11
1135.036
 21
1695.7313
 31
0
  0
LINE
  8
_0-0_
 62
3
 10
1141.1039
 20
1713.5714
 30
0
 11
1144.2999
 21
1711.4003
 31
0
  0
LINE
  8
_0-0_
 62
3
 10
1110.5049
 20
1713.5714
 30
0
 11
1107.2999
 21
1711.4003
 31
0
  0
LINE
  8
_0-0_
 62
3
 10
1113.359
 20
1713.5714
 30
0
 11
1116.5729
 21
1711.4003
 31
0
  0
LINE
  8
_0-0_
 62
3
 10
1119.7689
 20
1713.5714
 30
0
 11
1116.5729
 21
1711.4003
 31
0
  0
LINE
  8
_0-0_
 62
3
 10
1138.241
 20
1713.5714
 30
0
 11
1135.036
 21
1711.4003
 31
0
  0
LINE
  8
_0-0_
 62
3
 10
1131.8399
 20
1713.5714
 30
0
 11
1135.036
 21
1711.4003
 31
0
  0
LINE
  8
_0-0_
 62
4
 10
1115.2199
 20
1725.2013
 30
0
 11
1135.2199
 21
1721.5613
 31
0
  0
LINE
  8
_0-0_
 62
4
 10
1115.2199
 20
1721.6114
 30
0
 11
1135.2199
 21
1717.9713
 31
0
  0
LINE
  8
_0-0_
 62
4
 10
1115.2199
 20
1717.6214
 30
0
 11
1132.4009
 21
1714.5014
 31
0
  0
LINE
  8
_0-0_
 62
3
 10
1135.2199
 20
1725.2013
 30
0
 11
1135.2199
 21
1713.5714
 31
0
  0
LINE
  8
_0-0_
 62
3
 10
1115.2199
 20
1725.2013
 30
0
 11
1115.2199
 21
1713.5714
 31
0
  0
LINE
  8
_0-0_
 62
3
 10
1135.2199
 20
1725.2013
 30
0
 11
1115.2199
 21
1725.2013
 31
0
  0
LINE
  8
_0-0_
 62
3
 10
1105.8049
 20
1693.5714
 30
0
 11
1145.805
 21
1693.5714
 31
0
  0
LINE
  8
_0-0_
 62
3
 10
1145.805
 20
1693.5714
 30
0
 11
1145.805
 21
1689.0714
 31
0
  0
LINE
  8
_0-0_
 62
3
 10
1145.805
 20
1689.0714
 30
0
 11
1105.8049
 21
1689.0714
 31
0
  0
LINE
  8
_0-0_
 62
3
 10
1105.8049
 20
1689.0714
 30
0
 11
1105.8049
 21
1693.5714
 31
0
  0
LINE
  8
_0-0_
 62
3
 10
1145.2999
 20
1649.0713
 30
0
 11
1106.2999
 21
1649.0713
 31
0
  0
LINE
  8
_0-0_
 62
3
 10
1138.953
 20
1636.0714
 30
0
 11
1112.647
 21
1636.0714
 31
0
  0
LINE
  8
_0-0_
 62
3
 10
1145.2999
 20
1649.0713
 30
0
 11
1145.2008
 21
1647.3448
 31
0
  0
LINE
  8
_0-0_
 62
3
 10
1145.2008
 20
1647.3448
 30
0
 11
1144.9033
 21
1645.6474
 31
0
  0
LINE
  8
_0-0_
 62
3
 10
1144.9033
 20
1645.6474
 30
0
 11
1144.4074
 21
1643.9788
 31
0
  0
LINE
  8
_0-0_
 62
3
 10
1144.4074
 20
1643.9788
 30
0
 11
1143.7132
 21
1642.3393
 31
0
  0
LINE
  8
_0-0_
 62
3
 10
1143.7132
 20
1642.3393
 30
0
 11
1142.8207
 21
1640.7288
 31
0
  0
LINE
  8
_0-0_
 62
3
 10
1142.8207
 20
1640.7288
 30
0
 11
1141.7297
 21
1639.1474
 31
0
  0
LINE
  8
_0-0_
 62
3
 10
1141.7297
 20
1639.1474
 30
0
 11
1140.4405
 21
1637.5949
 31
0
  0
LINE
  8
_0-0_
 62
3
 10
1140.4405
 20
1637.5949
 30
0
 11
1138.953
 21
1636.0714
 31
0
  0
LINE
  8
_0-0_
 62
3
 10
1106.2999
 20
1649.0713
 30
0
 11
1106.3992
 21
1647.3448
 31
0
  0
LINE
  8
_0-0_
 62
3
 10
1106.3992
 20
1647.3448
 30
0
 11
1106.6966
 21
1645.6474
 31
0
  0
LINE
  8
_0-0_
 62
3
 10
1106.6966
 20
1645.6474
 30
0
 11
1107.1925
 21
1643.9788
 31
0
  0
LINE
  8
_0-0_
 62
3
 10
1107.1925
 20
1643.9788
 30
0
 11
1107.8867
 21
1642.3393
 31
0
  0
LINE
  8
_0-0_
 62
3
 10
1107.8867
 20
1642.3393
 30
0
 11
1108.7793
 21
1640.7288
 31
0
  0
LINE
  8
_0-0_
 62
3
 10
1108.7793
 20
1640.7288
 30
0
 11
1109.8701
 21
1639.1474
 31
0
  0
LINE
  8
_0-0_
 62
3
 10
1109.8701
 20
1639.1474
 30
0
 11
1111.1594
 21
1637.5949
 31
0
  0
LINE
  8
_0-0_
 62
3
 10
1111.1594
 20
1637.5949
 30
0
 11
1112.647
 21
1636.0714
 31
0
  0
LINE
  8
_0-0_
 62
4
 10
1135.805
 20
1689.0714
 30
0
 11
1135.805
 21
1649.0713
 31
0
  0
LINE
  8
_0-0_
 62
4
 10
1115.8049
 20
1689.0714
 30
0
 11
1115.8049
 21
1649.0713
 31
0
  0
LINE
  8
_0-0_
 62
3
 10
1170.5049
 20
1713.5714
 30
0
 11
1201.1039
 21
1713.5714
 31
0
  0
LINE
  8
_0-0_
 62
3
 10
1204.2999
 20
1695.7313
 30
0
 11
1204.2999
 21
1711.4003
 31
0
  0
LINE
  8
_0-0_
 62
3
 10
1167.2999
 20
1695.7313
 30
0
 11
1167.2999
 21
1711.4003
 31
0
  0
LINE
  8
_0-0_
 62
3
 10
1170.5049
 20
1693.5714
 30
0
 11
1201.1039
 21
1693.5714
 31
0
  0
LINE
  8
_0-0_
 62
3
 10
1201.1039
 20
1693.5714
 30
0
 11
1204.2999
 21
1695.7313
 31
0
  0
LINE
  8
_0-0_
 62
3
 10
1170.5049
 20
1693.5714
 30
0
 11
1167.2999
 21
1695.7313
 31
0
  0
LINE
  8
_0-0_
 62
3
 10
1176.5729
 20
1695.7313
 30
0
 11
1176.5729
 21
1711.4003
 31
0
  0
LINE
  8
_0-0_
 62
3
 10
1173.359
 20
1693.5714
 30
0
 11
1176.5729
 21
1695.7313
 31
0
  0
LINE
  8
_0-0_
 62
3
 10
1179.7689
 20
1693.5714
 30
0
 11
1176.5729
 21
1695.7313
 31
0
  0
LINE
  8
_0-0_
 62
3
 10
1195.036
 20
1695.7313
 30
0
 11
1195.036
 21
1711.4003
 31
0
  0
LINE
  8
_0-0_
 62
3
 10
1198.241
 20
1693.5714
 30
0
 11
1195.036
 21
1695.7313
 31
0
  0
LINE
  8
_0-0_
 62
3
 10
1191.8399
 20
1693.5714
 30
0
 11
1195.036
 21
1695.7313
 31
0
  0
LINE
  8
_0-0_
 62
3
 10
1201.1039
 20
1713.5714
 30
0
 11
1204.2999
 21
1711.4003
 31
0
  0
LINE
  8
_0-0_
 62
3
 10
1170.5049
 20
1713.5714
 30
0
 11
1167.2999
 21
1711.4003
 31
0
  0
LINE
  8
_0-0_
 62
3
 10
1173.359
 20
1713.5714
 30
0
 11
1176.5729
 21
1711.4003
 31
0
  0
LINE
  8
_0-0_
 62
3
 10
1179.7689
 20
1713.5714
 30
0
 11
1176.5729
 21
1711.4003
 31
0
  0
LINE
  8
_0-0_
 62
3
 10
1198.241
 20
1713.5714
 30
0
 11
1195.036
 21
1711.4003
 31
0
  0
LINE
  8
_0-0_
 62
3
 10
1191.8399
 20
1713.5714
 30
0
 11
1195.036
 21
1711.4003
 31
0
  0
LINE
  8
_0-0_
 62
4
 10
1175.2199
 20
1725.2013
 30
0
 11
1195.2199
 21
1721.5613
 31
0
  0
LINE
  8
_0-0_
 62
4
 10
1175.2199
 20
1721.6114
 30
0
 11
1195.2199
 21
1717.9713
 31
0
  0
LINE
  8
_0-0_
 62
4
 10
1175.2199
 20
1717.6214
 30
0
 11
1192.4009
 21
1714.5014
 31
0
  0
LINE
  8
_0-0_
 62
3
 10
1195.2199
 20
1725.2013
 30
0
 11
1195.2199
 21
1713.5714
 31
0
  0
LINE
  8
_0-0_
 62
3
 10
1175.2199
 20
1725.2013
 30
0
 11
1175.2199
 21
1713.5714
 31
0
  0
LINE
  8
_0-0_
 62
3
 10
1195.2199
 20
1725.2013
 30
0
 11
1175.2199
 21
1725.2013
 31
0
  0
LINE
  8
_0-0_
 62
3
 10
1165.8049
 20
1693.5714
 30
0
 11
1205.805
 21
1693.5714
 31
0
  0
LINE
  8
_0-0_
 62
3
 10
1205.805
 20
1693.5714
 30
0
 11
1205.805
 21
1689.0714
 31
0
  0
LINE
  8
_0-0_
 62
3
 10
1205.805
 20
1689.0714
 30
0
 11
1165.8049
 21
1689.0714
 31
0
  0
LINE
  8
_0-0_
 62
3
 10
1165.8049
 20
1689.0714
 30
0
 11
1165.8049
 21
1693.5714
 31
0
  0
LINE
  8
_0-0_
 62
3
 10
1205.2999
 20
1649.0713
 30
0
 11
1166.2999
 21
1649.0713
 31
0
  0
LINE
  8
_0-0_
 62
3
 10
1198.9529
 20
1636.0714
 30
0
 11
1172.647
 21
1636.0714
 31
0
  0
LINE
  8
_0-0_
 62
3
 10
1205.2999
 20
1649.0713
 30
0
 11
1205.2008
 21
1647.3448
 31
0
  0
LINE
  8
_0-0_
 62
3
 10
1205.2008
 20
1647.3448
 30
0
 11
1204.9032
 21
1645.6474
 31
0
  0
LINE
  8
_0-0_
 62
3
 10
1204.9032
 20
1645.6474
 30
0
 11
1204.4074
 21
1643.9788
 31
0
  0
LINE
  8
_0-0_
 62
3
 10
1204.4074
 20
1643.9788
 30
0
 11
1203.7132
 21
1642.3393
 31
0
  0
LINE
  8
_0-0_
 62
3
 10
1203.7132
 20
1642.3393
 30
0
 11
1202.8207
 21
1640.7288
 31
0
  0
LINE
  8
_0-0_
 62
3
 10
1202.8207
 20
1640.7288
 30
0
 11
1201.7297
 21
1639.1474
 31
0
  0
LINE
  8
_0-0_
 62
3
 10
1201.7297
 20
1639.1474
 30
0
 11
1200.4405
 21
1637.5949
 31
0
  0
LINE
  8
_0-0_
 62
3
 10
1200.4405
 20
1637.5949
 30
0
 11
1198.9529
 21
1636.0714
 31
0
  0
LINE
  8
_0-0_
 62
3
 10
1166.2999
 20
1649.0713
 30
0
 11
1166.3991
 21
1647.3448
 31
0
  0
LINE
  8
_0-0_
 62
3
 10
1166.3991
 20
1647.3448
 30
0
 11
1166.6966
 21
1645.6474
 31
0
  0
LINE
  8
_0-0_
 62
3
 10
1166.6966
 20
1645.6474
 30
0
 11
1167.1925
 21
1643.9788
 31
0
  0
LINE
  8
_0-0_
 62
3
 10
1167.1925
 20
1643.9788
 30
0
 11
1167.8867
 21
1642.3393
 31
0
  0
LINE
  8
_0-0_
 62
3
 10
1167.8867
 20
1642.3393
 30
0
 11
1168.7792
 21
1640.7288
 31
0
  0
LINE
  8
_0-0_
 62
3
 10
1168.7792
 20
1640.7288
 30
0
 11
1169.8701
 21
1639.1474
 31
0
  0
LINE
  8
_0-0_
 62
3
 10
1169.8701
 20
1639.1474
 30
0
 11
1171.1593
 21
1637.5949
 31
0
  0
LINE
  8
_0-0_
 62
3
 10
1171.1593
 20
1637.5949
 30
0
 11
1172.647
 21
1636.0714
 31
0
  0
LINE
  8
_0-0_
 62
4
 10
1195.805
 20
1689.0714
 30
0
 11
1195.805
 21
1649.0713
 31
0
  0
LINE
  8
_0-0_
 62
4
 10
1175.8049
 20
1689.0714
 30
0
 11
1175.8049
 21
1649.0713
 31
0
  0
LINE
  8
_0-0_
 62
3
 10
1260.505
 20
1713.5714
 30
0
 11
1291.104
 21
1713.5714
 31
0
  0
LINE
  8
_0-0_
 62
3
 10
1294.3
 20
1695.7313
 30
0
 11
1294.3
 21
1711.4003
 31
0
  0
LINE
  8
_0-0_
 62
3
 10
1257.3
 20
1695.7313
 30
0
 11
1257.3
 21
1711.4003
 31
0
  0
LINE
  8
_0-0_
 62
3
 10
1260.505
 20
1693.5714
 30
0
 11
1291.104
 21
1693.5714
 31
0
  0
LINE
  8
_0-0_
 62
3
 10
1291.104
 20
1693.5714
 30
0
 11
1294.3
 21
1695.7313
 31
0
  0
LINE
  8
_0-0_
 62
3
 10
1260.505
 20
1693.5714
 30
0
 11
1257.3
 21
1695.7313
 31
0
  0
LINE
  8
_0-0_
 62
3
 10
1266.5729
 20
1695.7313
 30
0
 11
1266.5729
 21
1711.4003
 31
0
  0
LINE
  8
_0-0_
 62
3
 10
1263.3589
 20
1693.5714
 30
0
 11
1266.5729
 21
1695.7313
 31
0
  0
LINE
  8
_0-0_
 62
3
 10
1269.769
 20
1693.5714
 30
0
 11
1266.5729
 21
1695.7313
 31
0
  0
LINE
  8
_0-0_
 62
3
 10
1285.036
 20
1695.7313
 30
0
 11
1285.036
 21
1711.4003
 31
0
  0
LINE
  8
_0-0_
 62
3
 10
1288.2409
 20
1693.5714
 30
0
 11
1285.036
 21
1695.7313
 31
0
  0
LINE
  8
_0-0_
 62
3
 10
1281.84
 20
1693.5714
 30
0
 11
1285.036
 21
1695.7313
 31
0
  0
LINE
  8
_0-0_
 62
3
 10
1291.104
 20
1713.5714
 30
0
 11
1294.3
 21
1711.4003
 31
0
  0
LINE
  8
_0-0_
 62
3
 10
1260.505
 20
1713.5714
 30
0
 11
1257.3
 21
1711.4003
 31
0
  0
LINE
  8
_0-0_
 62
3
 10
1263.3589
 20
1713.5714
 30
0
 11
1266.5729
 21
1711.4003
 31
0
  0
LINE
  8
_0-0_
 62
3
 10
1269.769
 20
1713.5714
 30
0
 11
1266.5729
 21
1711.4003
 31
0
  0
LINE
  8
_0-0_
 62
3
 10
1288.2409
 20
1713.5714
 30
0
 11
1285.036
 21
1711.4003
 31
0
  0
LINE
  8
_0-0_
 62
3
 10
1281.84
 20
1713.5714
 30
0
 11
1285.036
 21
1711.4003
 31
0
  0
LINE
  8
_0-0_
 62
4
 10
1265.2199
 20
1725.2013
 30
0
 11
1285.22
 21
1721.5613
 31
0
  0
LINE
  8
_0-0_
 62
4
 10
1265.2199
 20
1721.6114
 30
0
 11
1285.22
 21
1717.9713
 31
0
  0
LINE
  8
_0-0_
 62
4
 10
1265.2199
 20
1717.6214
 30
0
 11
1282.4009
 21
1714.5014
 31
0
  0
LINE
  8
_0-0_
 62
3
 10
1285.22
 20
1725.2013
 30
0
 11
1285.22
 21
1713.5714
 31
0
  0
LINE
  8
_0-0_
 62
3
 10
1265.2199
 20
1725.2013
 30
0
 11
1265.2199
 21
1713.5714
 31
0
  0
LINE
  8
_0-0_
 62
3
 10
1285.22
 20
1725.2013
 30
0
 11
1265.2199
 21
1725.2013
 31
0
  0
LINE
  8
_0-0_
 62
3
 10
1255.805
 20
1693.5714
 30
0
 11
1295.8049
 21
1693.5714
 31
0
  0
LINE
  8
_0-0_
 62
3
 10
1295.8049
 20
1693.5714
 30
0
 11
1295.8049
 21
1689.0714
 31
0
  0
LINE
  8
_0-0_
 62
3
 10
1295.8049
 20
1689.0714
 30
0
 11
1255.805
 21
1689.0714
 31
0
  0
LINE
  8
_0-0_
 62
3
 10
1255.805
 20
1689.0714
 30
0
 11
1255.805
 21
1693.5714
 31
0
  0
LINE
  8
_0-0_
 62
3
 10
1295.3
 20
1649.0713
 30
0
 11
1256.3
 21
1649.0713
 31
0
  0
LINE
  8
_0-0_
 62
3
 10
1288.953
 20
1636.0714
 30
0
 11
1262.6469
 21
1636.0714
 31
0
  0
LINE
  8
_0-0_
 62
3
 10
1295.3
 20
1649.0713
 30
0
 11
1295.2007
 21
1647.3448
 31
0
  0
LINE
  8
_0-0_
 62
3
 10
1295.2007
 20
1647.3448
 30
0
 11
1294.9033
 21
1645.6474
 31
0
  0
LINE
  8
_0-0_
 62
3
 10
1294.9033
 20
1645.6474
 30
0
 11
1294.4074
 21
1643.9788
 31
0
  0
LINE
  8
_0-0_
 62
3
 10
1294.4074
 20
1643.9788
 30
0
 11
1293.7132
 21
1642.3393
 31
0
  0
LINE
  8
_0-0_
 62
3
 10
1293.7132
 20
1642.3393
 30
0
 11
1292.8206
 21
1640.7288
 31
0
  0
LINE
  8
_0-0_
 62
3
 10
1292.8206
 20
1640.7288
 30
0
 11
1291.7298
 21
1639.1474
 31
0
  0
LINE
  8
_0-0_
 62
3
 10
1291.7298
 20
1639.1474
 30
0
 11
1290.4405
 21
1637.5949
 31
0
  0
LINE
  8
_0-0_
 62
3
 10
1290.4405
 20
1637.5949
 30
0
 11
1288.953
 21
1636.0714
 31
0
  0
LINE
  8
_0-0_
 62
3
 10
1256.3
 20
1649.0713
 30
0
 11
1256.3991
 21
1647.3448
 31
0
  0
LINE
  8
_0-0_
 62
3
 10
1256.3991
 20
1647.3448
 30
0
 11
1256.6966
 21
1645.6474
 31
0
  0
LINE
  8
_0-0_
 62
3
 10
1256.6966
 20
1645.6474
 30
0
 11
1257.1925
 21
1643.9788
 31
0
  0
LINE
  8
_0-0_
 62
3
 10
1257.1925
 20
1643.9788
 30
0
 11
1257.8867
 21
1642.3393
 31
0
  0
LINE
  8
_0-0_
 62
3
 10
1257.8867
 20
1642.3393
 30
0
 11
1258.7793
 21
1640.7288
 31
0
  0
LINE
  8
_0-0_
 62
3
 10
1258.7793
 20
1640.7288
 30
0
 11
1259.8702
 21
1639.1474
 31
0
  0
LINE
  8
_0-0_
 62
3
 10
1259.8702
 20
1639.1474
 30
0
 11
1261.1594
 21
1637.5949
 31
0
  0
LINE
  8
_0-0_
 62
3
 10
1261.1594
 20
1637.5949
 30
0
 11
1262.6469
 21
1636.0714
 31
0
  0
LINE
  8
_0-0_
 62
4
 10
1285.8049
 20
1689.0714
 30
0
 11
1285.8049
 21
1649.0713
 31
0
  0
LINE
  8
_0-0_
 62
4
 10
1265.805
 20
1689.0714
 30
0
 11
1265.805
 21
1649.0713
 31
0
  0
LINE
  8
_0-0_
 62
3
 10
1320.505
 20
1713.5714
 30
0
 11
1351.1039
 21
1713.5714
 31
0
  0
LINE
  8
_0-0_
 62
3
 10
1354.3
 20
1695.7313
 30
0
 11
1354.3
 21
1711.4003
 31
0
  0
LINE
  8
_0-0_
 62
3
 10
1317.2999
 20
1695.7313
 30
0
 11
1317.2999
 21
1711.4003
 31
0
  0
LINE
  8
_0-0_
 62
3
 10
1320.505
 20
1693.5714
 30
0
 11
1351.1039
 21
1693.5714
 31
0
  0
LINE
  8
_0-0_
 62
3
 10
1351.1039
 20
1693.5714
 30
0
 11
1354.3
 21
1695.7313
 31
0
  0
LINE
  8
_0-0_
 62
3
 10
1320.505
 20
1693.5714
 30
0
 11
1317.2999
 21
1695.7313
 31
0
  0
LINE
  8
_0-0_
 62
3
 10
1326.5729
 20
1695.7313
 30
0
 11
1326.5729
 21
1711.4003
 31
0
  0
LINE
  8
_0-0_
 62
3
 10
1323.359
 20
1693.5714
 30
0
 11
1326.5729
 21
1695.7313
 31
0
  0
LINE
  8
_0-0_
 62
3
 10
1329.7689
 20
1693.5714
 30
0
 11
1326.5729
 21
1695.7313
 31
0
  0
LINE
  8
_0-0_
 62
3
 10
1345.036
 20
1695.7313
 30
0
 11
1345.036
 21
1711.4003
 31
0
  0
LINE
  8
_0-0_
 62
3
 10
1348.2409
 20
1693.5714
 30
0
 11
1345.036
 21
1695.7313
 31
0
  0
LINE
  8
_0-0_
 62
3
 10
1341.84
 20
1693.5714
 30
0
 11
1345.036
 21
1695.7313
 31
0
  0
LINE
  8
_0-0_
 62
3
 10
1351.1039
 20
1713.5714
 30
0
 11
1354.3
 21
1711.4003
 31
0
  0
LINE
  8
_0-0_
 62
3
 10
1320.505
 20
1713.5714
 30
0
 11
1317.2999
 21
1711.4003
 31
0
  0
LINE
  8
_0-0_
 62
3
 10
1323.359
 20
1713.5714
 30
0
 11
1326.5729
 21
1711.4003
 31
0
  0
LINE
  8
_0-0_
 62
3
 10
1329.7689
 20
1713.5714
 30
0
 11
1326.5729
 21
1711.4003
 31
0
  0
LINE
  8
_0-0_
 62
3
 10
1348.2409
 20
1713.5714
 30
0
 11
1345.036
 21
1711.4003
 31
0
  0
LINE
  8
_0-0_
 62
3
 10
1341.84
 20
1713.5714
 30
0
 11
1345.036
 21
1711.4003
 31
0
  0
LINE
  8
_0-0_
 62
4
 10
1325.2199
 20
1725.2013
 30
0
 11
1345.22
 21
1721.5613
 31
0
  0
LINE
  8
_0-0_
 62
4
 10
1325.2199
 20
1721.6114
 30
0
 11
1345.22
 21
1717.9713
 31
0
  0
LINE
  8
_0-0_
 62
4
 10
1325.2199
 20
1717.6214
 30
0
 11
1342.4009
 21
1714.5014
 31
0
  0
LINE
  8
_0-0_
 62
3
 10
1345.22
 20
1725.2013
 30
0
 11
1345.22
 21
1713.5714
 31
0
  0
LINE
  8
_0-0_
 62
3
 10
1325.2199
 20
1725.2013
 30
0
 11
1325.2199
 21
1713.5714
 31
0
  0
LINE
  8
_0-0_
 62
3
 10
1345.22
 20
1725.2013
 30
0
 11
1325.2199
 21
1725.2013
 31
0
  0
LINE
  8
_0-0_
 62
3
 10
1315.805
 20
1693.5714
 30
0
 11
1355.8049
 21
1693.5714
 31
0
  0
LINE
  8
_0-0_
 62
3
 10
1355.8049
 20
1693.5714
 30
0
 11
1355.8049
 21
1689.0714
 31
0
  0
LINE
  8
_0-0_
 62
3
 10
1355.8049
 20
1689.0714
 30
0
 11
1315.805
 21
1689.0714
 31
0
  0
LINE
  8
_0-0_
 62
3
 10
1315.805
 20
1689.0714
 30
0
 11
1315.805
 21
1693.5714
 31
0
  0
LINE
  8
_0-0_
 62
3
 10
1355.2999
 20
1649.0713
 30
0
 11
1316.3
 21
1649.0713
 31
0
  0
LINE
  8
_0-0_
 62
3
 10
1348.953
 20
1636.0714
 30
0
 11
1322.6469
 21
1636.0714
 31
0
  0
LINE
  8
_0-0_
 62
3
 10
1355.2999
 20
1649.0713
 30
0
 11
1355.2008
 21
1647.3448
 31
0
  0
LINE
  8
_0-0_
 62
3
 10
1355.2008
 20
1647.3448
 30
0
 11
1354.9033
 21
1645.6474
 31
0
  0
LINE
  8
_0-0_
 62
3
 10
1354.9033
 20
1645.6474
 30
0
 11
1354.4074
 21
1643.9788
 31
0
  0
LINE
  8
_0-0_
 62
3
 10
1354.4074
 20
1643.9788
 30
0
 11
1353.7132
 21
1642.3393
 31
0
  0
LINE
  8
_0-0_
 62
3
 10
1353.7132
 20
1642.3393
 30
0
 11
1352.8206
 21
1640.7288
 31
0
  0
LINE
  8
_0-0_
 62
3
 10
1352.8206
 20
1640.7288
 30
0
 11
1351.7297
 21
1639.1474
 31
0
  0
LINE
  8
_0-0_
 62
3
 10
1351.7297
 20
1639.1474
 30
0
 11
1350.4405
 21
1637.5949
 31
0
  0
LINE
  8
_0-0_
 62
3
 10
1350.4405
 20
1637.5949
 30
0
 11
1348.953
 21
1636.0714
 31
0
  0
LINE
  8
_0-0_
 62
3
 10
1316.3
 20
1649.0713
 30
0
 11
1316.3991
 21
1647.3448
 31
0
  0
LINE
  8
_0-0_
 62
3
 10
1316.3991
 20
1647.3448
 30
0
 11
1316.6966
 21
1645.6474
 31
0
  0
LINE
  8
_0-0_
 62
3
 10
1316.6966
 20
1645.6474
 30
0
 11
1317.1925
 21
1643.9788
 31
0
  0
LINE
  8
_0-0_
 62
3
 10
1317.1925
 20
1643.9788
 30
0
 11
1317.8867
 21
1642.3393
 31
0
  0
LINE
  8
_0-0_
 62
3
 10
1317.8867
 20
1642.3393
 30
0
 11
1318.7793
 21
1640.7288
 31
0
  0
LINE
  8
_0-0_
 62
3
 10
1318.7793
 20
1640.7288
 30
0
 11
1319.8702
 21
1639.1474
 31
0
  0
LINE
  8
_0-0_
 62
3
 10
1319.8702
 20
1639.1474
 30
0
 11
1321.1594
 21
1637.5949
 31
0
  0
LINE
  8
_0-0_
 62
3
 10
1321.1594
 20
1637.5949
 30
0
 11
1322.6469
 21
1636.0714
 31
0
  0
LINE
  8
_0-0_
 62
4
 10
1345.8049
 20
1689.0714
 30
0
 11
1345.8049
 21
1649.0713
 31
0
  0
LINE
  8
_0-0_
 62
4
 10
1325.805
 20
1689.0714
 30
0
 11
1325.805
 21
1649.0713
 31
0
  0
LINE
  8
_0-0_
 62
3
 10
1380.505
 20
1713.5714
 30
0
 11
1411.1039
 21
1713.5714
 31
0
  0
LINE
  8
_0-0_
 62
3
 10
1414.3
 20
1695.7313
 30
0
 11
1414.3
 21
1711.4003
 31
0
  0
LINE
  8
_0-0_
 62
3
 10
1377.2999
 20
1695.7313
 30
0
 11
1377.2999
 21
1711.4003
 31
0
  0
LINE
  8
_0-0_
 62
3
 10
1380.505
 20
1693.5714
 30
0
 11
1411.1039
 21
1693.5714
 31
0
  0
LINE
  8
_0-0_
 62
3
 10
1411.1039
 20
1693.5714
 30
0
 11
1414.3
 21
1695.7313
 31
0
  0
LINE
  8
_0-0_
 62
3
 10
1380.505
 20
1693.5714
 30
0
 11
1377.2999
 21
1695.7313
 31
0
  0
LINE
  8
_0-0_
 62
3
 10
1386.5729
 20
1695.7313
 30
0
 11
1386.5729
 21
1711.4003
 31
0
  0
LINE
  8
_0-0_
 62
3
 10
1383.359
 20
1693.5714
 30
0
 11
1386.5729
 21
1695.7313
 31
0
  0
LINE
  8
_0-0_
 62
3
 10
1389.7689
 20
1693.5714
 30
0
 11
1386.5729
 21
1695.7313
 31
0
  0
LINE
  8
_0-0_
 62
3
 10
1405.036
 20
1695.7313
 30
0
 11
1405.036
 21
1711.4003
 31
0
  0
LINE
  8
_0-0_
 62
3
 10
1408.2409
 20
1693.5714
 30
0
 11
1405.036
 21
1695.7313
 31
0
  0
LINE
  8
_0-0_
 62
3
 10
1401.84
 20
1693.5714
 30
0
 11
1405.036
 21
1695.7313
 31
0
  0
LINE
  8
_0-0_
 62
3
 10
1411.1039
 20
1713.5714
 30
0
 11
1414.3
 21
1711.4003
 31
0
  0
LINE
  8
_0-0_
 62
3
 10
1380.505
 20
1713.5714
 30
0
 11
1377.2999
 21
1711.4003
 31
0
  0
LINE
  8
_0-0_
 62
3
 10
1383.359
 20
1713.5714
 30
0
 11
1386.5729
 21
1711.4003
 31
0
  0
LINE
  8
_0-0_
 62
3
 10
1389.7689
 20
1713.5714
 30
0
 11
1386.5729
 21
1711.4003
 31
0
  0
LINE
  8
_0-0_
 62
3
 10
1408.2409
 20
1713.5714
 30
0
 11
1405.036
 21
1711.4003
 31
0
  0
LINE
  8
_0-0_
 62
3
 10
1401.84
 20
1713.5714
 30
0
 11
1405.036
 21
1711.4003
 31
0
  0
LINE
  8
_0-0_
 62
4
 10
1385.2199
 20
1725.2013
 30
0
 11
1405.22
 21
1721.5613
 31
0
  0
LINE
  8
_0-0_
 62
4
 10
1385.2199
 20
1721.6114
 30
0
 11
1405.22
 21
1717.9713
 31
0
  0
LINE
  8
_0-0_
 62
4
 10
1385.2199
 20
1717.6214
 30
0
 11
1402.4009
 21
1714.5014
 31
0
  0
LINE
  8
_0-0_
 62
3
 10
1405.22
 20
1725.2013
 30
0
 11
1405.22
 21
1713.5714
 31
0
  0
LINE
  8
_0-0_
 62
3
 10
1385.2199
 20
1725.2013
 30
0
 11
1385.2199
 21
1713.5714
 31
0
  0
LINE
  8
_0-0_
 62
3
 10
1405.22
 20
1725.2013
 30
0
 11
1385.2199
 21
1725.2013
 31
0
  0
LINE
  8
_0-0_
 62
3
 10
1375.8049
 20
1693.5714
 30
0
 11
1415.8049
 21
1693.5714
 31
0
  0
LINE
  8
_0-0_
 62
3
 10
1415.8049
 20
1693.5714
 30
0
 11
1415.8049
 21
1689.0714
 31
0
  0
LINE
  8
_0-0_
 62
3
 10
1415.8049
 20
1689.0714
 30
0
 11
1375.8049
 21
1689.0714
 31
0
  0
LINE
  8
_0-0_
 62
3
 10
1375.8049
 20
1689.0714
 30
0
 11
1375.8049
 21
1693.5714
 31
0
  0
LINE
  8
_0-0_
 62
3
 10
1415.2999
 20
1649.0713
 30
0
 11
1376.3
 21
1649.0713
 31
0
  0
LINE
  8
_0-0_
 62
3
 10
1408.953
 20
1636.0714
 30
0
 11
1382.6469
 21
1636.0714
 31
0
  0
LINE
  8
_0-0_
 62
3
 10
1415.2999
 20
1649.0713
 30
0
 11
1415.2008
 21
1647.3448
 31
0
  0
LINE
  8
_0-0_
 62
3
 10
1415.2008
 20
1647.3448
 30
0
 11
1414.9033
 21
1645.6474
 31
0
  0
LINE
  8
_0-0_
 62
3
 10
1414.9033
 20
1645.6474
 30
0
 11
1414.4074
 21
1643.9788
 31
0
  0
LINE
  8
_0-0_
 62
3
 10
1414.4074
 20
1643.9788
 30
0
 11
1413.7132
 21
1642.3393
 31
0
  0
LINE
  8
_0-0_
 62
3
 10
1413.7132
 20
1642.3393
 30
0
 11
1412.8206
 21
1640.7288
 31
0
  0
LINE
  8
_0-0_
 62
3
 10
1412.8206
 20
1640.7288
 30
0
 11
1411.7297
 21
1639.1474
 31
0
  0
LINE
  8
_0-0_
 62
3
 10
1411.7297
 20
1639.1474
 30
0
 11
1410.4405
 21
1637.5949
 31
0
  0
LINE
  8
_0-0_
 62
3
 10
1410.4405
 20
1637.5949
 30
0
 11
1408.953
 21
1636.0714
 31
0
  0
LINE
  8
_0-0_
 62
3
 10
1376.3
 20
1649.0713
 30
0
 11
1376.3991
 21
1647.3448
 31
0
  0
LINE
  8
_0-0_
 62
3
 10
1376.3991
 20
1647.3448
 30
0
 11
1376.6966
 21
1645.6474
 31
0
  0
LINE
  8
_0-0_
 62
3
 10
1376.6966
 20
1645.6474
 30
0
 11
1377.1925
 21
1643.9788
 31
0
  0
LINE
  8
_0-0_
 62
3
 10
1377.1925
 20
1643.9788
 30
0
 11
1377.8867
 21
1642.3393
 31
0
  0
LINE
  8
_0-0_
 62
3
 10
1377.8867
 20
1642.3393
 30
0
 11
1378.7793
 21
1640.7288
 31
0
  0
LINE
  8
_0-0_
 62
3
 10
1378.7793
 20
1640.7288
 30
0
 11
1379.8702
 21
1639.1474
 31
0
  0
LINE
  8
_0-0_
 62
3
 10
1379.8702
 20
1639.1474
 30
0
 11
1381.1594
 21
1637.5949
 31
0
  0
LINE
  8
_0-0_
 62
3
 10
1381.1594
 20
1637.5949
 30
0
 11
1382.6469
 21
1636.0714
 31
0
  0
LINE
  8
_0-0_
 62
4
 10
1405.805
 20
1689.0714
 30
0
 11
1405.805
 21
1649.0713
 31
0
  0
LINE
  8
_0-0_
 62
4
 10
1385.805
 20
1689.0714
 30
0
 11
1385.805
 21
1649.0713
 31
0
  0
LINE
  8
_0-0_
 62
3
 10
1991.6
 20
1093.0714
 30
0
 11
469.99998
 21
1093.0714
 31
0
  0
LINE
  8
_0-0_
 62
3
 10
1050.505
 20
1040.5713
 30
0
 11
1081.1039
 21
1040.5713
 31
0
  0
LINE
  8
_0-0_
 62
3
 10
1084.2999
 20
1058.4113
 30
0
 11
1084.2999
 21
1042.7423
 31
0
  0
LINE
  8
_0-0_
 62
3
 10
1047.2999
 20
1058.4113
 30
0
 11
1047.2999
 21
1042.7423
 31
0
  0
LINE
  8
_0-0_
 62
3
 10
1050.505
 20
1060.5714
 30
0
 11
1081.1039
 21
1060.5714
 31
0
  0
LINE
  8
_0-0_
 62
3
 10
1081.1039
 20
1060.5714
 30
0
 11
1084.2999
 21
1058.4113
 31
0
  0
LINE
  8
_0-0_
 62
3
 10
1050.505
 20
1060.5714
 30
0
 11
1047.2999
 21
1058.4113
 31
0
  0
LINE
  8
_0-0_
 62
3
 10
1056.5729
 20
1058.4113
 30
0
 11
1056.5729
 21
1042.7423
 31
0
  0
LINE
  8
_0-0_
 62
3
 10
1053.359
 20
1060.5714
 30
0
 11
1056.5729
 21
1058.4113
 31
0
  0
LINE
  8
_0-0_
 62
3
 10
1059.7689
 20
1060.5714
 30
0
 11
1056.5729
 21
1058.4113
 31
0
  0
LINE
  8
_0-0_
 62
3
 10
1075.036
 20
1058.4113
 30
0
 11
1075.036
 21
1042.7423
 31
0
  0
LINE
  8
_0-0_
 62
3
 10
1078.241
 20
1060.5714
 30
0
 11
1075.036
 21
1058.4113
 31
0
  0
LINE
  8
_0-0_
 62
3
 10
1071.84
 20
1060.5714
 30
0
 11
1075.036
 21
1058.4113
 31
0
  0
LINE
  8
_0-0_
 62
3
 10
1081.1039
 20
1040.5713
 30
0
 11
1084.2999
 21
1042.7423
 31
0
  0
LINE
  8
_0-0_
 62
3
 10
1050.505
 20
1040.5713
 30
0
 11
1047.2999
 21
1042.7423
 31
0
  0
LINE
  8
_0-0_
 62
3
 10
1053.359
 20
1040.5713
 30
0
 11
1056.5729
 21
1042.7423
 31
0
  0
LINE
  8
_0-0_
 62
3
 10
1059.7689
 20
1040.5713
 30
0
 11
1056.5729
 21
1042.7423
 31
0
  0
LINE
  8
_0-0_
 62
3
 10
1078.241
 20
1040.5713
 30
0
 11
1075.036
 21
1042.7423
 31
0
  0
LINE
  8
_0-0_
 62
3
 10
1071.84
 20
1040.5713
 30
0
 11
1075.036
 21
1042.7423
 31
0
  0
LINE
  8
_0-0_
 62
4
 10
1055.2199
 20
1028.9413
 30
0
 11
1075.22
 21
1032.5814
 31
0
  0
LINE
  8
_0-0_
 62
4
 10
1055.2199
 20
1032.5313
 30
0
 11
1075.22
 21
1036.1713
 31
0
  0
LINE
  8
_0-0_
 62
4
 10
1055.2199
 20
1036.5214
 30
0
 11
1072.4009
 21
1039.6413
 31
0
  0
LINE
  8
_0-0_
 62
3
 10
1075.22
 20
1028.9413
 30
0
 11
1075.22
 21
1040.5713
 31
0
  0
LINE
  8
_0-0_
 62
3
 10
1055.2199
 20
1028.9413
 30
0
 11
1055.2199
 21
1040.5713
 31
0
  0
LINE
  8
_0-0_
 62
3
 10
1075.22
 20
1028.9413
 30
0
 11
1055.2199
 21
1028.9413
 31
0
  0
LINE
  8
_0-0_
 62
3
 10
1045.8049
 20
1065.0714
 30
0
 11
1085.8049
 21
1065.0714
 31
0
  0
LINE
  8
_0-0_
 62
3
 10
1085.8049
 20
1065.0714
 30
0
 11
1085.8049
 21
1060.5714
 31
0
  0
LINE
  8
_0-0_
 62
3
 10
1085.8049
 20
1060.5714
 30
0
 11
1045.8049
 21
1060.5714
 31
0
  0
LINE
  8
_0-0_
 62
3
 10
1045.8049
 20
1060.5714
 30
0
 11
1045.8049
 21
1065.0714
 31
0
  0
LINE
  8
_0-0_
 62
3
 10
1085.2999
 20
1105.0713
 30
0
 11
1046.2999
 21
1105.0713
 31
0
  0
LINE
  8
_0-0_
 62
3
 10
1078.953
 20
1118.0713
 30
0
 11
1052.6469
 21
1118.0713
 31
0
  0
LINE
  8
_0-0_
 62
3
 10
1085.2999
 20
1105.0713
 30
0
 11
1085.2008
 21
1106.7978
 31
0
  0
LINE
  8
_0-0_
 62
3
 10
1085.2008
 20
1106.7978
 30
0
 11
1084.9033
 21
1108.4954
 31
0
  0
LINE
  8
_0-0_
 62
3
 10
1084.9033
 20
1108.4954
 30
0
 11
1084.4074
 21
1110.1638
 31
0
  0
LINE
  8
_0-0_
 62
3
 10
1084.4074
 20
1110.1638
 30
0
 11
1083.7132
 21
1111.8033
 31
0
  0
LINE
  8
_0-0_
 62
3
 10
1083.7132
 20
1111.8033
 30
0
 11
1082.8206
 21
1113.4138
 31
0
  0
LINE
  8
_0-0_
 62
3
 10
1082.8206
 20
1113.4138
 30
0
 11
1081.7297
 21
1114.9953
 31
0
  0
LINE
  8
_0-0_
 62
3
 10
1081.7297
 20
1114.9953
 30
0
 11
1080.4405
 21
1116.5478
 31
0
  0
LINE
  8
_0-0_
 62
3
 10
1080.4405
 20
1116.5478
 30
0
 11
1078.953
 21
1118.0713
 31
0
  0
LINE
  8
_0-0_
 62
3
 10
1046.2999
 20
1105.0713
 30
0
 11
1046.3992
 21
1106.7978
 31
0
  0
LINE
  8
_0-0_
 62
3
 10
1046.3992
 20
1106.7978
 30
0
 11
1046.6966
 21
1108.4954
 31
0
  0
LINE
  8
_0-0_
 62
3
 10
1046.6966
 20
1108.4954
 30
0
 11
1047.1925
 21
1110.1638
 31
0
  0
LINE
  8
_0-0_
 62
3
 10
1047.1925
 20
1110.1638
 30
0
 11
1047.8867
 21
1111.8033
 31
0
  0
LINE
  8
_0-0_
 62
3
 10
1047.8867
 20
1111.8033
 30
0
 11
1048.7793
 21
1113.4138
 31
0
  0
LINE
  8
_0-0_
 62
3
 10
1048.7793
 20
1113.4138
 30
0
 11
1049.8701
 21
1114.9953
 31
0
  0
LINE
  8
_0-0_
 62
3
 10
1049.8701
 20
1114.9953
 30
0
 11
1051.1594
 21
1116.5478
 31
0
  0
LINE
  8
_0-0_
 62
3
 10
1051.1594
 20
1116.5478
 30
0
 11
1052.6469
 21
1118.0713
 31
0
  0
LINE
  8
_0-0_
 62
4
 10
1075.805
 20
1065.0714
 30
0
 11
1075.805
 21
1105.0713
 31
0
  0
LINE
  8
_0-0_
 62
4
 10
1055.805
 20
1065.0714
 30
0
 11
1055.805
 21
1105.0713
 31
0
  0
LINE
  8
_0-0_
 62
3
 10
1110.5049
 20
1040.5713
 30
0
 11
1141.1039
 21
1040.5713
 31
0
  0
LINE
  8
_0-0_
 62
3
 10
1144.2999
 20
1058.4113
 30
0
 11
1144.2999
 21
1042.7423
 31
0
  0
LINE
  8
_0-0_
 62
3
 10
1107.2999
 20
1058.4113
 30
0
 11
1107.2999
 21
1042.7423
 31
0
  0
LINE
  8
_0-0_
 62
3
 10
1110.5049
 20
1060.5714
 30
0
 11
1141.1039
 21
1060.5714
 31
0
  0
LINE
  8
_0-0_
 62
3
 10
1141.1039
 20
1060.5714
 30
0
 11
1144.2999
 21
1058.4113
 31
0
  0
LINE
  8
_0-0_
 62
3
 10
1110.5049
 20
1060.5714
 30
0
 11
1107.2999
 21
1058.4113
 31
0
  0
LINE
  8
_0-0_
 62
3
 10
1116.5729
 20
1058.4113
 30
0
 11
1116.5729
 21
1042.7423
 31
0
  0
LINE
  8
_0-0_
 62
3
 10
1113.359
 20
1060.5714
 30
0
 11
1116.5729
 21
1058.4113
 31
0
  0
LINE
  8
_0-0_
 62
3
 10
1119.7689
 20
1060.5714
 30
0
 11
1116.5729
 21
1058.4113
 31
0
  0
LINE
  8
_0-0_
 62
3
 10
1135.036
 20
1058.4113
 30
0
 11
1135.036
 21
1042.7423
 31
0
  0
LINE
  8
_0-0_
 62
3
 10
1138.241
 20
1060.5714
 30
0
 11
1135.036
 21
1058.4113
 31
0
  0
LINE
  8
_0-0_
 62
3
 10
1131.8399
 20
1060.5714
 30
0
 11
1135.036
 21
1058.4113
 31
0
  0
LINE
  8
_0-0_
 62
3
 10
1141.1039
 20
1040.5713
 30
0
 11
1144.2999
 21
1042.7423
 31
0
  0
LINE
  8
_0-0_
 62
3
 10
1110.5049
 20
1040.5713
 30
0
 11
1107.2999
 21
1042.7423
 31
0
  0
LINE
  8
_0-0_
 62
3
 10
1113.359
 20
1040.5713
 30
0
 11
1116.5729
 21
1042.7423
 31
0
  0
LINE
  8
_0-0_
 62
3
 10
1119.7689
 20
1040.5713
 30
0
 11
1116.5729
 21
1042.7423
 31
0
  0
LINE
  8
_0-0_
 62
3
 10
1138.241
 20
1040.5713
 30
0
 11
1135.036
 21
1042.7423
 31
0
  0
LINE
  8
_0-0_
 62
3
 10
1131.8399
 20
1040.5713
 30
0
 11
1135.036
 21
1042.7423
 31
0
  0
LINE
  8
_0-0_
 62
4
 10
1115.2199
 20
1028.9413
 30
0
 11
1135.2199
 21
1032.5814
 31
0
  0
LINE
  8
_0-0_
 62
4
 10
1115.2199
 20
1032.5313
 30
0
 11
1135.2199
 21
1036.1713
 31
0
  0
LINE
  8
_0-0_
 62
4
 10
1115.2199
 20
1036.5214
 30
0
 11
1132.4009
 21
1039.6413
 31
0
  0
LINE
  8
_0-0_
 62
3
 10
1135.2199
 20
1028.9413
 30
0
 11
1135.2199
 21
1040.5713
 31
0
  0
LINE
  8
_0-0_
 62
3
 10
1115.2199
 20
1028.9413
 30
0
 11
1115.2199
 21
1040.5713
 31
0
  0
LINE
  8
_0-0_
 62
3
 10
1135.2199
 20
1028.9413
 30
0
 11
1115.2199
 21
1028.9413
 31
0
  0
LINE
  8
_0-0_
 62
3
 10
1105.8049
 20
1065.0714
 30
0
 11
1145.805
 21
1065.0714
 31
0
  0
LINE
  8
_0-0_
 62
3
 10
1145.805
 20
1065.0714
 30
0
 11
1145.805
 21
1060.5714
 31
0
  0
LINE
  8
_0-0_
 62
3
 10
1145.805
 20
1060.5714
 30
0
 11
1105.8049
 21
1060.5714
 31
0
  0
LINE
  8
_0-0_
 62
3
 10
1105.8049
 20
1060.5714
 30
0
 11
1105.8049
 21
1065.0714
 31
0
  0
LINE
  8
_0-0_
 62
3
 10
1145.2999
 20
1105.0713
 30
0
 11
1106.2999
 21
1105.0713
 31
0
  0
LINE
  8
_0-0_
 62
3
 10
1138.953
 20
1118.0713
 30
0
 11
1112.647
 21
1118.0713
 31
0
  0
LINE
  8
_0-0_
 62
3
 10
1145.2999
 20
1105.0713
 30
0
 11
1145.2008
 21
1106.7978
 31
0
  0
LINE
  8
_0-0_
 62
3
 10
1145.2008
 20
1106.7978
 30
0
 11
1144.9033
 21
1108.4954
 31
0
  0
LINE
  8
_0-0_
 62
3
 10
1144.9033
 20
1108.4954
 30
0
 11
1144.4074
 21
1110.1638
 31
0
  0
LINE
  8
_0-0_
 62
3
 10
1144.4074
 20
1110.1638
 30
0
 11
1143.7132
 21
1111.8033
 31
0
  0
LINE
  8
_0-0_
 62
3
 10
1143.7132
 20
1111.8033
 30
0
 11
1142.8207
 21
1113.4138
 31
0
  0
LINE
  8
_0-0_
 62
3
 10
1142.8207
 20
1113.4138
 30
0
 11
1141.7297
 21
1114.9953
 31
0
  0
LINE
  8
_0-0_
 62
3
 10
1141.7297
 20
1114.9953
 30
0
 11
1140.4405
 21
1116.5478
 31
0
  0
LINE
  8
_0-0_
 62
3
 10
1140.4405
 20
1116.5478
 30
0
 11
1138.953
 21
1118.0713
 31
0
  0
LINE
  8
_0-0_
 62
3
 10
1106.2999
 20
1105.0713
 30
0
 11
1106.3992
 21
1106.7978
 31
0
  0
LINE
  8
_0-0_
 62
3
 10
1106.3992
 20
1106.7978
 30
0
 11
1106.6966
 21
1108.4954
 31
0
  0
LINE
  8
_0-0_
 62
3
 10
1106.6966
 20
1108.4954
 30
0
 11
1107.1925
 21
1110.1638
 31
0
  0
LINE
  8
_0-0_
 62
3
 10
1107.1925
 20
1110.1638
 30
0
 11
1107.8867
 21
1111.8033
 31
0
  0
LINE
  8
_0-0_
 62
3
 10
1107.8867
 20
1111.8033
 30
0
 11
1108.7793
 21
1113.4138
 31
0
  0
LINE
  8
_0-0_
 62
3
 10
1108.7793
 20
1113.4138
 30
0
 11
1109.8701
 21
1114.9953
 31
0
  0
LINE
  8
_0-0_
 62
3
 10
1109.8701
 20
1114.9953
 30
0
 11
1111.1594
 21
1116.5478
 31
0
  0
LINE
  8
_0-0_
 62
3
 10
1111.1594
 20
1116.5478
 30
0
 11
1112.647
 21
1118.0713
 31
0
  0
LINE
  8
_0-0_
 62
4
 10
1135.805
 20
1065.0714
 30
0
 11
1135.805
 21
1105.0713
 31
0
  0
LINE
  8
_0-0_
 62
4
 10
1115.8049
 20
1065.0714
 30
0
 11
1115.8049
 21
1105.0713
 31
0
  0
LINE
  8
_0-0_
 62
3
 10
1170.5049
 20
1040.5713
 30
0
 11
1201.1039
 21
1040.5713
 31
0
  0
LINE
  8
_0-0_
 62
3
 10
1204.2999
 20
1058.4113
 30
0
 11
1204.2999
 21
1042.7423
 31
0
  0
LINE
  8
_0-0_
 62
3
 10
1167.2999
 20
1058.4113
 30
0
 11
1167.2999
 21
1042.7423
 31
0
  0
LINE
  8
_0-0_
 62
3
 10
1170.5049
 20
1060.5714
 30
0
 11
1201.1039
 21
1060.5714
 31
0
  0
LINE
  8
_0-0_
 62
3
 10
1201.1039
 20
1060.5714
 30
0
 11
1204.2999
 21
1058.4113
 31
0
  0
LINE
  8
_0-0_
 62
3
 10
1170.5049
 20
1060.5714
 30
0
 11
1167.2999
 21
1058.4113
 31
0
  0
LINE
  8
_0-0_
 62
3
 10
1176.5729
 20
1058.4113
 30
0
 11
1176.5729
 21
1042.7423
 31
0
  0
LINE
  8
_0-0_
 62
3
 10
1173.359
 20
1060.5714
 30
0
 11
1176.5729
 21
1058.4113
 31
0
  0
LINE
  8
_0-0_
 62
3
 10
1179.7689
 20
1060.5714
 30
0
 11
1176.5729
 21
1058.4113
 31
0
  0
LINE
  8
_0-0_
 62
3
 10
1195.036
 20
1058.4113
 30
0
 11
1195.036
 21
1042.7423
 31
0
  0
LINE
  8
_0-0_
 62
3
 10
1198.241
 20
1060.5714
 30
0
 11
1195.036
 21
1058.4113
 31
0
  0
LINE
  8
_0-0_
 62
3
 10
1191.8399
 20
1060.5714
 30
0
 11
1195.036
 21
1058.4113
 31
0
  0
LINE
  8
_0-0_
 62
3
 10
1201.1039
 20
1040.5713
 30
0
 11
1204.2999
 21
1042.7423
 31
0
  0
LINE
  8
_0-0_
 62
3
 10
1170.5049
 20
1040.5713
 30
0
 11
1167.2999
 21
1042.7423
 31
0
  0
LINE
  8
_0-0_
 62
3
 10
1173.359
 20
1040.5713
 30
0
 11
1176.5729
 21
1042.7423
 31
0
  0
LINE
  8
_0-0_
 62
3
 10
1179.7689
 20
1040.5713
 30
0
 11
1176.5729
 21
1042.7423
 31
0
  0
LINE
  8
_0-0_
 62
3
 10
1198.241
 20
1040.5713
 30
0
 11
1195.036
 21
1042.7423
 31
0
  0
LINE
  8
_0-0_
 62
3
 10
1191.8399
 20
1040.5713
 30
0
 11
1195.036
 21
1042.7423
 31
0
  0
LINE
  8
_0-0_
 62
4
 10
1175.2199
 20
1028.9413
 30
0
 11
1195.2199
 21
1032.5814
 31
0
  0
LINE
  8
_0-0_
 62
4
 10
1175.2199
 20
1032.5313
 30
0
 11
1195.2199
 21
1036.1713
 31
0
  0
LINE
  8
_0-0_
 62
4
 10
1175.2199
 20
1036.5214
 30
0
 11
1192.4009
 21
1039.6413
 31
0
  0
LINE
  8
_0-0_
 62
3
 10
1195.2199
 20
1028.9413
 30
0
 11
1195.2199
 21
1040.5713
 31
0
  0
LINE
  8
_0-0_
 62
3
 10
1175.2199
 20
1028.9413
 30
0
 11
1175.2199
 21
1040.5713
 31
0
  0
LINE
  8
_0-0_
 62
3
 10
1195.2199
 20
1028.9413
 30
0
 11
1175.2199
 21
1028.9413
 31
0
  0
LINE
  8
_0-0_
 62
3
 10
1165.8049
 20
1065.0714
 30
0
 11
1205.805
 21
1065.0714
 31
0
  0
LINE
  8
_0-0_
 62
3
 10
1205.805
 20
1065.0714
 30
0
 11
1205.805
 21
1060.5714
 31
0
  0
LINE
  8
_0-0_
 62
3
 10
1205.805
 20
1060.5714
 30
0
 11
1165.8049
 21
1060.5714
 31
0
  0
LINE
  8
_0-0_
 62
3
 10
1165.8049
 20
1060.5714
 30
0
 11
1165.8049
 21
1065.0714
 31
0
  0
LINE
  8
_0-0_
 62
3
 10
1205.2999
 20
1105.0713
 30
0
 11
1166.2999
 21
1105.0713
 31
0
  0
LINE
  8
_0-0_
 62
3
 10
1198.9529
 20
1118.0713
 30
0
 11
1172.647
 21
1118.0713
 31
0
  0
LINE
  8
_0-0_
 62
3
 10
1205.2999
 20
1105.0713
 30
0
 11
1205.2008
 21
1106.7978
 31
0
  0
LINE
  8
_0-0_
 62
3
 10
1205.2008
 20
1106.7978
 30
0
 11
1204.9032
 21
1108.4954
 31
0
  0
LINE
  8
_0-0_
 62
3
 10
1204.9032
 20
1108.4954
 30
0
 11
1204.4074
 21
1110.1638
 31
0
  0
LINE
  8
_0-0_
 62
3
 10
1204.4074
 20
1110.1638
 30
0
 11
1203.7132
 21
1111.8033
 31
0
  0
LINE
  8
_0-0_
 62
3
 10
1203.7132
 20
1111.8033
 30
0
 11
1202.8207
 21
1113.4138
 31
0
  0
LINE
  8
_0-0_
 62
3
 10
1202.8207
 20
1113.4138
 30
0
 11
1201.7297
 21
1114.9953
 31
0
  0
LINE
  8
_0-0_
 62
3
 10
1201.7297
 20
1114.9953
 30
0
 11
1200.4405
 21
1116.5478
 31
0
  0
LINE
  8
_0-0_
 62
3
 10
1200.4405
 20
1116.5478
 30
0
 11
1198.9529
 21
1118.0713
 31
0
  0
LINE
  8
_0-0_
 62
3
 10
1166.2999
 20
1105.0713
 30
0
 11
1166.3991
 21
1106.7978
 31
0
  0
LINE
  8
_0-0_
 62
3
 10
1166.3991
 20
1106.7978
 30
0
 11
1166.6966
 21
1108.4954
 31
0
  0
LINE
  8
_0-0_
 62
3
 10
1166.6966
 20
1108.4954
 30
0
 11
1167.1925
 21
1110.1638
 31
0
  0
LINE
  8
_0-0_
 62
3
 10
1167.1925
 20
1110.1638
 30
0
 11
1167.8867
 21
1111.8033
 31
0
  0
LINE
  8
_0-0_
 62
3
 10
1167.8867
 20
1111.8033
 30
0
 11
1168.7792
 21
1113.4138
 31
0
  0
LINE
  8
_0-0_
 62
3
 10
1168.7792
 20
1113.4138
 30
0
 11
1169.8701
 21
1114.9953
 31
0
  0
LINE
  8
_0-0_
 62
3
 10
1169.8701
 20
1114.9953
 30
0
 11
1171.1593
 21
1116.5478
 31
0
  0
LINE
  8
_0-0_
 62
3
 10
1171.1593
 20
1116.5478
 30
0
 11
1172.647
 21
1118.0713
 31
0
  0
LINE
  8
_0-0_
 62
4
 10
1195.805
 20
1065.0714
 30
0
 11
1195.805
 21
1105.0713
 31
0
  0
LINE
  8
_0-0_
 62
4
 10
1175.8049
 20
1065.0714
 30
0
 11
1175.8049
 21
1105.0713
 31
0
  0
LINE
  8
_0-0_
 62
3
 10
1260.505
 20
1040.5713
 30
0
 11
1291.104
 21
1040.5713
 31
0
  0
LINE
  8
_0-0_
 62
3
 10
1294.3
 20
1058.4113
 30
0
 11
1294.3
 21
1042.7423
 31
0
  0
LINE
  8
_0-0_
 62
3
 10
1257.3
 20
1058.4113
 30
0
 11
1257.3
 21
1042.7423
 31
0
  0
LINE
  8
_0-0_
 62
3
 10
1260.505
 20
1060.5714
 30
0
 11
1291.104
 21
1060.5714
 31
0
  0
LINE
  8
_0-0_
 62
3
 10
1291.104
 20
1060.5714
 30
0
 11
1294.3
 21
1058.4113
 31
0
  0
LINE
  8
_0-0_
 62
3
 10
1260.505
 20
1060.5714
 30
0
 11
1257.3
 21
1058.4113
 31
0
  0
LINE
  8
_0-0_
 62
3
 10
1266.5729
 20
1058.4113
 30
0
 11
1266.5729
 21
1042.7423
 31
0
  0
LINE
  8
_0-0_
 62
3
 10
1263.3589
 20
1060.5714
 30
0
 11
1266.5729
 21
1058.4113
 31
0
  0
LINE
  8
_0-0_
 62
3
 10
1269.769
 20
1060.5714
 30
0
 11
1266.5729
 21
1058.4113
 31
0
  0
LINE
  8
_0-0_
 62
3
 10
1285.036
 20
1058.4113
 30
0
 11
1285.036
 21
1042.7423
 31
0
  0
LINE
  8
_0-0_
 62
3
 10
1288.2409
 20
1060.5714
 30
0
 11
1285.036
 21
1058.4113
 31
0
  0
LINE
  8
_0-0_
 62
3
 10
1281.84
 20
1060.5714
 30
0
 11
1285.036
 21
1058.4113
 31
0
  0
LINE
  8
_0-0_
 62
3
 10
1291.104
 20
1040.5713
 30
0
 11
1294.3
 21
1042.7423
 31
0
  0
LINE
  8
_0-0_
 62
3
 10
1260.505
 20
1040.5713
 30
0
 11
1257.3
 21
1042.7423
 31
0
  0
LINE
  8
_0-0_
 62
3
 10
1263.3589
 20
1040.5713
 30
0
 11
1266.5729
 21
1042.7423
 31
0
  0
LINE
  8
_0-0_
 62
3
 10
1269.769
 20
1040.5713
 30
0
 11
1266.5729
 21
1042.7423
 31
0
  0
LINE
  8
_0-0_
 62
3
 10
1288.2409
 20
1040.5713
 30
0
 11
1285.036
 21
1042.7423
 31
0
  0
LINE
  8
_0-0_
 62
3
 10
1281.84
 20
1040.5713
 30
0
 11
1285.036
 21
1042.7423
 31
0
  0
LINE
  8
_0-0_
 62
4
 10
1265.2199
 20
1028.9413
 30
0
 11
1285.22
 21
1032.5814
 31
0
  0
LINE
  8
_0-0_
 62
4
 10
1265.2199
 20
1032.5313
 30
0
 11
1285.22
 21
1036.1713
 31
0
  0
LINE
  8
_0-0_
 62
4
 10
1265.2199
 20
1036.5214
 30
0
 11
1282.4009
 21
1039.6413
 31
0
  0
LINE
  8
_0-0_
 62
3
 10
1285.22
 20
1028.9413
 30
0
 11
1285.22
 21
1040.5713
 31
0
  0
LINE
  8
_0-0_
 62
3
 10
1265.2199
 20
1028.9413
 30
0
 11
1265.2199
 21
1040.5713
 31
0
  0
LINE
  8
_0-0_
 62
3
 10
1285.22
 20
1028.9413
 30
0
 11
1265.2199
 21
1028.9413
 31
0
  0
LINE
  8
_0-0_
 62
3
 10
1255.805
 20
1065.0714
 30
0
 11
1295.8049
 21
1065.0714
 31
0
  0
LINE
  8
_0-0_
 62
3
 10
1295.8049
 20
1065.0714
 30
0
 11
1295.8049
 21
1060.5714
 31
0
  0
LINE
  8
_0-0_
 62
3
 10
1295.8049
 20
1060.5714
 30
0
 11
1255.805
 21
1060.5714
 31
0
  0
LINE
  8
_0-0_
 62
3
 10
1255.805
 20
1060.5714
 30
0
 11
1255.805
 21
1065.0714
 31
0
  0
LINE
  8
_0-0_
 62
3
 10
1295.3
 20
1105.0713
 30
0
 11
1256.3
 21
1105.0713
 31
0
  0
LINE
  8
_0-0_
 62
3
 10
1288.953
 20
1118.0713
 30
0
 11
1262.6469
 21
1118.0713
 31
0
  0
LINE
  8
_0-0_
 62
3
 10
1295.3
 20
1105.0713
 30
0
 11
1295.2007
 21
1106.7978
 31
0
  0
LINE
  8
_0-0_
 62
3
 10
1295.2007
 20
1106.7978
 30
0
 11
1294.9033
 21
1108.4954
 31
0
  0
LINE
  8
_0-0_
 62
3
 10
1294.9033
 20
1108.4954
 30
0
 11
1294.4074
 21
1110.1638
 31
0
  0
LINE
  8
_0-0_
 62
3
 10
1294.4074
 20
1110.1638
 30
0
 11
1293.7132
 21
1111.8033
 31
0
  0
LINE
  8
_0-0_
 62
3
 10
1293.7132
 20
1111.8033
 30
0
 11
1292.8206
 21
1113.4138
 31
0
  0
LINE
  8
_0-0_
 62
3
 10
1292.8206
 20
1113.4138
 30
0
 11
1291.7298
 21
1114.9953
 31
0
  0
LINE
  8
_0-0_
 62
3
 10
1291.7298
 20
1114.9953
 30
0
 11
1290.4405
 21
1116.5478
 31
0
  0
LINE
  8
_0-0_
 62
3
 10
1290.4405
 20
1116.5478
 30
0
 11
1288.953
 21
1118.0713
 31
0
  0
LINE
  8
_0-0_
 62
3
 10
1256.3
 20
1105.0713
 30
0
 11
1256.3991
 21
1106.7978
 31
0
  0
LINE
  8
_0-0_
 62
3
 10
1256.3991
 20
1106.7978
 30
0
 11
1256.6966
 21
1108.4954
 31
0
  0
LINE
  8
_0-0_
 62
3
 10
1256.6966
 20
1108.4954
 30
0
 11
1257.1925
 21
1110.1638
 31
0
  0
LINE
  8
_0-0_
 62
3
 10
1257.1925
 20
1110.1638
 30
0
 11
1257.8867
 21
1111.8033
 31
0
  0
LINE
  8
_0-0_
 62
3
 10
1257.8867
 20
1111.8033
 30
0
 11
1258.7793
 21
1113.4138
 31
0
  0
LINE
  8
_0-0_
 62
3
 10
1258.7793
 20
1113.4138
 30
0
 11
1259.8702
 21
1114.9953
 31
0
  0
LINE
  8
_0-0_
 62
3
 10
1259.8702
 20
1114.9953
 30
0
 11
1261.1594
 21
1116.5478
 31
0
  0
LINE
  8
_0-0_
 62
3
 10
1261.1594
 20
1116.5478
 30
0
 11
1262.6469
 21
1118.0713
 31
0
  0
LINE
  8
_0-0_
 62
4
 10
1285.8049
 20
1065.0714
 30
0
 11
1285.8049
 21
1105.0713
 31
0
  0
LINE
  8
_0-0_
 62
4
 10
1265.805
 20
1065.0714
 30
0
 11
1265.805
 21
1105.0713
 31
0
  0
LINE
  8
_0-0_
 62
3
 10
1320.505
 20
1040.5713
 30
0
 11
1351.1039
 21
1040.5713
 31
0
  0
LINE
  8
_0-0_
 62
3
 10
1354.3
 20
1058.4113
 30
0
 11
1354.3
 21
1042.7423
 31
0
  0
LINE
  8
_0-0_
 62
3
 10
1317.2999
 20
1058.4113
 30
0
 11
1317.2999
 21
1042.7423
 31
0
  0
LINE
  8
_0-0_
 62
3
 10
1320.505
 20
1060.5714
 30
0
 11
1351.1039
 21
1060.5714
 31
0
  0
LINE
  8
_0-0_
 62
3
 10
1351.1039
 20
1060.5714
 30
0
 11
1354.3
 21
1058.4113
 31
0
  0
LINE
  8
_0-0_
 62
3
 10
1320.505
 20
1060.5714
 30
0
 11
1317.2999
 21
1058.4113
 31
0
  0
LINE
  8
_0-0_
 62
3
 10
1326.5729
 20
1058.4113
 30
0
 11
1326.5729
 21
1042.7423
 31
0
  0
LINE
  8
_0-0_
 62
3
 10
1323.359
 20
1060.5714
 30
0
 11
1326.5729
 21
1058.4113
 31
0
  0
LINE
  8
_0-0_
 62
3
 10
1329.7689
 20
1060.5714
 30
0
 11
1326.5729
 21
1058.4113
 31
0
  0
LINE
  8
_0-0_
 62
3
 10
1345.036
 20
1058.4113
 30
0
 11
1345.036
 21
1042.7423
 31
0
  0
LINE
  8
_0-0_
 62
3
 10
1348.2409
 20
1060.5714
 30
0
 11
1345.036
 21
1058.4113
 31
0
  0
LINE
  8
_0-0_
 62
3
 10
1341.84
 20
1060.5714
 30
0
 11
1345.036
 21
1058.4113
 31
0
  0
LINE
  8
_0-0_
 62
3
 10
1351.1039
 20
1040.5713
 30
0
 11
1354.3
 21
1042.7423
 31
0
  0
LINE
  8
_0-0_
 62
3
 10
1320.505
 20
1040.5713
 30
0
 11
1317.2999
 21
1042.7423
 31
0
  0
LINE
  8
_0-0_
 62
3
 10
1323.359
 20
1040.5713
 30
0
 11
1326.5729
 21
1042.7423
 31
0
  0
LINE
  8
_0-0_
 62
3
 10
1329.7689
 20
1040.5713
 30
0
 11
1326.5729
 21
1042.7423
 31
0
  0
LINE
  8
_0-0_
 62
3
 10
1348.2409
 20
1040.5713
 30
0
 11
1345.036
 21
1042.7423
 31
0
  0
LINE
  8
_0-0_
 62
3
 10
1341.84
 20
1040.5713
 30
0
 11
1345.036
 21
1042.7423
 31
0
  0
LINE
  8
_0-0_
 62
4
 10
1325.2199
 20
1028.9413
 30
0
 11
1345.22
 21
1032.5814
 31
0
  0
LINE
  8
_0-0_
 62
4
 10
1325.2199
 20
1032.5313
 30
0
 11
1345.22
 21
1036.1713
 31
0
  0
LINE
  8
_0-0_
 62
4
 10
1325.2199
 20
1036.5214
 30
0
 11
1342.4009
 21
1039.6413
 31
0
  0
LINE
  8
_0-0_
 62
3
 10
1345.22
 20
1028.9413
 30
0
 11
1345.22
 21
1040.5713
 31
0
  0
LINE
  8
_0-0_
 62
3
 10
1325.2199
 20
1028.9413
 30
0
 11
1325.2199
 21
1040.5713
 31
0
  0
LINE
  8
_0-0_
 62
3
 10
1345.22
 20
1028.9413
 30
0
 11
1325.2199
 21
1028.9413
 31
0
  0
LINE
  8
_0-0_
 62
3
 10
1315.805
 20
1065.0714
 30
0
 11
1355.8049
 21
1065.0714
 31
0
  0
LINE
  8
_0-0_
 62
3
 10
1355.8049
 20
1065.0714
 30
0
 11
1355.8049
 21
1060.5714
 31
0
  0
LINE
  8
_0-0_
 62
3
 10
1355.8049
 20
1060.5714
 30
0
 11
1315.805
 21
1060.5714
 31
0
  0
LINE
  8
_0-0_
 62
3
 10
1315.805
 20
1060.5714
 30
0
 11
1315.805
 21
1065.0714
 31
0
  0
LINE
  8
_0-0_
 62
3
 10
1355.2999
 20
1105.0713
 30
0
 11
1316.3
 21
1105.0713
 31
0
  0
LINE
  8
_0-0_
 62
3
 10
1348.953
 20
1118.0713
 30
0
 11
1322.6469
 21
1118.0713
 31
0
  0
LINE
  8
_0-0_
 62
3
 10
1355.2999
 20
1105.0713
 30
0
 11
1355.2008
 21
1106.7978
 31
0
  0
LINE
  8
_0-0_
 62
3
 10
1355.2008
 20
1106.7978
 30
0
 11
1354.9033
 21
1108.4954
 31
0
  0
LINE
  8
_0-0_
 62
3
 10
1354.9033
 20
1108.4954
 30
0
 11
1354.4074
 21
1110.1638
 31
0
  0
LINE
  8
_0-0_
 62
3
 10
1354.4074
 20
1110.1638
 30
0
 11
1353.7132
 21
1111.8033
 31
0
  0
LINE
  8
_0-0_
 62
3
 10
1353.7132
 20
1111.8033
 30
0
 11
1352.8206
 21
1113.4138
 31
0
  0
LINE
  8
_0-0_
 62
3
 10
1352.8206
 20
1113.4138
 30
0
 11
1351.7297
 21
1114.9953
 31
0
  0
LINE
  8
_0-0_
 62
3
 10
1351.7297
 20
1114.9953
 30
0
 11
1350.4405
 21
1116.5478
 31
0
  0
LINE
  8
_0-0_
 62
3
 10
1350.4405
 20
1116.5478
 30
0
 11
1348.953
 21
1118.0713
 31
0
  0
LINE
  8
_0-0_
 62
3
 10
1316.3
 20
1105.0713
 30
0
 11
1316.3991
 21
1106.7978
 31
0
  0
LINE
  8
_0-0_
 62
3
 10
1316.3991
 20
1106.7978
 30
0
 11
1316.6966
 21
1108.4954
 31
0
  0
LINE
  8
_0-0_
 62
3
 10
1316.6966
 20
1108.4954
 30
0
 11
1317.1925
 21
1110.1638
 31
0
  0
LINE
  8
_0-0_
 62
3
 10
1317.1925
 20
1110.1638
 30
0
 11
1317.8867
 21
1111.8033
 31
0
  0
LINE
  8
_0-0_
 62
3
 10
1317.8867
 20
1111.8033
 30
0
 11
1318.7793
 21
1113.4138
 31
0
  0
LINE
  8
_0-0_
 62
3
 10
1318.7793
 20
1113.4138
 30
0
 11
1319.8702
 21
1114.9953
 31
0
  0
LINE
  8
_0-0_
 62
3
 10
1319.8702
 20
1114.9953
 30
0
 11
1321.1594
 21
1116.5478
 31
0
  0
LINE
  8
_0-0_
 62
3
 10
1321.1594
 20
1116.5478
 30
0
 11
1322.6469
 21
1118.0713
 31
0
  0
LINE
  8
_0-0_
 62
4
 10
1345.8049
 20
1065.0714
 30
0
 11
1345.8049
 21
1105.0713
 31
0
  0
LINE
  8
_0-0_
 62
4
 10
1325.805
 20
1065.0714
 30
0
 11
1325.805
 21
1105.0713
 31
0
  0
LINE
  8
_0-0_
 62
3
 10
1380.505
 20
1040.5713
 30
0
 11
1411.1039
 21
1040.5713
 31
0
  0
LINE
  8
_0-0_
 62
3
 10
1414.3
 20
1058.4113
 30
0
 11
1414.3
 21
1042.7423
 31
0
  0
LINE
  8
_0-0_
 62
3
 10
1377.2999
 20
1058.4113
 30
0
 11
1377.2999
 21
1042.7423
 31
0
  0
LINE
  8
_0-0_
 62
3
 10
1380.505
 20
1060.5714
 30
0
 11
1411.1039
 21
1060.5714
 31
0
  0
LINE
  8
_0-0_
 62
3
 10
1411.1039
 20
1060.5714
 30
0
 11
1414.3
 21
1058.4113
 31
0
  0
LINE
  8
_0-0_
 62
3
 10
1380.505
 20
1060.5714
 30
0
 11
1377.2999
 21
1058.4113
 31
0
  0
LINE
  8
_0-0_
 62
3
 10
1386.5729
 20
1058.4113
 30
0
 11
1386.5729
 21
1042.7423
 31
0
  0
LINE
  8
_0-0_
 62
3
 10
1383.359
 20
1060.5714
 30
0
 11
1386.5729
 21
1058.4113
 31
0
  0
LINE
  8
_0-0_
 62
3
 10
1389.7689
 20
1060.5714
 30
0
 11
1386.5729
 21
1058.4113
 31
0
  0
LINE
  8
_0-0_
 62
3
 10
1405.036
 20
1058.4113
 30
0
 11
1405.036
 21
1042.7423
 31
0
  0
LINE
  8
_0-0_
 62
3
 10
1408.2409
 20
1060.5714
 30
0
 11
1405.036
 21
1058.4113
 31
0
  0
LINE
  8
_0-0_
 62
3
 10
1401.84
 20
1060.5714
 30
0
 11
1405.036
 21
1058.4113
 31
0
  0
LINE
  8
_0-0_
 62
3
 10
1411.1039
 20
1040.5713
 30
0
 11
1414.3
 21
1042.7423
 31
0
  0
LINE
  8
_0-0_
 62
3
 10
1380.505
 20
1040.5713
 30
0
 11
1377.2999
 21
1042.7423
 31
0
  0
LINE
  8
_0-0_
 62
3
 10
1383.359
 20
1040.5713
 30
0
 11
1386.5729
 21
1042.7423
 31
0
  0
LINE
  8
_0-0_
 62
3
 10
1389.7689
 20
1040.5713
 30
0
 11
1386.5729
 21
1042.7423
 31
0
  0
LINE
  8
_0-0_
 62
3
 10
1408.2409
 20
1040.5713
 30
0
 11
1405.036
 21
1042.7423
 31
0
  0
LINE
  8
_0-0_
 62
3
 10
1401.84
 20
1040.5713
 30
0
 11
1405.036
 21
1042.7423
 31
0
  0
LINE
  8
_0-0_
 62
4
 10
1385.2199
 20
1028.9413
 30
0
 11
1405.22
 21
1032.5814
 31
0
  0
LINE
  8
_0-0_
 62
4
 10
1385.2199
 20
1032.5313
 30
0
 11
1405.22
 21
1036.1713
 31
0
  0
LINE
  8
_0-0_
 62
4
 10
1385.2199
 20
1036.5214
 30
0
 11
1402.4009
 21
1039.6413
 31
0
  0
LINE
  8
_0-0_
 62
3
 10
1405.22
 20
1028.9413
 30
0
 11
1405.22
 21
1040.5713
 31
0
  0
LINE
  8
_0-0_
 62
3
 10
1385.2199
 20
1028.9413
 30
0
 11
1385.2199
 21
1040.5713
 31
0
  0
LINE
  8
_0-0_
 62
3
 10
1405.22
 20
1028.9413
 30
0
 11
1385.2199
 21
1028.9413
 31
0
  0
LINE
  8
_0-0_
 62
3
 10
1375.8049
 20
1065.0714
 30
0
 11
1415.8049
 21
1065.0714
 31
0
  0
LINE
  8
_0-0_
 62
3
 10
1415.8049
 20
1065.0714
 30
0
 11
1415.8049
 21
1060.5714
 31
0
  0
LINE
  8
_0-0_
 62
3
 10
1415.8049
 20
1060.5714
 30
0
 11
1375.8049
 21
1060.5714
 31
0
  0
LINE
  8
_0-0_
 62
3
 10
1375.8049
 20
1060.5714
 30
0
 11
1375.8049
 21
1065.0714
 31
0
  0
LINE
  8
_0-0_
 62
3
 10
1415.2999
 20
1105.0713
 30
0
 11
1376.3
 21
1105.0713
 31
0
  0
LINE
  8
_0-0_
 62
3
 10
1408.953
 20
1118.0713
 30
0
 11
1382.6469
 21
1118.0713
 31
0
  0
LINE
  8
_0-0_
 62
3
 10
1415.2999
 20
1105.0713
 30
0
 11
1415.2008
 21
1106.7978
 31
0
  0
LINE
  8
_0-0_
 62
3
 10
1415.2008
 20
1106.7978
 30
0
 11
1414.9033
 21
1108.4954
 31
0
  0
LINE
  8
_0-0_
 62
3
 10
1414.9033
 20
1108.4954
 30
0
 11
1414.4074
 21
1110.1638
 31
0
  0
LINE
  8
_0-0_
 62
3
 10
1414.4074
 20
1110.1638
 30
0
 11
1413.7132
 21
1111.8033
 31
0
  0
LINE
  8
_0-0_
 62
3
 10
1413.7132
 20
1111.8033
 30
0
 11
1412.8206
 21
1113.4138
 31
0
  0
LINE
  8
_0-0_
 62
3
 10
1412.8206
 20
1113.4138
 30
0
 11
1411.7297
 21
1114.9953
 31
0
  0
LINE
  8
_0-0_
 62
3
 10
1411.7297
 20
1114.9953
 30
0
 11
1410.4405
 21
1116.5478
 31
0
  0
LINE
  8
_0-0_
 62
3
 10
1410.4405
 20
1116.5478
 30
0
 11
1408.953
 21
1118.0713
 31
0
  0
LINE
  8
_0-0_
 62
3
 10
1376.3
 20
1105.0713
 30
0
 11
1376.3991
 21
1106.7978
 31
0
  0
LINE
  8
_0-0_
 62
3
 10
1376.3991
 20
1106.7978
 30
0
 11
1376.6966
 21
1108.4954
 31
0
  0
LINE
  8
_0-0_
 62
3
 10
1376.6966
 20
1108.4954
 30
0
 11
1377.1925
 21
1110.1638
 31
0
  0
LINE
  8
_0-0_
 62
3
 10
1377.1925
 20
1110.1638
 30
0
 11
1377.8867
 21
1111.8033
 31
0
  0
LINE
  8
_0-0_
 62
3
 10
1377.8867
 20
1111.8033
 30
0
 11
1378.7793
 21
1113.4138
 31
0
  0
LINE
  8
_0-0_
 62
3
 10
1378.7793
 20
1113.4138
 30
0
 11
1379.8702
 21
1114.9953
 31
0
  0
LINE
  8
_0-0_
 62
3
 10
1379.8702
 20
1114.9953
 30
0
 11
1381.1594
 21
1116.5478
 31
0
  0
LINE
  8
_0-0_
 62
3
 10
1381.1594
 20
1116.5478
 30
0
 11
1382.6469
 21
1118.0713
 31
0
  0
LINE
  8
_0-0_
 62
4
 10
1405.805
 20
1065.0714
 30
0
 11
1405.805
 21
1105.0713
 31
0
  0
LINE
  8
_0-0_
 62
4
 10
1385.805
 20
1065.0714
 30
0
 11
1385.805
 21
1105.0713
 31
0
  0
LINE
  8
_0-0_
 62
4
 10
1125.8
 20
1207.0714
 30
0
 11
1125.8
 21
982.0949
 31
0
  0
LINE
  8
_0-0_
 62
4
 10
1335.7999
 20
1207.0714
 30
0
 11
1335.7999
 21
982.0949
 31
0
  0
LINE
  8
_0-0_
 62
4
 10
1991.6
 20
1719.0949
 30
0
 11
1991.6
 21
1385.4149
 31
0
  0
LINE
  8
_0-0_
 62
4
 10
1991.6
 20
1385.4149
 30
0
 11
1938.26
 21
1375.2548
 31
0
  0
LINE
  8
_0-0_
 62
4
 10
1938.26
 20
1375.2548
 30
0
 11
2044.94
 21
1354.9349
 31
0
  0
LINE
  8
_0-0_
 62
4
 10
2044.94
 20
1354.9349
 30
0
 11
1991.6
 21
1344.7748
 31
0
  0
LINE
  8
_0-0_
 62
4
 10
1991.6
 20
1344.7748
 30
0
 11
1991.6
 21
1011.0948
 31
0
  0
LINE
  8
_0-0_
 62
4
 10
469.99998
 20
1719.0949
 30
0
 11
469.99998
 21
1385.4149
 31
0
  0
LINE
  8
_0-0_
 62
4
 10
469.99998
 20
1385.4149
 30
0
 11
416.65998
 21
1375.2548
 31
0
  0
LINE
  8
_0-0_
 62
4
 10
416.65998
 20
1375.2548
 30
0
 11
523.34002
 21
1354.9349
 31
0
  0
LINE
  8
_0-0_
 62
4
 10
523.34002
 20
1354.9349
 30
0
 11
469.99998
 21
1344.7748
 31
0
  0
LINE
  8
_0-0_
 62
4
 10
469.99998
 20
1344.7748
 30
0
 11
469.99998
 21
1011.0948
 31
0
  0
LINE
  8
_0-0_
 62
4
 10
1185.8
 20
987.38134
 30
0
 11
1185.8
 21
936.38138
 31
0
  0
LINE
  8
_0-0_
 62
4
 10
1185.8
 20
1207.0714
 30
0
 11
1185.8
 21
982.0949
 31
0
  0
LINE
  8
_0-0_
 62
4
 10
1275.7999
 20
987.38134
 30
0
 11
1275.7999
 21
936.38138
 31
0
  0
LINE
  8
_0-0_
 62
4
 10
1275.7999
 20
1207.0714
 30
0
 11
1275.7999
 21
982.0949
 31
0
  0
LINE
  8
_0-0_
 62
4
 10
1335.7999
 20
948.38136
 30
0
 11
1275.7999
 21
948.38136
 31
0
  0
LINE
  8
_0-0_
 62
4
 10
1185.8
 20
948.38136
 30
0
 11
1125.8
 21
948.38136
 31
0
  0
LINE
  8
_0-0_
 62
4
 10
1005.2537
 20
1509.6951
 30
0
 11
1078.4237
 21
1509.6951
 31
0
  0
LINE
  8
_0-0_
 62
4
 10
1078.4237
 20
1509.6951
 30
0
 11
1125.8
 21
1557.0714
 31
0
  0
LINE
  8
_0-0_
 62
3
 10
1085.7999
 20
1597.0713
 30
0
 11
1375.8
 21
1597.0713
 31
0
  0
LINE
  8
_0-0_
 62
3
 10
1375.8
 20
1597.0713
 30
0
 11
1375.8
 21
1157.0713
 31
0
  0
LINE
  8
_0-0_
 62
3
 10
1375.8
 20
1157.0713
 30
0
 11
1085.7999
 21
1157.0713
 31
0
  0
LINE
  8
_0-0_
 62
3
 10
1085.7999
 20
1157.0713
 30
0
 11
1085.7999
 21
1597.0713
 31
0
  0
LINE
  8
_0-0_
 62
4
 10
1235.7999
 20
1157.0713
 30
0
 11
1235.7999
 21
1597.0713
 31
0
  0
LINE
  8
_0-0_
 62
4
 10
1225.7999
 20
1157.0713
 30
0
 11
1225.7999
 21
1597.0713
 31
0
  0
LINE
  8
_0-0_
 62
3
 10
1275.7999
 20
1538.5713
 30
0
 11
1259.805
 21
1547.8163
 31
0
  0
LINE
  8
_0-0_
 62
3
 10
1259.805
 20
1547.8163
 30
0
 11
1259.805
 21
1566.3264
 31
0
  0
LINE
  8
_0-0_
 62
3
 10
1259.805
 20
1566.3264
 30
0
 11
1275.7999
 21
1575.5714
 31
0
  0
LINE
  8
_0-0_
 62
3
 10
1275.7999
 20
1575.5714
 30
0
 11
1291.805
 21
1566.3264
 31
0
  0
LINE
  8
_0-0_
 62
3
 10
1291.805
 20
1566.3264
 30
0
 11
1291.805
 21
1547.8264
 31
0
  0
LINE
  8
_0-0_
 62
3
 10
1291.805
 20
1547.8264
 30
0
 11
1275.7999
 21
1538.5713
 31
0
  0
LINE
  8
_0-0_
 62
4
 10
1298.3
 20
1557.0714
 30
0
 11
1253.2999
 21
1557.0714
 31
0
  0
LINE
  8
_0-0_
 62
4
 10
1275.7999
 20
1534.5713
 30
0
 11
1275.7999
 21
1579.5713
 31
0
  0
LINE
  8
_0-0_
 62
3
 10
1185.8
 20
1538.5713
 30
0
 11
1169.805
 21
1547.8163
 31
0
  0
LINE
  8
_0-0_
 62
3
 10
1169.805
 20
1547.8163
 30
0
 11
1169.805
 21
1566.3264
 31
0
  0
LINE
  8
_0-0_
 62
3
 10
1169.805
 20
1566.3264
 30
0
 11
1185.8
 21
1575.5714
 31
0
  0
LINE
  8
_0-0_
 62
3
 10
1185.8
 20
1575.5714
 30
0
 11
1201.805
 21
1566.3264
 31
0
  0
LINE
  8
_0-0_
 62
3
 10
1201.805
 20
1566.3264
 30
0
 11
1201.805
 21
1547.8264
 31
0
  0
LINE
  8
_0-0_
 62
3
 10
1201.805
 20
1547.8264
 30
0
 11
1185.8
 21
1538.5713
 31
0
  0
LINE
  8
_0-0_
 62
4
 10
1208.3
 20
1557.0714
 30
0
 11
1163.3
 21
1557.0714
 31
0
  0
LINE
  8
_0-0_
 62
4
 10
1185.8
 20
1534.5713
 30
0
 11
1185.8
 21
1579.5713
 31
0
  0
LINE
  8
_0-0_
 62
3
 10
1275.7999
 20
1178.5713
 30
0
 11
1259.805
 21
1187.8164
 31
0
  0
LINE
  8
_0-0_
 62
3
 10
1259.805
 20
1187.8164
 30
0
 11
1259.805
 21
1206.3263
 31
0
  0
LINE
  8
_0-0_
 62
3
 10
1259.805
 20
1206.3263
 30
0
 11
1275.7999
 21
1215.5713
 31
0
  0
LINE
  8
_0-0_
 62
3
 10
1275.7999
 20
1215.5713
 30
0
 11
1291.805
 21
1206.3263
 31
0
  0
LINE
  8
_0-0_
 62
3
 10
1291.805
 20
1206.3263
 30
0
 11
1291.805
 21
1187.8264
 31
0
  0
LINE
  8
_0-0_
 62
3
 10
1291.805
 20
1187.8264
 30
0
 11
1275.7999
 21
1178.5713
 31
0
  0
LINE
  8
_0-0_
 62
4
 10
1298.3
 20
1197.0714
 30
0
 11
1253.2999
 21
1197.0714
 31
0
  0
LINE
  8
_0-0_
 62
4
 10
1275.7999
 20
1174.5714
 30
0
 11
1275.7999
 21
1219.5713
 31
0
  0
LINE
  8
_0-0_
 62
3
 10
1185.8
 20
1178.5713
 30
0
 11
1169.805
 21
1187.8164
 31
0
  0
LINE
  8
_0-0_
 62
3
 10
1169.805
 20
1187.8164
 30
0
 11
1169.805
 21
1206.3263
 31
0
  0
LINE
  8
_0-0_
 62
3
 10
1169.805
 20
1206.3263
 30
0
 11
1185.8
 21
1215.5713
 31
0
  0
LINE
  8
_0-0_
 62
3
 10
1185.8
 20
1215.5713
 30
0
 11
1201.805
 21
1206.3263
 31
0
  0
LINE
  8
_0-0_
 62
3
 10
1201.805
 20
1206.3263
 30
0
 11
1201.805
 21
1187.8264
 31
0
  0
LINE
  8
_0-0_
 62
3
 10
1201.805
 20
1187.8264
 30
0
 11
1185.8
 21
1178.5713
 31
0
  0
LINE
  8
_0-0_
 62
4
 10
1208.3
 20
1197.0714
 30
0
 11
1163.3
 21
1197.0714
 31
0
  0
LINE
  8
_0-0_
 62
4
 10
1185.8
 20
1174.5714
 30
0
 11
1185.8
 21
1219.5713
 31
0
  0
LINE
  8
_0-0_
 62
3
 10
1275.7999
 20
1298.5714
 30
0
 11
1259.805
 21
1307.8164
 31
0
  0
LINE
  8
_0-0_
 62
3
 10
1259.805
 20
1307.8164
 30
0
 11
1259.805
 21
1326.3263
 31
0
  0
LINE
  8
_0-0_
 62
3
 10
1259.805
 20
1326.3263
 30
0
 11
1275.7999
 21
1335.5713
 31
0
  0
LINE
  8
_0-0_
 62
3
 10
1275.7999
 20
1335.5713
 30
0
 11
1291.805
 21
1326.3263
 31
0
  0
LINE
  8
_0-0_
 62
3
 10
1291.805
 20
1326.3263
 30
0
 11
1291.805
 21
1307.8263
 31
0
  0
LINE
  8
_0-0_
 62
3
 10
1291.805
 20
1307.8263
 30
0
 11
1275.7999
 21
1298.5714
 31
0
  0
LINE
  8
_0-0_
 62
4
 10
1298.3
 20
1317.0713
 30
0
 11
1253.2999
 21
1317.0713
 31
0
  0
LINE
  8
_0-0_
 62
4
 10
1275.7999
 20
1294.5714
 30
0
 11
1275.7999
 21
1339.5713
 31
0
  0
LINE
  8
_0-0_
 62
3
 10
1185.8
 20
1298.5714
 30
0
 11
1169.805
 21
1307.8164
 31
0
  0
LINE
  8
_0-0_
 62
3
 10
1169.805
 20
1307.8164
 30
0
 11
1169.805
 21
1326.3263
 31
0
  0
LINE
  8
_0-0_
 62
3
 10
1169.805
 20
1326.3263
 30
0
 11
1185.8
 21
1335.5713
 31
0
  0
LINE
  8
_0-0_
 62
3
 10
1185.8
 20
1335.5713
 30
0
 11
1201.805
 21
1326.3263
 31
0
  0
LINE
  8
_0-0_
 62
3
 10
1201.805
 20
1326.3263
 30
0
 11
1201.805
 21
1307.8263
 31
0
  0
LINE
  8
_0-0_
 62
3
 10
1201.805
 20
1307.8263
 30
0
 11
1185.8
 21
1298.5714
 31
0
  0
LINE
  8
_0-0_
 62
4
 10
1208.3
 20
1317.0713
 30
0
 11
1163.3
 21
1317.0713
 31
0
  0
LINE
  8
_0-0_
 62
4
 10
1185.8
 20
1294.5714
 30
0
 11
1185.8
 21
1339.5713
 31
0
  0
LINE
  8
_0-0_
 62
3
 10
1275.7999
 20
1418.5714
 30
0
 11
1259.805
 21
1427.8164
 31
0
  0
LINE
  8
_0-0_
 62
3
 10
1259.805
 20
1427.8164
 30
0
 11
1259.805
 21
1446.3264
 31
0
  0
LINE
  8
_0-0_
 62
3
 10
1259.805
 20
1446.3264
 30
0
 11
1275.7999
 21
1455.5714
 31
0
  0
LINE
  8
_0-0_
 62
3
 10
1275.7999
 20
1455.5714
 30
0
 11
1291.805
 21
1446.3264
 31
0
  0
LINE
  8
_0-0_
 62
3
 10
1291.805
 20
1446.3264
 30
0
 11
1291.805
 21
1427.8263
 31
0
  0
LINE
  8
_0-0_
 62
3
 10
1291.805
 20
1427.8263
 30
0
 11
1275.7999
 21
1418.5714
 31
0
  0
LINE
  8
_0-0_
 62
4
 10
1298.3
 20
1437.0713
 30
0
 11
1253.2999
 21
1437.0713
 31
0
  0
LINE
  8
_0-0_
 62
4
 10
1275.7999
 20
1414.5713
 30
0
 11
1275.7999
 21
1459.5713
 31
0
  0
LINE
  8
_0-0_
 62
3
 10
1185.8
 20
1418.5714
 30
0
 11
1169.805
 21
1427.8164
 31
0
  0
LINE
  8
_0-0_
 62
3
 10
1169.805
 20
1427.8164
 30
0
 11
1169.805
 21
1446.3264
 31
0
  0
LINE
  8
_0-0_
 62
3
 10
1169.805
 20
1446.3264
 30
0
 11
1185.8
 21
1455.5714
 31
0
  0
LINE
  8
_0-0_
 62
3
 10
1185.8
 20
1455.5714
 30
0
 11
1201.805
 21
1446.3264
 31
0
  0
LINE
  8
_0-0_
 62
3
 10
1201.805
 20
1446.3264
 30
0
 11
1201.805
 21
1427.8263
 31
0
  0
LINE
  8
_0-0_
 62
3
 10
1201.805
 20
1427.8263
 30
0
 11
1185.8
 21
1418.5714
 31
0
  0
LINE
  8
_0-0_
 62
4
 10
1208.3
 20
1437.0713
 30
0
 11
1163.3
 21
1437.0713
 31
0
  0
LINE
  8
_0-0_
 62
4
 10
1185.8
 20
1414.5713
 30
0
 11
1185.8
 21
1459.5713
 31
0
  0
LINE
  8
_0-0_
 62
4
 10
742.86001
 20
1313.8788
 30
0
 11
1042.3172
 21
1313.8788
 31
0
  0
LINE
  8
_0-0_
 62
4
 10
1042.3172
 20
1313.8788
 30
0
 11
1103.9982
 21
1375.5598
 31
0
  0
LINE
  8
_0-0_
 62
3
 10
1125.8
 20
1538.5713
 30
0
 11
1109.805
 21
1547.8163
 31
0
  0
LINE
  8
_0-0_
 62
3
 10
1109.805
 20
1547.8163
 30
0
 11
1109.805
 21
1566.3264
 31
0
  0
LINE
  8
_0-0_
 62
3
 10
1109.805
 20
1566.3264
 30
0
 11
1125.8
 21
1575.5714
 31
0
  0
LINE
  8
_0-0_
 62
3
 10
1125.8
 20
1575.5714
 30
0
 11
1141.805
 21
1566.3264
 31
0
  0
LINE
  8
_0-0_
 62
3
 10
1141.805
 20
1566.3264
 30
0
 11
1141.805
 21
1547.8264
 31
0
  0
LINE
  8
_0-0_
 62
3
 10
1141.805
 20
1547.8264
 30
0
 11
1125.8
 21
1538.5713
 31
0
  0
LINE
  8
_0-0_
 62
4
 10
1148.3
 20
1557.0714
 30
0
 11
1103.3
 21
1557.0714
 31
0
  0
LINE
  8
_0-0_
 62
4
 10
1125.8
 20
1534.5713
 30
0
 11
1125.8
 21
1579.5713
 31
0
  0
LINE
  8
_0-0_
 62
3
 10
1125.8
 20
1178.5713
 30
0
 11
1109.805
 21
1187.8164
 31
0
  0
LINE
  8
_0-0_
 62
3
 10
1109.805
 20
1187.8164
 30
0
 11
1109.805
 21
1206.3263
 31
0
  0
LINE
  8
_0-0_
 62
3
 10
1109.805
 20
1206.3263
 30
0
 11
1125.8
 21
1215.5713
 31
0
  0
LINE
  8
_0-0_
 62
3
 10
1125.8
 20
1215.5713
 30
0
 11
1141.805
 21
1206.3263
 31
0
  0
LINE
  8
_0-0_
 62
3
 10
1141.805
 20
1206.3263
 30
0
 11
1141.805
 21
1187.8264
 31
0
  0
LINE
  8
_0-0_
 62
3
 10
1141.805
 20
1187.8264
 30
0
 11
1125.8
 21
1178.5713
 31
0
  0
LINE
  8
_0-0_
 62
4
 10
1148.3
 20
1197.0714
 30
0
 11
1103.3
 21
1197.0714
 31
0
  0
LINE
  8
_0-0_
 62
4
 10
1125.8
 20
1174.5714
 30
0
 11
1125.8
 21
1219.5713
 31
0
  0
LINE
  8
_0-0_
 62
3
 10
1125.8
 20
1298.5714
 30
0
 11
1109.805
 21
1307.8164
 31
0
  0
LINE
  8
_0-0_
 62
3
 10
1109.805
 20
1307.8164
 30
0
 11
1109.805
 21
1326.3263
 31
0
  0
LINE
  8
_0-0_
 62
3
 10
1109.805
 20
1326.3263
 30
0
 11
1125.8
 21
1335.5713
 31
0
  0
LINE
  8
_0-0_
 62
3
 10
1125.8
 20
1335.5713
 30
0
 11
1141.805
 21
1326.3263
 31
0
  0
LINE
  8
_0-0_
 62
3
 10
1141.805
 20
1326.3263
 30
0
 11
1141.805
 21
1307.8263
 31
0
  0
LINE
  8
_0-0_
 62
3
 10
1141.805
 20
1307.8263
 30
0
 11
1125.8
 21
1298.5714
 31
0
  0
LINE
  8
_0-0_
 62
4
 10
1148.3
 20
1317.0713
 30
0
 11
1103.3
 21
1317.0713
 31
0
  0
LINE
  8
_0-0_
 62
4
 10
1125.8
 20
1294.5714
 30
0
 11
1125.8
 21
1339.5713
 31
0
  0
LINE
  8
_0-0_
 62
3
 10
1125.8
 20
1418.5714
 30
0
 11
1109.805
 21
1427.8164
 31
0
  0
LINE
  8
_0-0_
 62
3
 10
1109.805
 20
1427.8164
 30
0
 11
1109.805
 21
1446.3264
 31
0
  0
LINE
  8
_0-0_
 62
3
 10
1109.805
 20
1446.3264
 30
0
 11
1125.8
 21
1455.5714
 31
0
  0
LINE
  8
_0-0_
 62
3
 10
1125.8
 20
1455.5714
 30
0
 11
1141.805
 21
1446.3264
 31
0
  0
LINE
  8
_0-0_
 62
3
 10
1141.805
 20
1446.3264
 30
0
 11
1141.805
 21
1427.8263
 31
0
  0
LINE
  8
_0-0_
 62
3
 10
1141.805
 20
1427.8263
 30
0
 11
1125.8
 21
1418.5714
 31
0
  0
LINE
  8
_0-0_
 62
4
 10
1148.3
 20
1437.0713
 30
0
 11
1103.3
 21
1437.0713
 31
0
  0
LINE
  8
_0-0_
 62
4
 10
1125.8
 20
1414.5713
 30
0
 11
1125.8
 21
1459.5713
 31
0
  0
LINE
  8
_0-0_
 62
3
 10
1335.7999
 20
1538.5713
 30
0
 11
1319.805
 21
1547.8163
 31
0
  0
LINE
  8
_0-0_
 62
3
 10
1319.805
 20
1547.8163
 30
0
 11
1319.805
 21
1566.3264
 31
0
  0
LINE
  8
_0-0_
 62
3
 10
1319.805
 20
1566.3264
 30
0
 11
1335.7999
 21
1575.5714
 31
0
  0
LINE
  8
_0-0_
 62
3
 10
1335.7999
 20
1575.5714
 30
0
 11
1351.805
 21
1566.3264
 31
0
  0
LINE
  8
_0-0_
 62
3
 10
1351.805
 20
1566.3264
 30
0
 11
1351.805
 21
1547.8264
 31
0
  0
LINE
  8
_0-0_
 62
3
 10
1351.805
 20
1547.8264
 30
0
 11
1335.7999
 21
1538.5713
 31
0
  0
LINE
  8
_0-0_
 62
4
 10
1358.3
 20
1557.0714
 30
0
 11
1313.2999
 21
1557.0714
 31
0
  0
LINE
  8
_0-0_
 62
4
 10
1335.7999
 20
1534.5713
 30
0
 11
1335.7999
 21
1579.5713
 31
0
  0
LINE
  8
_0-0_
 62
3
 10
1335.7999
 20
1178.5713
 30
0
 11
1319.805
 21
1187.8164
 31
0
  0
LINE
  8
_0-0_
 62
3
 10
1319.805
 20
1187.8164
 30
0
 11
1319.805
 21
1206.3263
 31
0
  0
LINE
  8
_0-0_
 62
3
 10
1319.805
 20
1206.3263
 30
0
 11
1335.7999
 21
1215.5713
 31
0
  0
LINE
  8
_0-0_
 62
3
 10
1335.7999
 20
1215.5713
 30
0
 11
1351.805
 21
1206.3263
 31
0
  0
LINE
  8
_0-0_
 62
3
 10
1351.805
 20
1206.3263
 30
0
 11
1351.805
 21
1187.8264
 31
0
  0
LINE
  8
_0-0_
 62
3
 10
1351.805
 20
1187.8264
 30
0
 11
1335.7999
 21
1178.5713
 31
0
  0
LINE
  8
_0-0_
 62
4
 10
1358.3
 20
1197.0714
 30
0
 11
1313.2999
 21
1197.0714
 31
0
  0
LINE
  8
_0-0_
 62
4
 10
1335.7999
 20
1174.5714
 30
0
 11
1335.7999
 21
1219.5713
 31
0
  0
LINE
  8
_0-0_
 62
3
 10
1335.7999
 20
1298.5714
 30
0
 11
1319.805
 21
1307.8164
 31
0
  0
LINE
  8
_0-0_
 62
3
 10
1319.805
 20
1307.8164
 30
0
 11
1319.805
 21
1326.3263
 31
0
  0
LINE
  8
_0-0_
 62
3
 10
1319.805
 20
1326.3263
 30
0
 11
1335.7999
 21
1335.5713
 31
0
  0
LINE
  8
_0-0_
 62
3
 10
1335.7999
 20
1335.5713
 30
0
 11
1351.805
 21
1326.3263
 31
0
  0
LINE
  8
_0-0_
 62
3
 10
1351.805
 20
1326.3263
 30
0
 11
1351.805
 21
1307.8263
 31
0
  0
LINE
  8
_0-0_
 62
3
 10
1351.805
 20
1307.8263
 30
0
 11
1335.7999
 21
1298.5714
 31
0
  0
LINE
  8
_0-0_
 62
4
 10
1358.3
 20
1317.0713
 30
0
 11
1313.2999
 21
1317.0713
 31
0
  0
LINE
  8
_0-0_
 62
4
 10
1335.7999
 20
1294.5714
 30
0
 11
1335.7999
 21
1339.5713
 31
0
  0
LINE
  8
_0-0_
 62
3
 10
1335.7999
 20
1418.5714
 30
0
 11
1319.805
 21
1427.8164
 31
0
  0
LINE
  8
_0-0_
 62
3
 10
1319.805
 20
1427.8164
 30
0
 11
1319.805
 21
1446.3264
 31
0
  0
LINE
  8
_0-0_
 62
3
 10
1319.805
 20
1446.3264
 30
0
 11
1335.7999
 21
1455.5714
 31
0
  0
LINE
  8
_0-0_
 62
3
 10
1335.7999
 20
1455.5714
 30
0
 11
1351.805
 21
1446.3264
 31
0
  0
LINE
  8
_0-0_
 62
3
 10
1351.805
 20
1446.3264
 30
0
 11
1351.805
 21
1427.8263
 31
0
  0
LINE
  8
_0-0_
 62
3
 10
1351.805
 20
1427.8263
 30
0
 11
1335.7999
 21
1418.5714
 31
0
  0
LINE
  8
_0-0_
 62
4
 10
1358.3
 20
1437.0713
 30
0
 11
1313.2999
 21
1437.0713
 31
0
  0
LINE
  8
_0-0_
 62
4
 10
1335.7999
 20
1414.5713
 30
0
 11
1335.7999
 21
1459.5713
 31
0
  0
LINE
  8
_0-0_
 62
4
 10
1486.9299
 20
1597.0713
 30
0
 11
1486.9299
 21
1557.0714
 31
0
  0
LINE
  8
_0-0_
 62
4
 10
1486.9299
 20
1197.0714
 30
0
 11
1486.9299
 21
1157.0713
 31
0
  0
LINE
  8
_0-0_
 62
4
 10
1440.93
 20
1597.0713
 30
0
 11
1546.8
 21
1597.0713
 31
0
  0
LINE
  8
_0-0_
 62
4
 10
1536.93
 20
1597.0713
 30
0
 11
1536.93
 21
1157.0713
 31
0
  0
LINE
  8
_0-0_
 62
4
 10
1440.93
 20
1157.0713
 30
0
 11
1546.8
 21
1157.0713
 31
0
  0
LINE
  8
_0-0_
 62
4
 10
1440.93
 20
1557.0714
 30
0
 11
1497.9299
 21
1557.0714
 31
0
  0
LINE
  8
_0-0_
 62
4
 10
1335.7999
 20
1197.0714
 30
0
 11
1451.93
 21
1197.0714
 31
0
  0
LINE
  8
_0-0_
 62
4
 10
1440.93
 20
1197.0714
 30
0
 11
1497.9299
 21
1197.0714
 31
0
  0
LINE
  8
_0-0_
 62
4
 10
1335.7999
 20
1157.0713
 30
0
 11
1451.93
 21
1157.0713
 31
0
  0
LINE
  8
_0-0_
 62
4
 10
1335.7999
 20
1557.0714
 30
0
 11
1451.93
 21
1557.0714
 31
0
  0
LINE
  8
_0-0_
 62
4
 10
1335.7999
 20
1597.0713
 30
0
 11
1451.93
 21
1597.0713
 31
0
  0
LINE
  8
_0-0_
 62
4
 10
1335.7999
 20
1317.0713
 30
0
 11
1451.93
 21
1317.0713
 31
0
  0
LINE
  8
_0-0_
 62
4
 10
1440.93
 20
1317.0713
 30
0
 11
1497.9299
 21
1317.0713
 31
0
  0
LINE
  8
_0-0_
 62
4
 10
1335.7999
 20
1437.0713
 30
0
 11
1451.93
 21
1437.0713
 31
0
  0
LINE
  8
_0-0_
 62
4
 10
1440.93
 20
1437.0713
 30
0
 11
1497.9299
 21
1437.0713
 31
0
  0
LINE
  8
_0-0_
 62
4
 10
1486.9299
 20
1197.0714
 30
0
 11
1486.9299
 21
1317.0713
 31
0
  0
LINE
  8
_0-0_
 62
4
 10
1486.9299
 20
1317.0713
 30
0
 11
1486.9299
 21
1437.0713
 31
0
  0
LINE
  8
_0-0_
 62
4
 10
1486.9299
 20
1437.0713
 30
0
 11
1486.9299
 21
1557.0714
 31
0
  0
LINE
  8
_0-0_
 62
4
 10
2117.3241
 20
1733.8913
 30
0
 11
1733.0215
 21
1733.8913
 31
0
  0
LINE
  8
_0-0_
 62
4
 10
1733.0215
 20
1733.8913
 30
0
 11
1661.3262
 21
1609.7113
 31
0
  0
LINE
  8
_0-0_
 62
2
 10
2267.7399
 20
1677.0714
 30
0
 11
2467.74
 21
1677.0714
 31
0
  0
LINE
  8
_0-0_
 62
2
 10
2267.7399
 20
1661.0713
 30
0
 11
2349.74
 21
1661.0713
 31
0
  0
LINE
  8
_0-0_
 62
2
 10
2385.7399
 20
1661.0713
 30
0
 11
2467.74
 21
1661.0713
 31
0
  0
LINE
  8
_0-0_
 62
2
 10
2267.7399
 20
1677.0714
 30
0
 11
2267.7399
 21
1661.0713
 31
0
  0
LINE
  8
_0-0_
 62
2
 10
2467.74
 20
1677.0714
 30
0
 11
2467.74
 21
1661.0713
 31
0
  0
LINE
  8
_0-0_
 62
2
 10
2362.7399
 20
1648.0713
 30
0
 11
2362.7399
 21
1106.0713
 31
0
  0
LINE
  8
_0-0_
 62
2
 10
2372.74
 20
1648.0713
 30
0
 11
2372.74
 21
1106.0713
 31
0
  0
LINE
  8
_0-0_
 62
2
 10
2267.7399
 20
1077.0714
 30
0
 11
2467.74
 21
1077.0714
 31
0
  0
LINE
  8
_0-0_
 62
2
 10
2267.7399
 20
1093.0714
 30
0
 11
2349.74
 21
1093.0714
 31
0
  0
LINE
  8
_0-0_
 62
2
 10
2385.7399
 20
1093.0714
 30
0
 11
2467.74
 21
1093.0714
 31
0
  0
LINE
  8
_0-0_
 62
2
 10
2267.7399
 20
1077.0714
 30
0
 11
2267.7399
 21
1093.0714
 31
0
  0
LINE
  8
_0-0_
 62
2
 10
2467.74
 20
1077.0714
 30
0
 11
2467.74
 21
1093.0714
 31
0
  0
LINE
  8
_0-0_
 62
4
 10
1548.0745
 20
2329.9613
 30
0
 11
1548.0745
 21
2289.9614
 31
0
  0
LINE
  8
_0-0_
 62
3
 10
1025.7999
 20
2489.9613
 30
0
 11
1435.8
 21
2489.9613
 31
0
  0
LINE
  8
_0-0_
 62
3
 10
1435.8
 20
2489.9613
 30
0
 11
1435.8
 21
2289.9614
 31
0
  0
LINE
  8
_0-0_
 62
3
 10
1435.8
 20
2289.9614
 30
0
 11
1025.7999
 21
2289.9614
 31
0
  0
LINE
  8
_0-0_
 62
3
 10
1025.7999
 20
2289.9614
 30
0
 11
1025.7999
 21
2489.9613
 31
0
  0
LINE
  8
_0-0_
 62
4
 10
1185.8
 20
2444.8513
 30
0
 11
1185.8
 21
2553.6383
 31
0
  0
LINE
  8
_0-0_
 62
4
 10
1025.7999
 20
2613.6384
 30
0
 11
1065.8
 21
2613.6384
 31
0
  0
LINE
  8
_0-0_
 62
4
 10
1125.8
 20
2613.6384
 30
0
 11
1185.8
 21
2613.6384
 31
0
  0
LINE
  8
_0-0_
 62
4
 10
1185.8
 20
2613.6384
 30
0
 11
1275.7999
 21
2613.6384
 31
0
  0
LINE
  8
_0-0_
 62
4
 10
1185.8
 20
2543.6383
 30
0
 11
1185.8
 21
2623.6383
 31
0
  0
LINE
  8
_0-0_
 62
4
 10
1065.8
 20
2444.8513
 30
0
 11
1065.8
 21
2553.6383
 31
0
  0
LINE
  8
_0-0_
 62
4
 10
1065.8
 20
2543.6383
 30
0
 11
1065.8
 21
2623.6383
 31
0
  0
LINE
  8
_0-0_
 62
4
 10
1435.8
 20
2613.6384
 30
0
 11
1395.8
 21
2613.6384
 31
0
  0
LINE
  8
_0-0_
 62
4
 10
1335.7999
 20
2613.6384
 30
0
 11
1275.7999
 21
2613.6384
 31
0
  0
LINE
  8
_0-0_
 62
4
 10
1275.7999
 20
2543.6383
 30
0
 11
1275.7999
 21
2623.6383
 31
0
  0
LINE
  8
_0-0_
 62
4
 10
1395.8
 20
2543.6383
 30
0
 11
1395.8
 21
2623.6383
 31
0
  0
LINE
  8
_0-0_
 62
4
 10
1275.7999
 20
2444.8513
 30
0
 11
1275.7999
 21
2553.6383
 31
0
  0
LINE
  8
_0-0_
 62
4
 10
1395.8
 20
2444.8513
 30
0
 11
1395.8
 21
2553.6383
 31
0
  0
LINE
  8
_0-0_
 62
4
 10
1025.7999
 20
2369.9613
 30
0
 11
1435.8
 21
2369.9613
 31
0
  0
LINE
  8
_0-0_
 62
4
 10
1235.7999
 20
2489.9613
 30
0
 11
1235.7999
 21
2289.9614
 31
0
  0
LINE
  8
_0-0_
 62
4
 10
1225.7999
 20
2489.9613
 30
0
 11
1225.7999
 21
2289.9614
 31
0
  0
LINE
  8
_0-0_
 62
4
 10
1991.6
 20
2517.8811
 30
0
 11
1991.6
 21
2400.2452
 31
0
  0
LINE
  8
_0-0_
 62
4
 10
1991.6
 20
2400.2452
 30
0
 11
1969.81
 21
2395.1312
 31
0
  0
LINE
  8
_0-0_
 62
4
 10
1969.81
 20
2395.1312
 30
0
 11
2013.389
 21
2384.9016
 31
0
  0
LINE
  8
_0-0_
 62
4
 10
2013.389
 20
2384.9016
 30
0
 11
1991.5989
 21
2379.7876
 31
0
  0
LINE
  8
_0-0_
 62
4
 10
1991.5989
 20
2379.7876
 30
0
 11
1991.5989
 21
2262.1517
 31
0
  0
LINE
  8
_0-0_
 62
4
 10
1494.0745
 20
2329.9613
 30
0
 11
1556.0744
 21
2329.9613
 31
0
  0
LINE
  8
_0-0_
 62
4
 10
1548.0745
 20
2449.9613
 30
0
 11
1548.0745
 21
2329.9613
 31
0
  0
LINE
  8
_0-0_
 62
4
 10
1494.0745
 20
2449.9613
 30
0
 11
1556.0744
 21
2449.9613
 31
0
  0
LINE
  8
_0-0_
 62
4
 10
1415.9445
 20
2329.9613
 30
0
 11
1506.5095
 21
2329.9613
 31
0
  0
LINE
  8
_0-0_
 62
4
 10
1415.9445
 20
2449.9613
 30
0
 11
1506.5095
 21
2449.9613
 31
0
  0
LINE
  8
_0-0_
 62
4
 10
1548.0745
 20
2449.9613
 30
0
 11
1548.0745
 21
2489.9613
 31
0
  0
LINE
  8
_0-0_
 62
4
 10
1025.7999
 20
2543.6383
 30
0
 11
1025.7999
 21
2674.1384
 31
0
  0
LINE
  8
_0-0_
 62
4
 10
1025.7999
 20
2663.6383
 30
0
 11
1435.8
 21
2663.6383
 31
0
  0
LINE
  8
_0-0_
 62
4
 10
1025.7999
 20
2444.8513
 30
0
 11
1025.7999
 21
2553.6383
 31
0
  0
LINE
  8
_0-0_
 62
4
 10
1435.8
 20
2543.6383
 30
0
 11
1435.8
 21
2674.1384
 31
0
  0
LINE
  8
_0-0_
 62
4
 10
1435.8
 20
2444.8513
 30
0
 11
1435.8
 21
2553.6383
 31
0
  0
LINE
  8
_0-0_
 62
4
 10
1145.7999
 20
2386.7114
 30
0
 11
1315.8
 21
2386.7114
 31
0
  0
LINE
  8
_0-0_
 62
4
 10
1315.8
 20
2386.7114
 30
0
 11
1315.8
 21
2380.7113
 31
0
  0
LINE
  8
_0-0_
 62
4
 10
1315.8
 20
2380.7113
 30
0
 11
1145.7999
 21
2380.7113
 31
0
  0
LINE
  8
_0-0_
 62
4
 10
1145.7999
 20
2380.7113
 30
0
 11
1145.7999
 21
2386.7114
 31
0
  0
LINE
  8
_0-0_
 62
4
 10
1145.7999
 20
2399.2113
 30
0
 11
1315.8
 21
2399.2113
 31
0
  0
LINE
  8
_0-0_
 62
4
 10
1315.8
 20
2399.2113
 30
0
 11
1315.8
 21
2393.2114
 31
0
  0
LINE
  8
_0-0_
 62
4
 10
1315.8
 20
2393.2114
 30
0
 11
1145.7999
 21
2393.2114
 31
0
  0
LINE
  8
_0-0_
 62
4
 10
1145.7999
 20
2393.2114
 30
0
 11
1145.7999
 21
2399.2113
 31
0
  0
LINE
  8
_0-0_
 62
4
 10
1025.7999
 20
2409.9614
 30
0
 11
1435.8
 21
2409.9614
 31
0
  0
LINE
  8
_0-0_
 62
4
 10
577.86
 20
2227.2163
 30
0
 11
1069.5579
 21
2227.2163
 31
0
  0
LINE
  8
_0-0_
 62
4
 10
1069.5579
 20
2227.2163
 30
0
 11
1149.4279
 21
2307.0864
 31
0
  0
LINE
  8
_0-0_
 62
4
 10
1260.4949
 20
2423.7113
 30
0
 11
1291.094
 21
2423.7113
 31
0
  0
LINE
  8
_0-0_
 62
4
 10
1294.29
 20
2405.8713
 30
0
 11
1294.29
 21
2421.5404
 31
0
  0
LINE
  8
_0-0_
 62
4
 10
1257.29
 20
2405.8713
 30
0
 11
1257.29
 21
2421.5404
 31
0
  0
LINE
  8
_0-0_
 62
4
 10
1260.4949
 20
2403.7113
 30
0
 11
1291.094
 21
2403.7113
 31
0
  0
LINE
  8
_0-0_
 62
4
 10
1291.094
 20
2403.7113
 30
0
 11
1294.29
 21
2405.8713
 31
0
  0
LINE
  8
_0-0_
 62
4
 10
1260.4949
 20
2403.7113
 30
0
 11
1257.29
 21
2405.8713
 31
0
  0
LINE
  8
_0-0_
 62
4
 10
1266.563
 20
2405.8713
 30
0
 11
1266.563
 21
2421.5404
 31
0
  0
LINE
  8
_0-0_
 62
4
 10
1263.3489
 20
2403.7113
 30
0
 11
1266.563
 21
2405.8713
 31
0
  0
LINE
  8
_0-0_
 62
4
 10
1269.759
 20
2403.7113
 30
0
 11
1266.563
 21
2405.8713
 31
0
  0
LINE
  8
_0-0_
 62
4
 10
1285.0259
 20
2405.8713
 30
0
 11
1285.0259
 21
2421.5404
 31
0
  0
LINE
  8
_0-0_
 62
4
 10
1288.2309
 20
2403.7113
 30
0
 11
1285.0259
 21
2405.8713
 31
0
  0
LINE
  8
_0-0_
 62
4
 10
1281.8299
 20
2403.7113
 30
0
 11
1285.0259
 21
2405.8713
 31
0
  0
LINE
  8
_0-0_
 62
4
 10
1291.094
 20
2423.7113
 30
0
 11
1294.29
 21
2421.5404
 31
0
  0
LINE
  8
_0-0_
 62
4
 10
1260.4949
 20
2423.7113
 30
0
 11
1257.29
 21
2421.5404
 31
0
  0
LINE
  8
_0-0_
 62
4
 10
1263.3489
 20
2423.7113
 30
0
 11
1266.563
 21
2421.5404
 31
0
  0
LINE
  8
_0-0_
 62
4
 10
1269.759
 20
2423.7113
 30
0
 11
1266.563
 21
2421.5404
 31
0
  0
LINE
  8
_0-0_
 62
4
 10
1288.2309
 20
2423.7113
 30
0
 11
1285.0259
 21
2421.5404
 31
0
  0
LINE
  8
_0-0_
 62
4
 10
1281.8299
 20
2423.7113
 30
0
 11
1285.0259
 21
2421.5404
 31
0
  0
LINE
  8
_0-0_
 62
4
 10
1265.21
 20
2435.3414
 30
0
 11
1285.2099
 21
2431.7014
 31
0
  0
LINE
  8
_0-0_
 62
4
 10
1265.21
 20
2431.7514
 30
0
 11
1285.2099
 21
2428.1114
 31
0
  0
LINE
  8
_0-0_
 62
4
 10
1265.21
 20
2427.7613
 30
0
 11
1282.391
 21
2424.6413
 31
0
  0
LINE
  8
_0-0_
 62
4
 10
1285.2099
 20
2435.3414
 30
0
 11
1285.2099
 21
2423.7113
 31
0
  0
LINE
  8
_0-0_
 62
4
 10
1265.21
 20
2435.3414
 30
0
 11
1265.21
 21
2423.7113
 31
0
  0
LINE
  8
_0-0_
 62
4
 10
1285.2099
 20
2435.3414
 30
0
 11
1265.21
 21
2435.3414
 31
0
  0
LINE
  8
_0-0_
 62
4
 10
1255.795
 20
2403.7113
 30
0
 11
1295.795
 21
2403.7113
 31
0
  0
LINE
  8
_0-0_
 62
4
 10
1295.795
 20
2403.7113
 30
0
 11
1295.795
 21
2399.2113
 31
0
  0
LINE
  8
_0-0_
 62
4
 10
1295.795
 20
2399.2113
 30
0
 11
1255.795
 21
2399.2113
 31
0
  0
LINE
  8
_0-0_
 62
4
 10
1255.795
 20
2399.2113
 30
0
 11
1255.795
 21
2403.7113
 31
0
  0
LINE
  8
_0-0_
 62
4
 10
1295.29
 20
2380.7113
 30
0
 11
1256.29
 21
2380.7113
 31
0
  0
LINE
  8
_0-0_
 62
4
 10
1288.9429
 20
2367.7113
 30
0
 11
1262.637
 21
2367.7113
 31
0
  0
LINE
  8
_0-0_
 62
4
 10
1295.29
 20
2380.7113
 30
0
 11
1295.1908
 21
2378.9848
 31
0
  0
LINE
  8
_0-0_
 62
4
 10
1295.1908
 20
2378.9848
 30
0
 11
1294.8932
 21
2377.2874
 31
0
  0
LINE
  8
_0-0_
 62
4
 10
1294.8932
 20
2377.2874
 30
0
 11
1294.3974
 21
2375.6188
 31
0
  0
LINE
  8
_0-0_
 62
4
 10
1294.3974
 20
2375.6188
 30
0
 11
1293.7032
 21
2373.9793
 31
0
  0
LINE
  8
_0-0_
 62
4
 10
1293.7032
 20
2373.9793
 30
0
 11
1292.8107
 21
2372.3688
 31
0
  0
LINE
  8
_0-0_
 62
4
 10
1292.8107
 20
2372.3688
 30
0
 11
1291.7198
 21
2370.7874
 31
0
  0
LINE
  8
_0-0_
 62
4
 10
1291.7198
 20
2370.7874
 30
0
 11
1290.4306
 21
2369.2348
 31
0
  0
LINE
  8
_0-0_
 62
4
 10
1290.4306
 20
2369.2348
 30
0
 11
1288.9429
 21
2367.7113
 31
0
  0
LINE
  8
_0-0_
 62
4
 10
1256.29
 20
2380.7113
 30
0
 11
1256.3891
 21
2378.9848
 31
0
  0
LINE
  8
_0-0_
 62
4
 10
1256.3891
 20
2378.9848
 30
0
 11
1256.6867
 21
2377.2874
 31
0
  0
LINE
  8
_0-0_
 62
4
 10
1256.6867
 20
2377.2874
 30
0
 11
1257.1825
 21
2375.6188
 31
0
  0
LINE
  8
_0-0_
 62
4
 10
1257.1825
 20
2375.6188
 30
0
 11
1257.8767
 21
2373.9793
 31
0
  0
LINE
  8
_0-0_
 62
4
 10
1257.8767
 20
2373.9793
 30
0
 11
1258.7692
 21
2372.3688
 31
0
  0
LINE
  8
_0-0_
 62
4
 10
1258.7692
 20
2372.3688
 30
0
 11
1259.8601
 21
2370.7874
 31
0
  0
LINE
  8
_0-0_
 62
4
 10
1259.8601
 20
2370.7874
 30
0
 11
1261.1494
 21
2369.2348
 31
0
  0
LINE
  8
_0-0_
 62
4
 10
1261.1494
 20
2369.2348
 30
0
 11
1262.637
 21
2367.7113
 31
0
  0
LINE
  8
_0-0_
 62
4
 10
1285.7949
 20
2399.2113
 30
0
 11
1285.7949
 21
2380.7113
 31
0
  0
LINE
  8
_0-0_
 62
4
 10
1265.7949
 20
2399.2113
 30
0
 11
1265.7949
 21
2380.7113
 31
0
  0
LINE
  8
_0-0_
 62
4
 10
1170.5049
 20
2423.7113
 30
0
 11
1201.1039
 21
2423.7113
 31
0
  0
LINE
  8
_0-0_
 62
4
 10
1204.2999
 20
2405.8713
 30
0
 11
1204.2999
 21
2421.5404
 31
0
  0
LINE
  8
_0-0_
 62
4
 10
1167.2999
 20
2405.8713
 30
0
 11
1167.2999
 21
2421.5404
 31
0
  0
LINE
  8
_0-0_
 62
4
 10
1170.5049
 20
2403.7113
 30
0
 11
1201.1039
 21
2403.7113
 31
0
  0
LINE
  8
_0-0_
 62
4
 10
1201.1039
 20
2403.7113
 30
0
 11
1204.2999
 21
2405.8713
 31
0
  0
LINE
  8
_0-0_
 62
4
 10
1170.5049
 20
2403.7113
 30
0
 11
1167.2999
 21
2405.8713
 31
0
  0
LINE
  8
_0-0_
 62
4
 10
1176.5729
 20
2405.8713
 30
0
 11
1176.5729
 21
2421.5404
 31
0
  0
LINE
  8
_0-0_
 62
4
 10
1173.359
 20
2403.7113
 30
0
 11
1176.5729
 21
2405.8713
 31
0
  0
LINE
  8
_0-0_
 62
4
 10
1179.7689
 20
2403.7113
 30
0
 11
1176.5729
 21
2405.8713
 31
0
  0
LINE
  8
_0-0_
 62
4
 10
1195.036
 20
2405.8713
 30
0
 11
1195.036
 21
2421.5404
 31
0
  0
LINE
  8
_0-0_
 62
4
 10
1198.241
 20
2403.7113
 30
0
 11
1195.036
 21
2405.8713
 31
0
  0
LINE
  8
_0-0_
 62
4
 10
1191.8399
 20
2403.7113
 30
0
 11
1195.036
 21
2405.8713
 31
0
  0
LINE
  8
_0-0_
 62
4
 10
1201.1039
 20
2423.7113
 30
0
 11
1204.2999
 21
2421.5404
 31
0
  0
LINE
  8
_0-0_
 62
4
 10
1170.5049
 20
2423.7113
 30
0
 11
1167.2999
 21
2421.5404
 31
0
  0
LINE
  8
_0-0_
 62
4
 10
1173.359
 20
2423.7113
 30
0
 11
1176.5729
 21
2421.5404
 31
0
  0
LINE
  8
_0-0_
 62
4
 10
1179.7689
 20
2423.7113
 30
0
 11
1176.5729
 21
2421.5404
 31
0
  0
LINE
  8
_0-0_
 62
4
 10
1198.241
 20
2423.7113
 30
0
 11
1195.036
 21
2421.5404
 31
0
  0
LINE
  8
_0-0_
 62
4
 10
1191.8399
 20
2423.7113
 30
0
 11
1195.036
 21
2421.5404
 31
0
  0
LINE
  8
_0-0_
 62
4
 10
1175.2199
 20
2435.3414
 30
0
 11
1195.2199
 21
2431.7014
 31
0
  0
LINE
  8
_0-0_
 62
4
 10
1175.2199
 20
2431.7514
 30
0
 11
1195.2199
 21
2428.1114
 31
0
  0
LINE
  8
_0-0_
 62
4
 10
1175.2199
 20
2427.7613
 30
0
 11
1192.4009
 21
2424.6413
 31
0
  0
LINE
  8
_0-0_
 62
4
 10
1195.2199
 20
2435.3414
 30
0
 11
1195.2199
 21
2423.7113
 31
0
  0
LINE
  8
_0-0_
 62
4
 10
1175.2199
 20
2435.3414
 30
0
 11
1175.2199
 21
2423.7113
 31
0
  0
LINE
  8
_0-0_
 62
4
 10
1195.2199
 20
2435.3414
 30
0
 11
1175.2199
 21
2435.3414
 31
0
  0
LINE
  8
_0-0_
 62
4
 10
1165.8049
 20
2403.7113
 30
0
 11
1205.805
 21
2403.7113
 31
0
  0
LINE
  8
_0-0_
 62
4
 10
1205.805
 20
2403.7113
 30
0
 11
1205.805
 21
2399.2113
 31
0
  0
LINE
  8
_0-0_
 62
4
 10
1205.805
 20
2399.2113
 30
0
 11
1165.8049
 21
2399.2113
 31
0
  0
LINE
  8
_0-0_
 62
4
 10
1165.8049
 20
2399.2113
 30
0
 11
1165.8049
 21
2403.7113
 31
0
  0
LINE
  8
_0-0_
 62
4
 10
1205.2999
 20
2380.7113
 30
0
 11
1166.2999
 21
2380.7113
 31
0
  0
LINE
  8
_0-0_
 62
4
 10
1198.9529
 20
2367.7113
 30
0
 11
1172.647
 21
2367.7113
 31
0
  0
LINE
  8
_0-0_
 62
4
 10
1205.2999
 20
2380.7113
 30
0
 11
1205.2008
 21
2378.9848
 31
0
  0
LINE
  8
_0-0_
 62
4
 10
1205.2008
 20
2378.9848
 30
0
 11
1204.9032
 21
2377.2874
 31
0
  0
LINE
  8
_0-0_
 62
4
 10
1204.9032
 20
2377.2874
 30
0
 11
1204.4074
 21
2375.6188
 31
0
  0
LINE
  8
_0-0_
 62
4
 10
1204.4074
 20
2375.6188
 30
0
 11
1203.7132
 21
2373.9793
 31
0
  0
LINE
  8
_0-0_
 62
4
 10
1203.7132
 20
2373.9793
 30
0
 11
1202.8207
 21
2372.3688
 31
0
  0
LINE
  8
_0-0_
 62
4
 10
1202.8207
 20
2372.3688
 30
0
 11
1201.7297
 21
2370.7874
 31
0
  0
LINE
  8
_0-0_
 62
4
 10
1201.7297
 20
2370.7874
 30
0
 11
1200.4405
 21
2369.2348
 31
0
  0
LINE
  8
_0-0_
 62
4
 10
1200.4405
 20
2369.2348
 30
0
 11
1198.9529
 21
2367.7113
 31
0
  0
LINE
  8
_0-0_
 62
4
 10
1166.2999
 20
2380.7113
 30
0
 11
1166.3991
 21
2378.9848
 31
0
  0
LINE
  8
_0-0_
 62
4
 10
1166.3991
 20
2378.9848
 30
0
 11
1166.6966
 21
2377.2874
 31
0
  0
LINE
  8
_0-0_
 62
4
 10
1166.6966
 20
2377.2874
 30
0
 11
1167.1925
 21
2375.6188
 31
0
  0
LINE
  8
_0-0_
 62
4
 10
1167.1925
 20
2375.6188
 30
0
 11
1167.8867
 21
2373.9793
 31
0
  0
LINE
  8
_0-0_
 62
4
 10
1167.8867
 20
2373.9793
 30
0
 11
1168.7792
 21
2372.3688
 31
0
  0
LINE
  8
_0-0_
 62
4
 10
1168.7792
 20
2372.3688
 30
0
 11
1169.8701
 21
2370.7874
 31
0
  0
LINE
  8
_0-0_
 62
4
 10
1169.8701
 20
2370.7874
 30
0
 11
1171.1593
 21
2369.2348
 31
0
  0
LINE
  8
_0-0_
 62
4
 10
1171.1593
 20
2369.2348
 30
0
 11
1172.647
 21
2367.7113
 31
0
  0
LINE
  8
_0-0_
 62
4
 10
1195.805
 20
2399.2113
 30
0
 11
1195.805
 21
2380.7113
 31
0
  0
LINE
  8
_0-0_
 62
4
 10
1175.8049
 20
2399.2113
 30
0
 11
1175.8049
 21
2380.7113
 31
0
  0
LINE
  8
_0-0_
 62
3
 10
1185.8
 20
2311.4613
 30
0
 11
1169.805
 21
2320.7063
 31
0
  0
LINE
  8
_0-0_
 62
3
 10
1169.805
 20
2320.7063
 30
0
 11
1169.805
 21
2339.2163
 31
0
  0
LINE
  8
_0-0_
 62
3
 10
1169.805
 20
2339.2163
 30
0
 11
1185.8
 21
2348.4614
 31
0
  0
LINE
  8
_0-0_
 62
3
 10
1185.8
 20
2348.4614
 30
0
 11
1201.805
 21
2339.2163
 31
0
  0
LINE
  8
_0-0_
 62
3
 10
1201.805
 20
2339.2163
 30
0
 11
1201.805
 21
2320.7163
 31
0
  0
LINE
  8
_0-0_
 62
3
 10
1201.805
 20
2320.7163
 30
0
 11
1185.8
 21
2311.4613
 31
0
  0
LINE
  8
_0-0_
 62
4
 10
1208.3
 20
2329.9613
 30
0
 11
1163.3
 21
2329.9613
 31
0
  0
LINE
  8
_0-0_
 62
4
 10
1185.8
 20
2307.4614
 30
0
 11
1185.8
 21
2352.4614
 31
0
  0
LINE
  8
_0-0_
 62
3
 10
1125.8
 20
2311.4613
 30
0
 11
1109.805
 21
2320.7063
 31
0
  0
LINE
  8
_0-0_
 62
3
 10
1109.805
 20
2320.7063
 30
0
 11
1109.805
 21
2339.2163
 31
0
  0
LINE
  8
_0-0_
 62
3
 10
1109.805
 20
2339.2163
 30
0
 11
1125.8
 21
2348.4614
 31
0
  0
LINE
  8
_0-0_
 62
3
 10
1125.8
 20
2348.4614
 30
0
 11
1141.805
 21
2339.2163
 31
0
  0
LINE
  8
_0-0_
 62
3
 10
1141.805
 20
2339.2163
 30
0
 11
1141.805
 21
2320.7163
 31
0
  0
LINE
  8
_0-0_
 62
3
 10
1141.805
 20
2320.7163
 30
0
 11
1125.8
 21
2311.4613
 31
0
  0
LINE
  8
_0-0_
 62
4
 10
1148.3
 20
2329.9613
 30
0
 11
1103.3
 21
2329.9613
 31
0
  0
LINE
  8
_0-0_
 62
4
 10
1125.8
 20
2307.4614
 30
0
 11
1125.8
 21
2352.4614
 31
0
  0
LINE
  8
_0-0_
 62
3
 10
1275.7999
 20
2311.4613
 30
0
 11
1291.7949
 21
2320.7063
 31
0
  0
LINE
  8
_0-0_
 62
3
 10
1291.7949
 20
2320.7063
 30
0
 11
1291.7949
 21
2339.2163
 31
0
  0
LINE
  8
_0-0_
 62
3
 10
1291.7949
 20
2339.2163
 30
0
 11
1275.7999
 21
2348.4614
 31
0
  0
LINE
  8
_0-0_
 62
3
 10
1275.7999
 20
2348.4614
 30
0
 11
1259.7949
 21
2339.2163
 31
0
  0
LINE
  8
_0-0_
 62
3
 10
1259.7949
 20
2339.2163
 30
0
 11
1259.7949
 21
2320.7163
 31
0
  0
LINE
  8
_0-0_
 62
3
 10
1259.7949
 20
2320.7163
 30
0
 11
1275.7999
 21
2311.4613
 31
0
  0
LINE
  8
_0-0_
 62
4
 10
1253.2999
 20
2329.9613
 30
0
 11
1298.3
 21
2329.9613
 31
0
  0
LINE
  8
_0-0_
 62
4
 10
1275.7999
 20
2307.4614
 30
0
 11
1275.7999
 21
2352.4614
 31
0
  0
LINE
  8
_0-0_
 62
3
 10
1335.7999
 20
2311.4613
 30
0
 11
1351.7949
 21
2320.7063
 31
0
  0
LINE
  8
_0-0_
 62
3
 10
1351.7949
 20
2320.7063
 30
0
 11
1351.7949
 21
2339.2163
 31
0
  0
LINE
  8
_0-0_
 62
3
 10
1351.7949
 20
2339.2163
 30
0
 11
1335.7999
 21
2348.4614
 31
0
  0
LINE
  8
_0-0_
 62
3
 10
1335.7999
 20
2348.4614
 30
0
 11
1319.7949
 21
2339.2163
 31
0
  0
LINE
  8
_0-0_
 62
3
 10
1319.7949
 20
2339.2163
 30
0
 11
1319.7949
 21
2320.7163
 31
0
  0
LINE
  8
_0-0_
 62
3
 10
1319.7949
 20
2320.7163
 30
0
 11
1335.7999
 21
2311.4613
 31
0
  0
LINE
  8
_0-0_
 62
4
 10
1313.2999
 20
2329.9613
 30
0
 11
1358.3
 21
2329.9613
 31
0
  0
LINE
  8
_0-0_
 62
4
 10
1335.7999
 20
2307.4614
 30
0
 11
1335.7999
 21
2352.4614
 31
0
  0
LINE
  8
_0-0_
 62
3
 10
1185.8
 20
2431.4613
 30
0
 11
1169.805
 21
2440.7063
 31
0
  0
LINE
  8
_0-0_
 62
3
 10
1169.805
 20
2440.7063
 30
0
 11
1169.805
 21
2459.2164
 31
0
  0
LINE
  8
_0-0_
 62
3
 10
1169.805
 20
2459.2164
 30
0
 11
1185.8
 21
2468.4614
 31
0
  0
LINE
  8
_0-0_
 62
3
 10
1185.8
 20
2468.4614
 30
0
 11
1201.805
 21
2459.2164
 31
0
  0
LINE
  8
_0-0_
 62
3
 10
1201.805
 20
2459.2164
 30
0
 11
1201.805
 21
2440.7163
 31
0
  0
LINE
  8
_0-0_
 62
3
 10
1201.805
 20
2440.7163
 30
0
 11
1185.8
 21
2431.4613
 31
0
  0
LINE
  8
_0-0_
 62
4
 10
1208.3
 20
2449.9613
 30
0
 11
1163.3
 21
2449.9613
 31
0
  0
LINE
  8
_0-0_
 62
4
 10
1185.8
 20
2427.4614
 30
0
 11
1185.8
 21
2472.4613
 31
0
  0
LINE
  8
_0-0_
 62
3
 10
1125.8
 20
2431.4613
 30
0
 11
1109.805
 21
2440.7063
 31
0
  0
LINE
  8
_0-0_
 62
3
 10
1109.805
 20
2440.7063
 30
0
 11
1109.805
 21
2459.2164
 31
0
  0
LINE
  8
_0-0_
 62
3
 10
1109.805
 20
2459.2164
 30
0
 11
1125.8
 21
2468.4614
 31
0
  0
LINE
  8
_0-0_
 62
3
 10
1125.8
 20
2468.4614
 30
0
 11
1141.805
 21
2459.2164
 31
0
  0
LINE
  8
_0-0_
 62
3
 10
1141.805
 20
2459.2164
 30
0
 11
1141.805
 21
2440.7163
 31
0
  0
LINE
  8
_0-0_
 62
3
 10
1141.805
 20
2440.7163
 30
0
 11
1125.8
 21
2431.4613
 31
0
  0
LINE
  8
_0-0_
 62
4
 10
1148.3
 20
2449.9613
 30
0
 11
1103.3
 21
2449.9613
 31
0
  0
LINE
  8
_0-0_
 62
4
 10
1125.8
 20
2427.4614
 30
0
 11
1125.8
 21
2472.4613
 31
0
  0
LINE
  8
_0-0_
 62
3
 10
1275.7999
 20
2431.4613
 30
0
 11
1291.7949
 21
2440.7063
 31
0
  0
LINE
  8
_0-0_
 62
3
 10
1291.7949
 20
2440.7063
 30
0
 11
1291.7949
 21
2459.2164
 31
0
  0
LINE
  8
_0-0_
 62
3
 10
1291.7949
 20
2459.2164
 30
0
 11
1275.7999
 21
2468.4614
 31
0
  0
LINE
  8
_0-0_
 62
3
 10
1275.7999
 20
2468.4614
 30
0
 11
1259.7949
 21
2459.2164
 31
0
  0
LINE
  8
_0-0_
 62
3
 10
1259.7949
 20
2459.2164
 30
0
 11
1259.7949
 21
2440.7163
 31
0
  0
LINE
  8
_0-0_
 62
3
 10
1259.7949
 20
2440.7163
 30
0
 11
1275.7999
 21
2431.4613
 31
0
  0
LINE
  8
_0-0_
 62
4
 10
1253.2999
 20
2449.9613
 30
0
 11
1298.3
 21
2449.9613
 31
0
  0
LINE
  8
_0-0_
 62
4
 10
1275.7999
 20
2427.4614
 30
0
 11
1275.7999
 21
2472.4613
 31
0
  0
LINE
  8
_0-0_
 62
3
 10
1335.7999
 20
2431.4613
 30
0
 11
1351.7949
 21
2440.7063
 31
0
  0
LINE
  8
_0-0_
 62
3
 10
1351.7949
 20
2440.7063
 30
0
 11
1351.7949
 21
2459.2164
 31
0
  0
LINE
  8
_0-0_
 62
3
 10
1351.7949
 20
2459.2164
 30
0
 11
1335.7999
 21
2468.4614
 31
0
  0
LINE
  8
_0-0_
 62
3
 10
1335.7999
 20
2468.4614
 30
0
 11
1319.7949
 21
2459.2164
 31
0
  0
LINE
  8
_0-0_
 62
3
 10
1319.7949
 20
2459.2164
 30
0
 11
1319.7949
 21
2440.7163
 31
0
  0
LINE
  8
_0-0_
 62
3
 10
1319.7949
 20
2440.7163
 30
0
 11
1335.7999
 21
2431.4613
 31
0
  0
LINE
  8
_0-0_
 62
4
 10
1313.2999
 20
2449.9613
 30
0
 11
1358.3
 21
2449.9613
 31
0
  0
LINE
  8
_0-0_
 62
4
 10
1335.7999
 20
2427.4614
 30
0
 11
1335.7999
 21
2472.4613
 31
0
  0
LINE
  8
_0-0_
 62
4
 10
1529.7392
 20
2517.3378
 30
0
 11
1463.4803
 21
2517.3378
 31
0
  0
LINE
  8
_0-0_
 62
4
 10
1463.4803
 20
2517.3378
 30
0
 11
1397.1103
 21
2450.9679
 31
0
  0
LINE
  8
_0-0_
 62
4
 10
1415.9445
 20
2289.9614
 30
0
 11
1506.5095
 21
2289.9614
 31
0
  0
LINE
  8
_0-0_
 62
4
 10
1494.0745
 20
2289.9614
 30
0
 11
1611.9445
 21
2289.9614
 31
0
  0
LINE
  8
_0-0_
 62
4
 10
1598.0744
 20
2489.9613
 30
0
 11
1598.0744
 21
2289.9614
 31
0
  0
LINE
  8
_0-0_
 62
4
 10
1494.0745
 20
2489.9613
 30
0
 11
1611.9445
 21
2489.9613
 31
0
  0
LINE
  8
_0-0_
 62
3
 10
1395.8
 20
2311.4613
 30
0
 11
1411.7949
 21
2320.7063
 31
0
  0
LINE
  8
_0-0_
 62
3
 10
1411.7949
 20
2320.7063
 30
0
 11
1411.7949
 21
2339.2163
 31
0
  0
LINE
  8
_0-0_
 62
3
 10
1411.7949
 20
2339.2163
 30
0
 11
1395.8
 21
2348.4614
 31
0
  0
LINE
  8
_0-0_
 62
3
 10
1395.8
 20
2348.4614
 30
0
 11
1379.7949
 21
2339.2163
 31
0
  0
LINE
  8
_0-0_
 62
3
 10
1379.7949
 20
2339.2163
 30
0
 11
1379.7949
 21
2320.7163
 31
0
  0
LINE
  8
_0-0_
 62
3
 10
1379.7949
 20
2320.7163
 30
0
 11
1395.8
 21
2311.4613
 31
0
  0
LINE
  8
_0-0_
 62
4
 10
1373.2999
 20
2329.9613
 30
0
 11
1418.3
 21
2329.9613
 31
0
  0
LINE
  8
_0-0_
 62
4
 10
1395.8
 20
2307.4614
 30
0
 11
1395.8
 21
2352.4614
 31
0
  0
LINE
  8
_0-0_
 62
3
 10
1395.8
 20
2431.4613
 30
0
 11
1411.7949
 21
2440.7063
 31
0
  0
LINE
  8
_0-0_
 62
3
 10
1411.7949
 20
2440.7063
 30
0
 11
1411.7949
 21
2459.2164
 31
0
  0
LINE
  8
_0-0_
 62
3
 10
1411.7949
 20
2459.2164
 30
0
 11
1395.8
 21
2468.4614
 31
0
  0
LINE
  8
_0-0_
 62
3
 10
1395.8
 20
2468.4614
 30
0
 11
1379.7949
 21
2459.2164
 31
0
  0
LINE
  8
_0-0_
 62
3
 10
1379.7949
 20
2459.2164
 30
0
 11
1379.7949
 21
2440.7163
 31
0
  0
LINE
  8
_0-0_
 62
3
 10
1379.7949
 20
2440.7163
 30
0
 11
1395.8
 21
2431.4613
 31
0
  0
LINE
  8
_0-0_
 62
4
 10
1373.2999
 20
2449.9613
 30
0
 11
1418.3
 21
2449.9613
 31
0
  0
LINE
  8
_0-0_
 62
4
 10
1395.8
 20
2427.4614
 30
0
 11
1395.8
 21
2472.4613
 31
0
  0
LINE
  8
_0-0_
 62
3
 10
1065.8
 20
2311.4613
 30
0
 11
1049.805
 21
2320.7063
 31
0
  0
LINE
  8
_0-0_
 62
3
 10
1049.805
 20
2320.7063
 30
0
 11
1049.805
 21
2339.2163
 31
0
  0
LINE
  8
_0-0_
 62
3
 10
1049.805
 20
2339.2163
 30
0
 11
1065.8
 21
2348.4614
 31
0
  0
LINE
  8
_0-0_
 62
3
 10
1065.8
 20
2348.4614
 30
0
 11
1081.805
 21
2339.2163
 31
0
  0
LINE
  8
_0-0_
 62
3
 10
1081.805
 20
2339.2163
 30
0
 11
1081.805
 21
2320.7163
 31
0
  0
LINE
  8
_0-0_
 62
3
 10
1081.805
 20
2320.7163
 30
0
 11
1065.8
 21
2311.4613
 31
0
  0
LINE
  8
_0-0_
 62
4
 10
1088.3
 20
2329.9613
 30
0
 11
1043.3
 21
2329.9613
 31
0
  0
LINE
  8
_0-0_
 62
4
 10
1065.8
 20
2307.4614
 30
0
 11
1065.8
 21
2352.4614
 31
0
  0
LINE
  8
_0-0_
 62
3
 10
1065.8
 20
2431.4613
 30
0
 11
1049.805
 21
2440.7063
 31
0
  0
LINE
  8
_0-0_
 62
3
 10
1049.805
 20
2440.7063
 30
0
 11
1049.805
 21
2459.2164
 31
0
  0
LINE
  8
_0-0_
 62
3
 10
1049.805
 20
2459.2164
 30
0
 11
1065.8
 21
2468.4614
 31
0
  0
LINE
  8
_0-0_
 62
3
 10
1065.8
 20
2468.4614
 30
0
 11
1081.805
 21
2459.2164
 31
0
  0
LINE
  8
_0-0_
 62
3
 10
1081.805
 20
2459.2164
 30
0
 11
1081.805
 21
2440.7163
 31
0
  0
LINE
  8
_0-0_
 62
3
 10
1081.805
 20
2440.7163
 30
0
 11
1065.8
 21
2431.4613
 31
0
  0
LINE
  8
_0-0_
 62
4
 10
1088.3
 20
2449.9613
 30
0
 11
1043.3
 21
2449.9613
 31
0
  0
LINE
  8
_0-0_
 62
4
 10
1065.8
 20
2427.4614
 30
0
 11
1065.8
 21
2472.4613
 31
0
  0
LINE
  8
_0-0_
 62
4
 10
1395.8
 20
2613.6384
 30
0
 11
1335.7999
 21
2613.6384
 31
0
  0
LINE
  8
_0-0_
 62
4
 10
1335.7999
 20
2543.6383
 30
0
 11
1335.7999
 21
2623.6383
 31
0
  0
LINE
  8
_0-0_
 62
4
 10
1335.7999
 20
2444.8513
 30
0
 11
1335.7999
 21
2553.6383
 31
0
  0
LINE
  8
_0-0_
 62
4
 10
1125.8
 20
2444.8513
 30
0
 11
1125.8
 21
2553.6383
 31
0
  0
LINE
  8
_0-0_
 62
4
 10
1065.8
 20
2613.6384
 30
0
 11
1125.8
 21
2613.6384
 31
0
  0
LINE
  8
_0-0_
 62
4
 10
1125.8
 20
2543.6383
 30
0
 11
1125.8
 21
2623.6383
 31
0
  0
LINE
  8
_0-0_
 62
4
 10
469.99971
 20
2517.8811
 30
0
 11
469.99971
 21
2400.2452
 31
0
  0
LINE
  8
_0-0_
 62
4
 10
469.99971
 20
2400.2452
 30
0
 11
448.20969
 21
2395.1312
 31
0
  0
LINE
  8
_0-0_
 62
4
 10
448.20969
 20
2395.1312
 30
0
 11
491.78869
 21
2384.9016
 31
0
  0
LINE
  8
_0-0_
 62
4
 10
491.78869
 20
2384.9016
 30
0
 11
469.99871
 21
2379.7876
 31
0
  0
LINE
  8
_0-0_
 62
4
 10
469.99871
 20
2379.7876
 30
0
 11
469.99871
 21
2262.1517
 31
0
  0
LINE
  8
_0-0_
 62
4
 10
483.85999
 20
2532.9253
 30
0
 11
870.80002
 21
2532.9253
 31
0
  0
LINE
  8
_0-0_
 62
4
 10
870.80002
 20
2532.9253
 30
0
 11
948.79999
 21
2454.9253
 31
0
  0
LINE
  8
_0-0_
 62
3
 10
469.99871
 20
2489.9613
 30
0
 11
1991.5991
 21
2489.9613
 31
0
  0
LINE
  8
_0-0_
 62
3
 10
469.99871
 20
2289.9614
 30
0
 11
1991.5991
 21
2289.9614
 31
0
  0
LINE
  8
_0-0_
 62
4
 10
469.99901
 20
2393.2114
 30
0
 11
1991.5993
 21
2393.2114
 31
0
  0
LINE
  8
_0-0_
 62
4
 10
469.99901
 20
2386.7114
 30
0
 11
1991.5993
 21
2386.7114
 31
0
  0
LINE
  8
_0-0_
 62
3
 10
2267.7399
 20
3082.1514
 30
0
 11
2467.74
 21
3082.1514
 31
0
  0
LINE
  8
_0-0_
 62
3
 10
2467.74
 20
3082.1514
 30
0
 11
2467.74
 21
3070.1513
 31
0
  0
LINE
  8
_0-0_
 62
3
 10
2467.74
 20
3070.1513
 30
0
 11
2267.7399
 21
3070.1513
 31
0
  0
LINE
  8
_0-0_
 62
3
 10
2267.7399
 20
3070.1513
 30
0
 11
2267.7399
 21
3082.1514
 31
0
  0
LINE
  8
_0-0_
 62
3
 10
2267.7399
 20
3054.1512
 30
0
 11
2347.74
 21
3054.1512
 31
0
  0
LINE
  8
_0-0_
 62
3
 10
2347.74
 20
3054.1512
 30
0
 11
2347.74
 21
3042.1514
 31
0
  0
LINE
  8
_0-0_
 62
3
 10
2347.74
 20
3042.1514
 30
0
 11
2267.7399
 21
3042.1514
 31
0
  0
LINE
  8
_0-0_
 62
3
 10
2267.7399
 20
3042.1514
 30
0
 11
2267.7399
 21
3054.1512
 31
0
  0
LINE
  8
_0-0_
 62
4
 10
2267.7399
 20
3268.2212
 30
0
 11
2307.7399
 21
3268.2212
 31
0
  0
LINE
  8
_0-0_
 62
4
 10
2427.7399
 20
3268.2212
 30
0
 11
2467.74
 21
3268.2212
 31
0
  0
LINE
  8
_0-0_
 62
4
 10
2267.7399
 20
2493.2213
 30
0
 11
2267.7399
 21
2349.2213
 31
0
  0
LINE
  8
_0-0_
 62
4
 10
2267.7399
 20
2380.4613
 30
0
 11
2267.7399
 21
2281.2214
 31
0
  0
LINE
  8
_0-0_
 62
4
 10
2347.74
 20
2493.2213
 30
0
 11
2347.74
 21
2349.2213
 31
0
  0
LINE
  8
_0-0_
 62
4
 10
2347.74
 20
2380.4613
 30
0
 11
2347.74
 21
2281.2214
 31
0
  0
LINE
  8
_0-0_
 62
4
 10
2267.7399
 20
2291.4613
 30
0
 11
2347.74
 21
2291.4613
 31
0
  0
LINE
  8
_0-0_
 62
4
 10
2267.7399
 20
2341.4614
 30
0
 11
2307.7399
 21
2341.4614
 31
0
  0
LINE
  8
_0-0_
 62
4
 10
2307.7399
 20
2341.4614
 30
0
 11
2347.74
 21
2341.4614
 31
0
  0
LINE
  8
_0-0_
 62
4
 10
2307.7399
 20
2493.2213
 30
0
 11
2307.7399
 21
2349.2213
 31
0
  0
LINE
  8
_0-0_
 62
4
 10
2307.7399
 20
2380.4613
 30
0
 11
2307.7399
 21
2325.2214
 31
0
  0
LINE
  8
_0-0_
 62
4
 10
2347.74
 20
2341.4614
 30
0
 11
2400.9899
 21
2341.4614
 31
0
  0
LINE
  8
_0-0_
 62
4
 10
2267.7399
 20
2341.4614
 30
0
 11
2214.49
 21
2341.4614
 31
0
  0
LINE
  8
_0-0_
 62
4
 10
1763.2399
 20
2982.4813
 30
0
 11
2234.2619
 21
2982.4813
 31
0
  0
LINE
  8
_0-0_
 62
4
 10
2234.2619
 20
2982.4813
 30
0
 11
2298.991
 21
3047.2103
 31
0
  0
LINE
  8
_0-0_
 62
4
 10
1785.2399
 20
3159.7012
 30
0
 11
2280.2599
 21
3159.7012
 31
0
  0
LINE
  8
_0-0_
 62
4
 10
2280.2599
 20
3159.7012
 30
0
 11
2360
 21
3079.9614
 31
0
  0
LINE
  8
_0-0_
 62
4
 10
2540.093
 20
3154.6384
 30
0
 11
2476.157
 21
3154.6384
 31
0
  0
LINE
  8
_0-0_
 62
4
 10
2476.157
 20
3154.6384
 30
0
 11
2425.7869
 21
3104.2683
 31
0
  0
LINE
  8
_0-0_
 62
4
 10
2467.74
 20
3198.2213
 30
0
 11
2467.74
 21
3328.7214
 31
0
  0
LINE
  8
_0-0_
 62
4
 10
2467.74
 20
3024.4614
 30
0
 11
2467.74
 21
3212.4615
 31
0
  0
LINE
  8
_0-0_
 62
4
 10
2267.7399
 20
3198.2213
 30
0
 11
2267.7399
 21
3328.7214
 31
0
  0
LINE
  8
_0-0_
 62
4
 10
2267.7399
 20
3024.4614
 30
0
 11
2267.7399
 21
3212.4615
 31
0
  0
LINE
  8
_0-0_
 62
4
 10
2267.7399
 20
3318.2215
 30
0
 11
2467.74
 21
3318.2215
 31
0
  0
LINE
  8
_0-0_
 62
4
 10
2307.7399
 20
3268.2212
 30
0
 11
2427.7399
 21
3268.2212
 31
0
  0
LINE
  8
_0-0_
 62
4
 10
2307.7399
 20
3024.4614
 30
0
 11
2307.7399
 21
3212.4615
 31
0
  0
LINE
  8
_0-0_
 62
4
 10
2307.7399
 20
3198.2213
 30
0
 11
2307.7399
 21
3278.2214
 31
0
  0
LINE
  8
_0-0_
 62
4
 10
2427.7399
 20
3024.4614
 30
0
 11
2427.7399
 21
3212.4615
 31
0
  0
LINE
  8
_0-0_
 62
4
 10
2427.7399
 20
3198.2213
 30
0
 11
2427.7399
 21
3278.2214
 31
0
  0
LINE
  8
_0-0_
 62
4
 10
2297.7399
 20
3082.1514
 30
0
 11
2242.502
 21
3082.1514
 31
0
  0
LINE
  8
_0-0_
 62
4
 10
2297.7399
 20
3070.1513
 30
0
 11
2242.502
 21
3070.1513
 31
0
  0
LINE
  8
_0-0_
 62
4
 10
2250.2399
 20
3082.1514
 30
0
 11
2204.002
 21
3082.1514
 31
0
  0
LINE
  8
_0-0_
 62
4
 10
2250.2399
 20
3070.1513
 30
0
 11
2204.002
 21
3070.1513
 31
0
  0
LINE
  8
_0-0_
 62
4
 10
2217.502
 20
3082.1514
 30
0
 11
2217.502
 21
3070.1513
 31
0
  0
LINE
  8
_0-0_
 62
3
 10
2267.7399
 20
2470.1513
 30
0
 11
2467.74
 21
2470.1513
 31
0
  0
LINE
  8
_0-0_
 62
3
 10
2467.74
 20
2470.1513
 30
0
 11
2467.74
 21
2458.1513
 31
0
  0
LINE
  8
_0-0_
 62
3
 10
2467.74
 20
2458.1513
 30
0
 11
2267.7399
 21
2458.1513
 31
0
  0
LINE
  8
_0-0_
 62
3
 10
2267.7399
 20
2458.1513
 30
0
 11
2267.7399
 21
2470.1513
 31
0
  0
LINE
  8
_0-0_
 62
3
 10
2267.7399
 20
2498.1514
 30
0
 11
2347.74
 21
2498.1514
 31
0
  0
LINE
  8
_0-0_
 62
3
 10
2347.74
 20
2498.1514
 30
0
 11
2347.74
 21
2486.1514
 31
0
  0
LINE
  8
_0-0_
 62
3
 10
2347.74
 20
2486.1514
 30
0
 11
2267.7399
 21
2486.1514
 31
0
  0
LINE
  8
_0-0_
 62
3
 10
2267.7399
 20
2486.1514
 30
0
 11
2267.7399
 21
2498.1514
 31
0
  0
LINE
  8
_0-0_
 62
4
 10
2297.7399
 20
2486.1514
 30
0
 11
2242.502
 21
2486.1514
 31
0
  0
LINE
  8
_0-0_
 62
4
 10
2297.7399
 20
2498.1514
 30
0
 11
2242.502
 21
2498.1514
 31
0
  0
LINE
  8
_0-0_
 62
4
 10
2250.2399
 20
2486.1514
 30
0
 11
2204.002
 21
2486.1514
 31
0
  0
LINE
  8
_0-0_
 62
4
 10
2250.2399
 20
2498.1514
 30
0
 11
2204.002
 21
2498.1514
 31
0
  0
LINE
  8
_0-0_
 62
4
 10
2217.502
 20
2486.1514
 30
0
 11
2217.502
 21
2498.1514
 31
0
  0
LINE
  8
_0-0_
 62
3
 10
2387.7399
 20
2498.1514
 30
0
 11
2467.74
 21
2498.1514
 31
0
  0
LINE
  8
_0-0_
 62
3
 10
2467.74
 20
2498.1514
 30
0
 11
2467.74
 21
2486.1514
 31
0
  0
LINE
  8
_0-0_
 62
3
 10
2467.74
 20
2486.1514
 30
0
 11
2387.7399
 21
2486.1514
 31
0
  0
LINE
  8
_0-0_
 62
3
 10
2387.7399
 20
2486.1514
 30
0
 11
2387.7399
 21
2498.1514
 31
0
  0
LINE
  8
_0-0_
 62
3
 10
2292.4399
 20
2433.6513
 30
0
 11
2323.0389
 21
2433.6513
 31
0
  0
LINE
  8
_0-0_
 62
3
 10
2326.235
 20
2451.4913
 30
0
 11
2326.235
 21
2435.8224
 31
0
  0
LINE
  8
_0-0_
 62
3
 10
2289.2349
 20
2451.4913
 30
0
 11
2289.2349
 21
2435.8224
 31
0
  0
LINE
  8
_0-0_
 62
3
 10
2292.4399
 20
2453.6513
 30
0
 11
2323.0389
 21
2453.6513
 31
0
  0
LINE
  8
_0-0_
 62
3
 10
2323.0389
 20
2453.6513
 30
0
 11
2326.235
 21
2451.4913
 31
0
  0
LINE
  8
_0-0_
 62
3
 10
2292.4399
 20
2453.6513
 30
0
 11
2289.2349
 21
2451.4913
 31
0
  0
LINE
  8
_0-0_
 62
3
 10
2298.5079
 20
2451.4913
 30
0
 11
2298.5079
 21
2435.8224
 31
0
  0
LINE
  8
_0-0_
 62
3
 10
2295.294
 20
2453.6513
 30
0
 11
2298.5079
 21
2451.4913
 31
0
  0
LINE
  8
_0-0_
 62
3
 10
2301.704
 20
2453.6513
 30
0
 11
2298.5079
 21
2451.4913
 31
0
  0
LINE
  8
_0-0_
 62
3
 10
2316.9709
 20
2451.4913
 30
0
 11
2316.9709
 21
2435.8224
 31
0
  0
LINE
  8
_0-0_
 62
3
 10
2320.176
 20
2453.6513
 30
0
 11
2316.9709
 21
2451.4913
 31
0
  0
LINE
  8
_0-0_
 62
3
 10
2313.775
 20
2453.6513
 30
0
 11
2316.9709
 21
2451.4913
 31
0
  0
LINE
  8
_0-0_
 62
3
 10
2323.0389
 20
2433.6513
 30
0
 11
2326.235
 21
2435.8224
 31
0
  0
LINE
  8
_0-0_
 62
3
 10
2292.4399
 20
2433.6513
 30
0
 11
2289.2349
 21
2435.8224
 31
0
  0
LINE
  8
_0-0_
 62
3
 10
2295.294
 20
2433.6513
 30
0
 11
2298.5079
 21
2435.8224
 31
0
  0
LINE
  8
_0-0_
 62
3
 10
2301.704
 20
2433.6513
 30
0
 11
2298.5079
 21
2435.8224
 31
0
  0
LINE
  8
_0-0_
 62
3
 10
2320.176
 20
2433.6513
 30
0
 11
2316.9709
 21
2435.8224
 31
0
  0
LINE
  8
_0-0_
 62
3
 10
2313.775
 20
2433.6513
 30
0
 11
2316.9709
 21
2435.8224
 31
0
  0
LINE
  8
_0-0_
 62
4
 10
2297.155
 20
2422.0214
 30
0
 11
2317.155
 21
2425.6614
 31
0
  0
LINE
  8
_0-0_
 62
4
 10
2297.155
 20
2425.6114
 30
0
 11
2317.155
 21
2429.2514
 31
0
  0
LINE
  8
_0-0_
 62
4
 10
2297.155
 20
2429.6013
 30
0
 11
2314.336
 21
2432.7213
 31
0
  0
LINE
  8
_0-0_
 62
3
 10
2317.155
 20
2422.0214
 30
0
 11
2317.155
 21
2433.6513
 31
0
  0
LINE
  8
_0-0_
 62
3
 10
2297.155
 20
2422.0214
 30
0
 11
2297.155
 21
2433.6513
 31
0
  0
LINE
  8
_0-0_
 62
3
 10
2317.155
 20
2422.0214
 30
0
 11
2297.155
 21
2422.0214
 31
0
  0
LINE
  8
_0-0_
 62
3
 10
2287.7399
 20
2458.1513
 30
0
 11
2327.74
 21
2458.1513
 31
0
  0
LINE
  8
_0-0_
 62
3
 10
2327.74
 20
2458.1513
 30
0
 11
2327.74
 21
2453.6513
 31
0
  0
LINE
  8
_0-0_
 62
3
 10
2327.74
 20
2453.6513
 30
0
 11
2287.7399
 21
2453.6513
 31
0
  0
LINE
  8
_0-0_
 62
3
 10
2287.7399
 20
2453.6513
 30
0
 11
2287.7399
 21
2458.1513
 31
0
  0
LINE
  8
_0-0_
 62
3
 10
2327.235
 20
2498.1514
 30
0
 11
2288.2349
 21
2498.1514
 31
0
  0
LINE
  8
_0-0_
 62
3
 10
2320.8879
 20
2511.1514
 30
0
 11
2294.582
 21
2511.1514
 31
0
  0
LINE
  8
_0-0_
 62
3
 10
2327.235
 20
2498.1514
 30
0
 11
2327.1358
 21
2499.8779
 31
0
  0
LINE
  8
_0-0_
 62
3
 10
2327.1358
 20
2499.8779
 30
0
 11
2326.8383
 21
2501.5753
 31
0
  0
LINE
  8
_0-0_
 62
3
 10
2326.8383
 20
2501.5753
 30
0
 11
2326.3424
 21
2503.2439
 31
0
  0
LINE
  8
_0-0_
 62
3
 10
2326.3424
 20
2503.2439
 30
0
 11
2325.6481
 21
2504.8834
 31
0
  0
LINE
  8
_0-0_
 62
3
 10
2325.6481
 20
2504.8834
 30
0
 11
2324.7556
 21
2506.4939
 31
0
  0
LINE
  8
_0-0_
 62
3
 10
2324.7556
 20
2506.4939
 30
0
 11
2323.6648
 21
2508.0753
 31
0
  0
LINE
  8
_0-0_
 62
3
 10
2323.6648
 20
2508.0753
 30
0
 11
2322.3756
 21
2509.6279
 31
0
  0
LINE
  8
_0-0_
 62
3
 10
2322.3756
 20
2509.6279
 30
0
 11
2320.8879
 21
2511.1514
 31
0
  0
LINE
  8
_0-0_
 62
3
 10
2288.2349
 20
2498.1514
 30
0
 11
2288.3341
 21
2499.8779
 31
0
  0
LINE
  8
_0-0_
 62
3
 10
2288.3341
 20
2499.8779
 30
0
 11
2288.6316
 21
2501.5753
 31
0
  0
LINE
  8
_0-0_
 62
3
 10
2288.6316
 20
2501.5753
 30
0
 11
2289.1275
 21
2503.2439
 31
0
  0
LINE
  8
_0-0_
 62
3
 10
2289.1275
 20
2503.2439
 30
0
 11
2289.8218
 21
2504.8834
 31
0
  0
LINE
  8
_0-0_
 62
3
 10
2289.8218
 20
2504.8834
 30
0
 11
2290.7143
 21
2506.4939
 31
0
  0
LINE
  8
_0-0_
 62
3
 10
2290.7143
 20
2506.4939
 30
0
 11
2291.8051
 21
2508.0753
 31
0
  0
LINE
  8
_0-0_
 62
3
 10
2291.8051
 20
2508.0753
 30
0
 11
2293.0943
 21
2509.6279
 31
0
  0
LINE
  8
_0-0_
 62
3
 10
2293.0943
 20
2509.6279
 30
0
 11
2294.582
 21
2511.1514
 31
0
  0
LINE
  8
_0-0_
 62
4
 10
2317.74
 20
2458.1513
 30
0
 11
2317.74
 21
2498.1514
 31
0
  0
LINE
  8
_0-0_
 62
4
 10
2297.7399
 20
2458.1513
 30
0
 11
2297.7399
 21
2498.1514
 31
0
  0
LINE
  8
_0-0_
 62
3
 10
2412.4399
 20
2433.6513
 30
0
 11
2443.0389
 21
2433.6513
 31
0
  0
LINE
  8
_0-0_
 62
3
 10
2446.235
 20
2451.4913
 30
0
 11
2446.235
 21
2435.8224
 31
0
  0
LINE
  8
_0-0_
 62
3
 10
2409.2349
 20
2451.4913
 30
0
 11
2409.2349
 21
2435.8224
 31
0
  0
LINE
  8
_0-0_
 62
3
 10
2412.4399
 20
2453.6513
 30
0
 11
2443.0389
 21
2453.6513
 31
0
  0
LINE
  8
_0-0_
 62
3
 10
2443.0389
 20
2453.6513
 30
0
 11
2446.235
 21
2451.4913
 31
0
  0
LINE
  8
_0-0_
 62
3
 10
2412.4399
 20
2453.6513
 30
0
 11
2409.2349
 21
2451.4913
 31
0
  0
LINE
  8
_0-0_
 62
3
 10
2418.5079
 20
2451.4913
 30
0
 11
2418.5079
 21
2435.8224
 31
0
  0
LINE
  8
_0-0_
 62
3
 10
2415.2939
 20
2453.6513
 30
0
 11
2418.5079
 21
2451.4913
 31
0
  0
LINE
  8
_0-0_
 62
3
 10
2421.704
 20
2453.6513
 30
0
 11
2418.5079
 21
2451.4913
 31
0
  0
LINE
  8
_0-0_
 62
3
 10
2436.9709
 20
2451.4913
 30
0
 11
2436.9709
 21
2435.8224
 31
0
  0
LINE
  8
_0-0_
 62
3
 10
2440.176
 20
2453.6513
 30
0
 11
2436.9709
 21
2451.4913
 31
0
  0
LINE
  8
_0-0_
 62
3
 10
2433.775
 20
2453.6513
 30
0
 11
2436.9709
 21
2451.4913
 31
0
  0
LINE
  8
_0-0_
 62
3
 10
2443.0389
 20
2433.6513
 30
0
 11
2446.235
 21
2435.8224
 31
0
  0
LINE
  8
_0-0_
 62
3
 10
2412.4399
 20
2433.6513
 30
0
 11
2409.2349
 21
2435.8224
 31
0
  0
LINE
  8
_0-0_
 62
3
 10
2415.2939
 20
2433.6513
 30
0
 11
2418.5079
 21
2435.8224
 31
0
  0
LINE
  8
_0-0_
 62
3
 10
2421.704
 20
2433.6513
 30
0
 11
2418.5079
 21
2435.8224
 31
0
  0
LINE
  8
_0-0_
 62
3
 10
2440.176
 20
2433.6513
 30
0
 11
2436.9709
 21
2435.8224
 31
0
  0
LINE
  8
_0-0_
 62
3
 10
2433.775
 20
2433.6513
 30
0
 11
2436.9709
 21
2435.8224
 31
0
  0
LINE
  8
_0-0_
 62
4
 10
2417.155
 20
2422.0214
 30
0
 11
2437.155
 21
2425.6614
 31
0
  0
LINE
  8
_0-0_
 62
4
 10
2417.155
 20
2425.6114
 30
0
 11
2437.155
 21
2429.2514
 31
0
  0
LINE
  8
_0-0_
 62
4
 10
2417.155
 20
2429.6013
 30
0
 11
2434.336
 21
2432.7213
 31
0
  0
LINE
  8
_0-0_
 62
3
 10
2437.155
 20
2422.0214
 30
0
 11
2437.155
 21
2433.6513
 31
0
  0
LINE
  8
_0-0_
 62
3
 10
2417.155
 20
2422.0214
 30
0
 11
2417.155
 21
2433.6513
 31
0
  0
LINE
  8
_0-0_
 62
3
 10
2437.155
 20
2422.0214
 30
0
 11
2417.155
 21
2422.0214
 31
0
  0
LINE
  8
_0-0_
 62
3
 10
2407.7399
 20
2458.1513
 30
0
 11
2447.74
 21
2458.1513
 31
0
  0
LINE
  8
_0-0_
 62
3
 10
2447.74
 20
2458.1513
 30
0
 11
2447.74
 21
2453.6513
 31
0
  0
LINE
  8
_0-0_
 62
3
 10
2447.74
 20
2453.6513
 30
0
 11
2407.7399
 21
2453.6513
 31
0
  0
LINE
  8
_0-0_
 62
3
 10
2407.7399
 20
2453.6513
 30
0
 11
2407.7399
 21
2458.1513
 31
0
  0
LINE
  8
_0-0_
 62
3
 10
2447.235
 20
2498.1514
 30
0
 11
2408.2349
 21
2498.1514
 31
0
  0
LINE
  8
_0-0_
 62
3
 10
2440.8879
 20
2511.1514
 30
0
 11
2414.582
 21
2511.1514
 31
0
  0
LINE
  8
_0-0_
 62
3
 10
2447.235
 20
2498.1514
 30
0
 11
2447.1358
 21
2499.8779
 31
0
  0
LINE
  8
_0-0_
 62
3
 10
2447.1358
 20
2499.8779
 30
0
 11
2446.8383
 21
2501.5753
 31
0
  0
LINE
  8
_0-0_
 62
3
 10
2446.8383
 20
2501.5753
 30
0
 11
2446.3424
 21
2503.2439
 31
0
  0
LINE
  8
_0-0_
 62
3
 10
2446.3424
 20
2503.2439
 30
0
 11
2445.6481
 21
2504.8834
 31
0
  0
LINE
  8
_0-0_
 62
3
 10
2445.6481
 20
2504.8834
 30
0
 11
2444.7556
 21
2506.4939
 31
0
  0
LINE
  8
_0-0_
 62
3
 10
2444.7556
 20
2506.4939
 30
0
 11
2443.6648
 21
2508.0753
 31
0
  0
LINE
  8
_0-0_
 62
3
 10
2443.6648
 20
2508.0753
 30
0
 11
2442.3756
 21
2509.6279
 31
0
  0
LINE
  8
_0-0_
 62
3
 10
2442.3756
 20
2509.6279
 30
0
 11
2440.8879
 21
2511.1514
 31
0
  0
LINE
  8
_0-0_
 62
3
 10
2408.2349
 20
2498.1514
 30
0
 11
2408.3341
 21
2499.8779
 31
0
  0
LINE
  8
_0-0_
 62
3
 10
2408.3341
 20
2499.8779
 30
0
 11
2408.6316
 21
2501.5753
 31
0
  0
LINE
  8
_0-0_
 62
3
 10
2408.6316
 20
2501.5753
 30
0
 11
2409.1275
 21
2503.2439
 31
0
  0
LINE
  8
_0-0_
 62
3
 10
2409.1275
 20
2503.2439
 30
0
 11
2409.8218
 21
2504.8834
 31
0
  0
LINE
  8
_0-0_
 62
3
 10
2409.8218
 20
2504.8834
 30
0
 11
2410.7143
 21
2506.4939
 31
0
  0
LINE
  8
_0-0_
 62
3
 10
2410.7143
 20
2506.4939
 30
0
 11
2411.8051
 21
2508.0753
 31
0
  0
LINE
  8
_0-0_
 62
3
 10
2411.8051
 20
2508.0753
 30
0
 11
2413.0943
 21
2509.6279
 31
0
  0
LINE
  8
_0-0_
 62
3
 10
2413.0943
 20
2509.6279
 30
0
 11
2414.582
 21
2511.1514
 31
0
  0
LINE
  8
_0-0_
 62
4
 10
2437.74
 20
2458.1513
 30
0
 11
2437.74
 21
2498.1514
 31
0
  0
LINE
  8
_0-0_
 62
4
 10
2417.7399
 20
2458.1513
 30
0
 11
2417.7399
 21
2498.1514
 31
0
  0
LINE
  8
_0-0_
 62
3
 10
2292.4399
 20
3106.6515
 30
0
 11
2323.0389
 21
3106.6515
 31
0
  0
LINE
  8
_0-0_
 62
3
 10
2326.235
 20
3088.8113
 30
0
 11
2326.235
 21
3104.4804
 31
0
  0
LINE
  8
_0-0_
 62
3
 10
2289.2349
 20
3088.8113
 30
0
 11
2289.2349
 21
3104.4804
 31
0
  0
LINE
  8
_0-0_
 62
3
 10
2292.4399
 20
3086.6514
 30
0
 11
2323.0389
 21
3086.6514
 31
0
  0
LINE
  8
_0-0_
 62
3
 10
2323.0389
 20
3086.6514
 30
0
 11
2326.235
 21
3088.8113
 31
0
  0
LINE
  8
_0-0_
 62
3
 10
2292.4399
 20
3086.6514
 30
0
 11
2289.2349
 21
3088.8113
 31
0
  0
LINE
  8
_0-0_
 62
3
 10
2298.5079
 20
3088.8113
 30
0
 11
2298.5079
 21
3104.4804
 31
0
  0
LINE
  8
_0-0_
 62
3
 10
2295.294
 20
3086.6514
 30
0
 11
2298.5079
 21
3088.8113
 31
0
  0
LINE
  8
_0-0_
 62
3
 10
2301.704
 20
3086.6514
 30
0
 11
2298.5079
 21
3088.8113
 31
0
  0
LINE
  8
_0-0_
 62
3
 10
2316.9709
 20
3088.8113
 30
0
 11
2316.9709
 21
3104.4804
 31
0
  0
LINE
  8
_0-0_
 62
3
 10
2320.176
 20
3086.6514
 30
0
 11
2316.9709
 21
3088.8113
 31
0
  0
LINE
  8
_0-0_
 62
3
 10
2313.775
 20
3086.6514
 30
0
 11
2316.9709
 21
3088.8113
 31
0
  0
LINE
  8
_0-0_
 62
3
 10
2323.0389
 20
3106.6515
 30
0
 11
2326.235
 21
3104.4804
 31
0
  0
LINE
  8
_0-0_
 62
3
 10
2292.4399
 20
3106.6515
 30
0
 11
2289.2349
 21
3104.4804
 31
0
  0
LINE
  8
_0-0_
 62
3
 10
2295.294
 20
3106.6515
 30
0
 11
2298.5079
 21
3104.4804
 31
0
  0
LINE
  8
_0-0_
 62
3
 10
2301.704
 20
3106.6515
 30
0
 11
2298.5079
 21
3104.4804
 31
0
  0
LINE
  8
_0-0_
 62
3
 10
2320.176
 20
3106.6515
 30
0
 11
2316.9709
 21
3104.4804
 31
0
  0
LINE
  8
_0-0_
 62
3
 10
2313.775
 20
3106.6515
 30
0
 11
2316.9709
 21
3104.4804
 31
0
  0
LINE
  8
_0-0_
 62
4
 10
2297.155
 20
3118.2814
 30
0
 11
2317.155
 21
3114.6412
 31
0
  0
LINE
  8
_0-0_
 62
4
 10
2297.155
 20
3114.6912
 30
0
 11
2317.155
 21
3111.0514
 31
0
  0
LINE
  8
_0-0_
 62
4
 10
2297.155
 20
3110.7014
 30
0
 11
2314.336
 21
3107.5813
 31
0
  0
LINE
  8
_0-0_
 62
3
 10
2317.155
 20
3118.2814
 30
0
 11
2317.155
 21
3106.6515
 31
0
  0
LINE
  8
_0-0_
 62
3
 10
2297.155
 20
3118.2814
 30
0
 11
2297.155
 21
3106.6515
 31
0
  0
LINE
  8
_0-0_
 62
3
 10
2317.155
 20
3118.2814
 30
0
 11
2297.155
 21
3118.2814
 31
0
  0
LINE
  8
_0-0_
 62
3
 10
2287.7399
 20
3086.6514
 30
0
 11
2327.74
 21
3086.6514
 31
0
  0
LINE
  8
_0-0_
 62
3
 10
2327.74
 20
3086.6514
 30
0
 11
2327.74
 21
3082.1514
 31
0
  0
LINE
  8
_0-0_
 62
3
 10
2327.74
 20
3082.1514
 30
0
 11
2287.7399
 21
3082.1514
 31
0
  0
LINE
  8
_0-0_
 62
3
 10
2287.7399
 20
3082.1514
 30
0
 11
2287.7399
 21
3086.6514
 31
0
  0
LINE
  8
_0-0_
 62
3
 10
2327.235
 20
3042.1514
 30
0
 11
2288.2349
 21
3042.1514
 31
0
  0
LINE
  8
_0-0_
 62
3
 10
2320.8879
 20
3029.1514
 30
0
 11
2294.582
 21
3029.1514
 31
0
  0
LINE
  8
_0-0_
 62
3
 10
2327.235
 20
3042.1514
 30
0
 11
2327.1358
 21
3040.4247
 31
0
  0
LINE
  8
_0-0_
 62
3
 10
2327.1358
 20
3040.4247
 30
0
 11
2326.8383
 21
3038.7274
 31
0
  0
LINE
  8
_0-0_
 62
3
 10
2326.8383
 20
3038.7274
 30
0
 11
2326.3424
 21
3037.0589
 31
0
  0
LINE
  8
_0-0_
 62
3
 10
2326.3424
 20
3037.0589
 30
0
 11
2325.6481
 21
3035.4194
 31
0
  0
LINE
  8
_0-0_
 62
3
 10
2325.6481
 20
3035.4194
 30
0
 11
2324.7556
 21
3033.8089
 31
0
  0
LINE
  8
_0-0_
 62
3
 10
2324.7556
 20
3033.8089
 30
0
 11
2323.6648
 21
3032.2275
 31
0
  0
LINE
  8
_0-0_
 62
3
 10
2323.6648
 20
3032.2275
 30
0
 11
2322.3756
 21
3030.6747
 31
0
  0
LINE
  8
_0-0_
 62
3
 10
2322.3756
 20
3030.6747
 30
0
 11
2320.8879
 21
3029.1514
 31
0
  0
LINE
  8
_0-0_
 62
3
 10
2288.2349
 20
3042.1514
 30
0
 11
2288.3341
 21
3040.4247
 31
0
  0
LINE
  8
_0-0_
 62
3
 10
2288.3341
 20
3040.4247
 30
0
 11
2288.6316
 21
3038.7274
 31
0
  0
LINE
  8
_0-0_
 62
3
 10
2288.6316
 20
3038.7274
 30
0
 11
2289.1275
 21
3037.0589
 31
0
  0
LINE
  8
_0-0_
 62
3
 10
2289.1275
 20
3037.0589
 30
0
 11
2289.8218
 21
3035.4194
 31
0
  0
LINE
  8
_0-0_
 62
3
 10
2289.8218
 20
3035.4194
 30
0
 11
2290.7143
 21
3033.8089
 31
0
  0
LINE
  8
_0-0_
 62
3
 10
2290.7143
 20
3033.8089
 30
0
 11
2291.8051
 21
3032.2275
 31
0
  0
LINE
  8
_0-0_
 62
3
 10
2291.8051
 20
3032.2275
 30
0
 11
2293.0943
 21
3030.6747
 31
0
  0
LINE
  8
_0-0_
 62
3
 10
2293.0943
 20
3030.6747
 30
0
 11
2294.582
 21
3029.1514
 31
0
  0
LINE
  8
_0-0_
 62
4
 10
2317.74
 20
3082.1514
 30
0
 11
2317.74
 21
3042.1514
 31
0
  0
LINE
  8
_0-0_
 62
4
 10
2297.7399
 20
3082.1514
 30
0
 11
2297.7399
 21
3042.1514
 31
0
  0
LINE
  8
_0-0_
 62
3
 10
2412.4399
 20
3106.6515
 30
0
 11
2443.0389
 21
3106.6515
 31
0
  0
LINE
  8
_0-0_
 62
3
 10
2446.235
 20
3088.8113
 30
0
 11
2446.235
 21
3104.4804
 31
0
  0
LINE
  8
_0-0_
 62
3
 10
2409.2349
 20
3088.8113
 30
0
 11
2409.2349
 21
3104.4804
 31
0
  0
LINE
  8
_0-0_
 62
3
 10
2412.4399
 20
3086.6514
 30
0
 11
2443.0389
 21
3086.6514
 31
0
  0
LINE
  8
_0-0_
 62
3
 10
2443.0389
 20
3086.6514
 30
0
 11
2446.235
 21
3088.8113
 31
0
  0
LINE
  8
_0-0_
 62
3
 10
2412.4399
 20
3086.6514
 30
0
 11
2409.2349
 21
3088.8113
 31
0
  0
LINE
  8
_0-0_
 62
3
 10
2418.5079
 20
3088.8113
 30
0
 11
2418.5079
 21
3104.4804
 31
0
  0
LINE
  8
_0-0_
 62
3
 10
2415.2939
 20
3086.6514
 30
0
 11
2418.5079
 21
3088.8113
 31
0
  0
LINE
  8
_0-0_
 62
3
 10
2421.704
 20
3086.6514
 30
0
 11
2418.5079
 21
3088.8113
 31
0
  0
LINE
  8
_0-0_
 62
3
 10
2436.9709
 20
3088.8113
 30
0
 11
2436.9709
 21
3104.4804
 31
0
  0
LINE
  8
_0-0_
 62
3
 10
2440.176
 20
3086.6514
 30
0
 11
2436.9709
 21
3088.8113
 31
0
  0
LINE
  8
_0-0_
 62
3
 10
2433.775
 20
3086.6514
 30
0
 11
2436.9709
 21
3088.8113
 31
0
  0
LINE
  8
_0-0_
 62
3
 10
2443.0389
 20
3106.6515
 30
0
 11
2446.235
 21
3104.4804
 31
0
  0
LINE
  8
_0-0_
 62
3
 10
2412.4399
 20
3106.6515
 30
0
 11
2409.2349
 21
3104.4804
 31
0
  0
LINE
  8
_0-0_
 62
3
 10
2415.2939
 20
3106.6515
 30
0
 11
2418.5079
 21
3104.4804
 31
0
  0
LINE
  8
_0-0_
 62
3
 10
2421.704
 20
3106.6515
 30
0
 11
2418.5079
 21
3104.4804
 31
0
  0
LINE
  8
_0-0_
 62
3
 10
2440.176
 20
3106.6515
 30
0
 11
2436.9709
 21
3104.4804
 31
0
  0
LINE
  8
_0-0_
 62
3
 10
2433.775
 20
3106.6515
 30
0
 11
2436.9709
 21
3104.4804
 31
0
  0
LINE
  8
_0-0_
 62
4
 10
2417.155
 20
3118.2814
 30
0
 11
2437.155
 21
3114.6412
 31
0
  0
LINE
  8
_0-0_
 62
4
 10
2417.155
 20
3114.6912
 30
0
 11
2437.155
 21
3111.0514
 31
0
  0
LINE
  8
_0-0_
 62
4
 10
2417.155
 20
3110.7014
 30
0
 11
2434.336
 21
3107.5813
 31
0
  0
LINE
  8
_0-0_
 62
3
 10
2437.155
 20
3118.2814
 30
0
 11
2437.155
 21
3106.6515
 31
0
  0
LINE
  8
_0-0_
 62
3
 10
2417.155
 20
3118.2814
 30
0
 11
2417.155
 21
3106.6515
 31
0
  0
LINE
  8
_0-0_
 62
3
 10
2437.155
 20
3118.2814
 30
0
 11
2417.155
 21
3118.2814
 31
0
  0
LINE
  8
_0-0_
 62
3
 10
2407.7399
 20
3086.6514
 30
0
 11
2447.74
 21
3086.6514
 31
0
  0
LINE
  8
_0-0_
 62
3
 10
2447.74
 20
3086.6514
 30
0
 11
2447.74
 21
3082.1514
 31
0
  0
LINE
  8
_0-0_
 62
3
 10
2447.74
 20
3082.1514
 30
0
 11
2407.7399
 21
3082.1514
 31
0
  0
LINE
  8
_0-0_
 62
3
 10
2407.7399
 20
3082.1514
 30
0
 11
2407.7399
 21
3086.6514
 31
0
  0
LINE
  8
_0-0_
 62
3
 10
2447.235
 20
3042.1514
 30
0
 11
2408.2349
 21
3042.1514
 31
0
  0
LINE
  8
_0-0_
 62
3
 10
2440.8879
 20
3029.1514
 30
0
 11
2414.582
 21
3029.1514
 31
0
  0
LINE
  8
_0-0_
 62
3
 10
2447.235
 20
3042.1514
 30
0
 11
2447.1358
 21
3040.4247
 31
0
  0
LINE
  8
_0-0_
 62
3
 10
2447.1358
 20
3040.4247
 30
0
 11
2446.8383
 21
3038.7274
 31
0
  0
LINE
  8
_0-0_
 62
3
 10
2446.8383
 20
3038.7274
 30
0
 11
2446.3424
 21
3037.0589
 31
0
  0
LINE
  8
_0-0_
 62
3
 10
2446.3424
 20
3037.0589
 30
0
 11
2445.6481
 21
3035.4194
 31
0
  0
LINE
  8
_0-0_
 62
3
 10
2445.6481
 20
3035.4194
 30
0
 11
2444.7556
 21
3033.8089
 31
0
  0
LINE
  8
_0-0_
 62
3
 10
2444.7556
 20
3033.8089
 30
0
 11
2443.6648
 21
3032.2275
 31
0
  0
LINE
  8
_0-0_
 62
3
 10
2443.6648
 20
3032.2275
 30
0
 11
2442.3756
 21
3030.6747
 31
0
  0
LINE
  8
_0-0_
 62
3
 10
2442.3756
 20
3030.6747
 30
0
 11
2440.8879
 21
3029.1514
 31
0
  0
LINE
  8
_0-0_
 62
3
 10
2408.2349
 20
3042.1514
 30
0
 11
2408.3341
 21
3040.4247
 31
0
  0
LINE
  8
_0-0_
 62
3
 10
2408.3341
 20
3040.4247
 30
0
 11
2408.6316
 21
3038.7274
 31
0
  0
LINE
  8
_0-0_
 62
3
 10
2408.6316
 20
3038.7274
 30
0
 11
2409.1275
 21
3037.0589
 31
0
  0
LINE
  8
_0-0_
 62
3
 10
2409.1275
 20
3037.0589
 30
0
 11
2409.8218
 21
3035.4194
 31
0
  0
LINE
  8
_0-0_
 62
3
 10
2409.8218
 20
3035.4194
 30
0
 11
2410.7143
 21
3033.8089
 31
0
  0
LINE
  8
_0-0_
 62
3
 10
2410.7143
 20
3033.8089
 30
0
 11
2411.8051
 21
3032.2275
 31
0
  0
LINE
  8
_0-0_
 62
3
 10
2411.8051
 20
3032.2275
 30
0
 11
2413.0943
 21
3030.6747
 31
0
  0
LINE
  8
_0-0_
 62
3
 10
2413.0943
 20
3030.6747
 30
0
 11
2414.582
 21
3029.1514
 31
0
  0
LINE
  8
_0-0_
 62
4
 10
2437.74
 20
3082.1514
 30
0
 11
2437.74
 21
3042.1514
 31
0
  0
LINE
  8
_0-0_
 62
4
 10
2417.7399
 20
3082.1514
 30
0
 11
2417.7399
 21
3042.1514
 31
0
  0
LINE
  8
_0-0_
 62
3
 10
2387.7399
 20
3054.1512
 30
0
 11
2467.74
 21
3054.1512
 31
0
  0
LINE
  8
_0-0_
 62
3
 10
2467.74
 20
3054.1512
 30
0
 11
2467.74
 21
3042.1514
 31
0
  0
LINE
  8
_0-0_
 62
3
 10
2467.74
 20
3042.1514
 30
0
 11
2387.7399
 21
3042.1514
 31
0
  0
LINE
  8
_0-0_
 62
3
 10
2387.7399
 20
3042.1514
 30
0
 11
2387.7399
 21
3054.1512
 31
0
  0
LINE
  8
_0-0_
 62
2
 10
2267.7399
 20
3070.1513
 30
0
 11
2467.74
 21
3070.1513
 31
0
  0
LINE
  8
_0-0_
 62
2
 10
2267.7399
 20
3054.1512
 30
0
 11
2349.74
 21
3054.1512
 31
0
  0
LINE
  8
_0-0_
 62
2
 10
2385.7399
 20
3054.1512
 30
0
 11
2467.74
 21
3054.1512
 31
0
  0
LINE
  8
_0-0_
 62
2
 10
2267.7399
 20
3070.1513
 30
0
 11
2267.7399
 21
3054.1512
 31
0
  0
LINE
  8
_0-0_
 62
2
 10
2467.74
 20
3070.1513
 30
0
 11
2467.74
 21
3054.1512
 31
0
  0
LINE
  8
_0-0_
 62
2
 10
2362.7399
 20
3041.1512
 30
0
 11
2362.7399
 21
2499.1514
 31
0
  0
LINE
  8
_0-0_
 62
2
 10
2372.74
 20
3041.1512
 30
0
 11
2372.74
 21
2499.1514
 31
0
  0
LINE
  8
_0-0_
 62
2
 10
2267.7399
 20
2470.1513
 30
0
 11
2467.74
 21
2470.1513
 31
0
  0
LINE
  8
_0-0_
 62
2
 10
2267.7399
 20
2486.1514
 30
0
 11
2349.74
 21
2486.1514
 31
0
  0
LINE
  8
_0-0_
 62
2
 10
2385.7399
 20
2486.1514
 30
0
 11
2467.74
 21
2486.1514
 31
0
  0
LINE
  8
_0-0_
 62
2
 10
2267.7399
 20
2470.1513
 30
0
 11
2267.7399
 21
2486.1514
 31
0
  0
LINE
  8
_0-0_
 62
2
 10
2467.74
 20
2470.1513
 30
0
 11
2467.74
 21
2486.1514
 31
0
  0
LINE
  8
_0-0_
 62
4
 10
2547.6229
 20
2990.1515
 30
0
 11
2547.6229
 21
2950.1515
 31
0
  0
LINE
  8
_0-0_
 62
4
 10
2547.6229
 20
2590.1513
 30
0
 11
2547.6229
 21
2550.1513
 31
0
  0
LINE
  8
_0-0_
 62
4
 10
2501.6229
 20
2990.1515
 30
0
 11
2607.4929
 21
2990.1515
 31
0
  0
LINE
  8
_0-0_
 62
4
 10
2597.6229
 20
2990.1515
 30
0
 11
2597.6229
 21
2550.1513
 31
0
  0
LINE
  8
_0-0_
 62
4
 10
2501.6229
 20
2550.1513
 30
0
 11
2607.4929
 21
2550.1513
 31
0
  0
LINE
  8
_0-0_
 62
4
 10
2330.05
 20
2950.1515
 30
0
 11
2512.6229
 21
2950.1515
 31
0
  0
LINE
  8
_0-0_
 62
4
 10
2501.6229
 20
2950.1515
 30
0
 11
2558.6229
 21
2950.1515
 31
0
  0
LINE
  8
_0-0_
 62
4
 10
2330.05
 20
2590.1513
 30
0
 11
2512.6229
 21
2590.1513
 31
0
  0
LINE
  8
_0-0_
 62
4
 10
2501.6229
 20
2590.1513
 30
0
 11
2558.6229
 21
2590.1513
 31
0
  0
LINE
  8
_0-0_
 62
4
 10
2330.05
 20
2550.1513
 30
0
 11
2512.6229
 21
2550.1513
 31
0
  0
LINE
  8
_0-0_
 62
4
 10
2330.05
 20
2990.1515
 30
0
 11
2512.6229
 21
2990.1515
 31
0
  0
LINE
  8
_0-0_
 62
4
 10
2540.093
 20
3030.1078
 30
0
 11
2476.157
 21
3030.1078
 31
0
  0
LINE
  8
_0-0_
 62
4
 10
2476.157
 20
3030.1078
 30
0
 11
2398.3033
 21
2952.2543
 31
0
  0
LINE
  8
_0-0_
 62
4
 10
2330.05
 20
2830.1513
 30
0
 11
2512.6229
 21
2830.1513
 31
0
  0
LINE
  8
_0-0_
 62
4
 10
2501.6229
 20
2830.1513
 30
0
 11
2558.6229
 21
2830.1513
 31
0
  0
LINE
  8
_0-0_
 62
4
 10
2547.6229
 20
2710.1513
 30
0
 11
2547.6229
 21
2830.1513
 31
0
  0
LINE
  8
_0-0_
 62
4
 10
2547.6229
 20
2830.1513
 30
0
 11
2547.6229
 21
2950.1515
 31
0
  0
LINE
  8
_0-0_
 62
3
 10
2405.7399
 20
2965.4509
 30
0
 11
2405.7399
 21
2934.8518
 31
0
  0
LINE
  8
_0-0_
 62
3
 10
2387.9
 20
2931.6559
 30
0
 11
2403.569
 21
2931.6559
 31
0
  0
LINE
  8
_0-0_
 62
3
 10
2387.9
 20
2968.6558
 30
0
 11
2403.569
 21
2968.6558
 31
0
  0
LINE
  8
_0-0_
 62
3
 10
2385.7399
 20
2965.4509
 30
0
 11
2385.7399
 21
2934.8518
 31
0
  0
LINE
  8
_0-0_
 62
3
 10
2385.7399
 20
2934.8518
 30
0
 11
2387.9
 21
2931.6559
 31
0
  0
LINE
  8
_0-0_
 62
3
 10
2385.7399
 20
2965.4509
 30
0
 11
2387.9
 21
2968.6558
 31
0
  0
LINE
  8
_0-0_
 62
3
 10
2387.9
 20
2959.3828
 30
0
 11
2403.569
 21
2959.3828
 31
0
  0
LINE
  8
_0-0_
 62
3
 10
2385.7399
 20
2962.5967
 30
0
 11
2387.9
 21
2959.3828
 31
0
  0
LINE
  8
_0-0_
 62
3
 10
2385.7399
 20
2956.1867
 30
0
 11
2387.9
 21
2959.3828
 31
0
  0
LINE
  8
_0-0_
 62
3
 10
2387.9
 20
2940.9198
 30
0
 11
2403.569
 21
2940.9198
 31
0
  0
LINE
  8
_0-0_
 62
3
 10
2385.7399
 20
2937.7149
 30
0
 11
2387.9
 21
2940.9198
 31
0
  0
LINE
  8
_0-0_
 62
3
 10
2385.7399
 20
2944.1159
 30
0
 11
2387.9
 21
2940.9198
 31
0
  0
LINE
  8
_0-0_
 62
3
 10
2405.7399
 20
2934.8518
 30
0
 11
2403.569
 21
2931.6559
 31
0
  0
LINE
  8
_0-0_
 62
3
 10
2405.7399
 20
2965.4509
 30
0
 11
2403.569
 21
2968.6558
 31
0
  0
LINE
  8
_0-0_
 62
3
 10
2405.7399
 20
2962.5967
 30
0
 11
2403.569
 21
2959.3828
 31
0
  0
LINE
  8
_0-0_
 62
3
 10
2405.7399
 20
2956.1867
 30
0
 11
2403.569
 21
2959.3828
 31
0
  0
LINE
  8
_0-0_
 62
3
 10
2405.7399
 20
2937.7149
 30
0
 11
2403.569
 21
2940.9198
 31
0
  0
LINE
  8
_0-0_
 62
3
 10
2405.7399
 20
2944.1159
 30
0
 11
2403.569
 21
2940.9198
 31
0
  0
LINE
  8
_0-0_
 62
4
 10
2417.37
 20
2960.7357
 30
0
 11
2413.73
 21
2940.7357
 31
0
  0
LINE
  8
_0-0_
 62
4
 10
2413.7799
 20
2960.7357
 30
0
 11
2410.1399
 21
2940.7357
 31
0
  0
LINE
  8
_0-0_
 62
4
 10
2409.7899
 20
2960.7357
 30
0
 11
2406.6699
 21
2943.5549
 31
0
  0
LINE
  8
_0-0_
 62
3
 10
2417.37
 20
2940.7357
 30
0
 11
2405.7399
 21
2940.7357
 31
0
  0
LINE
  8
_0-0_
 62
3
 10
2417.37
 20
2960.7357
 30
0
 11
2405.7399
 21
2960.7357
 31
0
  0
LINE
  8
_0-0_
 62
3
 10
2417.37
 20
2940.7357
 30
0
 11
2417.37
 21
2960.7357
 31
0
  0
LINE
  8
_0-0_
 62
3
 10
2381.2399
 20
2970.1508
 30
0
 11
2385.7399
 21
2970.1508
 31
0
  0
LINE
  8
_0-0_
 62
3
 10
2385.7399
 20
2970.1508
 30
0
 11
2385.7399
 21
2930.1509
 31
0
  0
LINE
  8
_0-0_
 62
3
 10
2385.7399
 20
2930.1509
 30
0
 11
2381.2399
 21
2930.1509
 31
0
  0
LINE
  8
_0-0_
 62
3
 10
2381.2399
 20
2930.1509
 30
0
 11
2381.2399
 21
2970.1508
 31
0
  0
LINE
  8
_0-0_
 62
3
 10
2354.24
 20
2930.6559
 30
0
 11
2354.24
 21
2969.6559
 31
0
  0
LINE
  8
_0-0_
 62
3
 10
2341.24
 20
2937.0028
 30
0
 11
2341.24
 21
2963.3089
 31
0
  0
LINE
  8
_0-0_
 62
3
 10
2354.24
 20
2930.6559
 30
0
 11
2352.5135
 21
2930.7551
 31
0
  0
LINE
  8
_0-0_
 62
3
 10
2352.5135
 20
2930.7551
 30
0
 11
2350.8159
 21
2931.0525
 31
0
  0
LINE
  8
_0-0_
 62
3
 10
2350.8159
 20
2931.0525
 30
0
 11
2349.1475
 21
2931.5484
 31
0
  0
LINE
  8
_0-0_
 62
3
 10
2349.1475
 20
2931.5484
 30
0
 11
2347.508
 21
2932.2426
 31
0
  0
LINE
  8
_0-0_
 62
3
 10
2347.508
 20
2932.2426
 30
0
 11
2345.8975
 21
2933.1351
 31
0
  0
LINE
  8
_0-0_
 62
3
 10
2345.8975
 20
2933.1351
 30
0
 11
2344.3159
 21
2934.2261
 31
0
  0
LINE
  8
_0-0_
 62
3
 10
2344.3159
 20
2934.2261
 30
0
 11
2342.7635
 21
2935.5153
 31
0
  0
LINE
  8
_0-0_
 62
3
 10
2342.7635
 20
2935.5153
 30
0
 11
2341.24
 21
2937.0028
 31
0
  0
LINE
  8
_0-0_
 62
3
 10
2354.24
 20
2969.6559
 30
0
 11
2352.5135
 21
2969.5566
 31
0
  0
LINE
  8
_0-0_
 62
3
 10
2352.5135
 20
2969.5566
 30
0
 11
2350.8159
 21
2969.2591
 31
0
  0
LINE
  8
_0-0_
 62
3
 10
2350.8159
 20
2969.2591
 30
0
 11
2349.1475
 21
2968.7632
 31
0
  0
LINE
  8
_0-0_
 62
3
 10
2349.1475
 20
2968.7632
 30
0
 11
2347.508
 21
2968.0689
 31
0
  0
LINE
  8
_0-0_
 62
3
 10
2347.508
 20
2968.0689
 30
0
 11
2345.8975
 21
2967.1765
 31
0
  0
LINE
  8
_0-0_
 62
3
 10
2345.8975
 20
2967.1765
 30
0
 11
2344.3159
 21
2966.0858
 31
0
  0
LINE
  8
_0-0_
 62
3
 10
2344.3159
 20
2966.0858
 30
0
 11
2342.7635
 21
2964.7965
 31
0
  0
LINE
  8
_0-0_
 62
3
 10
2342.7635
 20
2964.7965
 30
0
 11
2341.24
 21
2963.3089
 31
0
  0
LINE
  8
_0-0_
 62
4
 10
2381.2399
 20
2940.1509
 30
0
 11
2354.24
 21
2940.1509
 31
0
  0
LINE
  8
_0-0_
 62
4
 10
2381.2399
 20
2960.1509
 30
0
 11
2354.24
 21
2960.1509
 31
0
  0
LINE
  8
_0-0_
 62
3
 10
2405.7399
 20
2845.4508
 30
0
 11
2405.7399
 21
2814.8518
 31
0
  0
LINE
  8
_0-0_
 62
3
 10
2387.9
 20
2811.6559
 30
0
 11
2403.569
 21
2811.6559
 31
0
  0
LINE
  8
_0-0_
 62
3
 10
2387.9
 20
2848.6558
 30
0
 11
2403.569
 21
2848.6558
 31
0
  0
LINE
  8
_0-0_
 62
3
 10
2385.7399
 20
2845.4508
 30
0
 11
2385.7399
 21
2814.8518
 31
0
  0
LINE
  8
_0-0_
 62
3
 10
2385.7399
 20
2814.8518
 30
0
 11
2387.9
 21
2811.6559
 31
0
  0
LINE
  8
_0-0_
 62
3
 10
2385.7399
 20
2845.4508
 30
0
 11
2387.9
 21
2848.6558
 31
0
  0
LINE
  8
_0-0_
 62
3
 10
2387.9
 20
2839.3828
 30
0
 11
2403.569
 21
2839.3828
 31
0
  0
LINE
  8
_0-0_
 62
3
 10
2385.7399
 20
2842.5968
 30
0
 11
2387.9
 21
2839.3828
 31
0
  0
LINE
  8
_0-0_
 62
3
 10
2385.7399
 20
2836.1869
 30
0
 11
2387.9
 21
2839.3828
 31
0
  0
LINE
  8
_0-0_
 62
3
 10
2387.9
 20
2820.9198
 30
0
 11
2403.569
 21
2820.9198
 31
0
  0
LINE
  8
_0-0_
 62
3
 10
2385.7399
 20
2817.7149
 30
0
 11
2387.9
 21
2820.9198
 31
0
  0
LINE
  8
_0-0_
 62
3
 10
2385.7399
 20
2824.1159
 30
0
 11
2387.9
 21
2820.9198
 31
0
  0
LINE
  8
_0-0_
 62
3
 10
2405.7399
 20
2814.8518
 30
0
 11
2403.569
 21
2811.6559
 31
0
  0
LINE
  8
_0-0_
 62
3
 10
2405.7399
 20
2845.4508
 30
0
 11
2403.569
 21
2848.6558
 31
0
  0
LINE
  8
_0-0_
 62
3
 10
2405.7399
 20
2842.5968
 30
0
 11
2403.569
 21
2839.3828
 31
0
  0
LINE
  8
_0-0_
 62
3
 10
2405.7399
 20
2836.1869
 30
0
 11
2403.569
 21
2839.3828
 31
0
  0
LINE
  8
_0-0_
 62
3
 10
2405.7399
 20
2817.7149
 30
0
 11
2403.569
 21
2820.9198
 31
0
  0
LINE
  8
_0-0_
 62
3
 10
2405.7399
 20
2824.1159
 30
0
 11
2403.569
 21
2820.9198
 31
0
  0
LINE
  8
_0-0_
 62
4
 10
2417.37
 20
2840.7359
 30
0
 11
2413.73
 21
2820.7359
 31
0
  0
LINE
  8
_0-0_
 62
4
 10
2413.7799
 20
2840.7359
 30
0
 11
2410.1399
 21
2820.7359
 31
0
  0
LINE
  8
_0-0_
 62
4
 10
2409.7899
 20
2840.7359
 30
0
 11
2406.6699
 21
2823.5549
 31
0
  0
LINE
  8
_0-0_
 62
3
 10
2417.37
 20
2820.7359
 30
0
 11
2405.7399
 21
2820.7359
 31
0
  0
LINE
  8
_0-0_
 62
3
 10
2417.37
 20
2840.7359
 30
0
 11
2405.7399
 21
2840.7359
 31
0
  0
LINE
  8
_0-0_
 62
3
 10
2417.37
 20
2820.7359
 30
0
 11
2417.37
 21
2840.7359
 31
0
  0
LINE
  8
_0-0_
 62
3
 10
2381.2399
 20
2850.1508
 30
0
 11
2385.7399
 21
2850.1508
 31
0
  0
LINE
  8
_0-0_
 62
3
 10
2385.7399
 20
2850.1508
 30
0
 11
2385.7399
 21
2810.1509
 31
0
  0
LINE
  8
_0-0_
 62
3
 10
2385.7399
 20
2810.1509
 30
0
 11
2381.2399
 21
2810.1509
 31
0
  0
LINE
  8
_0-0_
 62
3
 10
2381.2399
 20
2810.1509
 30
0
 11
2381.2399
 21
2850.1508
 31
0
  0
LINE
  8
_0-0_
 62
3
 10
2354.24
 20
2810.6559
 30
0
 11
2354.24
 21
2849.6558
 31
0
  0
LINE
  8
_0-0_
 62
3
 10
2341.24
 20
2817.0028
 30
0
 11
2341.24
 21
2843.3089
 31
0
  0
LINE
  8
_0-0_
 62
3
 10
2354.24
 20
2810.6559
 30
0
 11
2352.5135
 21
2810.7549
 31
0
  0
LINE
  8
_0-0_
 62
3
 10
2352.5135
 20
2810.7549
 30
0
 11
2350.8159
 21
2811.0526
 31
0
  0
LINE
  8
_0-0_
 62
3
 10
2350.8159
 20
2811.0526
 30
0
 11
2349.1475
 21
2811.5484
 31
0
  0
LINE
  8
_0-0_
 62
3
 10
2349.1475
 20
2811.5484
 30
0
 11
2347.508
 21
2812.2426
 31
0
  0
LINE
  8
_0-0_
 62
3
 10
2347.508
 20
2812.2426
 30
0
 11
2345.8975
 21
2813.1351
 31
0
  0
LINE
  8
_0-0_
 62
3
 10
2345.8975
 20
2813.1351
 30
0
 11
2344.3159
 21
2814.2261
 31
0
  0
LINE
  8
_0-0_
 62
3
 10
2344.3159
 20
2814.2261
 30
0
 11
2342.7635
 21
2815.5153
 31
0
  0
LINE
  8
_0-0_
 62
3
 10
2342.7635
 20
2815.5153
 30
0
 11
2341.24
 21
2817.0028
 31
0
  0
LINE
  8
_0-0_
 62
3
 10
2354.24
 20
2849.6558
 30
0
 11
2352.5135
 21
2849.5567
 31
0
  0
LINE
  8
_0-0_
 62
3
 10
2352.5135
 20
2849.5567
 30
0
 11
2350.8159
 21
2849.2591
 31
0
  0
LINE
  8
_0-0_
 62
3
 10
2350.8159
 20
2849.2591
 30
0
 11
2349.1475
 21
2848.7632
 31
0
  0
LINE
  8
_0-0_
 62
3
 10
2349.1475
 20
2848.7632
 30
0
 11
2347.508
 21
2848.0691
 31
0
  0
LINE
  8
_0-0_
 62
3
 10
2347.508
 20
2848.0691
 30
0
 11
2345.8975
 21
2847.1766
 31
0
  0
LINE
  8
_0-0_
 62
3
 10
2345.8975
 20
2847.1766
 30
0
 11
2344.3159
 21
2846.0856
 31
0
  0
LINE
  8
_0-0_
 62
3
 10
2344.3159
 20
2846.0856
 30
0
 11
2342.7635
 21
2844.7964
 31
0
  0
LINE
  8
_0-0_
 62
3
 10
2342.7635
 20
2844.7964
 30
0
 11
2341.24
 21
2843.3089
 31
0
  0
LINE
  8
_0-0_
 62
4
 10
2381.2399
 20
2820.1509
 30
0
 11
2354.24
 21
2820.1509
 31
0
  0
LINE
  8
_0-0_
 62
4
 10
2381.2399
 20
2840.1508
 30
0
 11
2354.24
 21
2840.1508
 31
0
  0
LINE
  8
_0-0_
 62
3
 10
2405.7399
 20
2725.4508
 30
0
 11
2405.7399
 21
2694.8518
 31
0
  0
LINE
  8
_0-0_
 62
3
 10
2387.9
 20
2691.6559
 30
0
 11
2403.569
 21
2691.6559
 31
0
  0
LINE
  8
_0-0_
 62
3
 10
2387.9
 20
2728.6558
 30
0
 11
2403.569
 21
2728.6558
 31
0
  0
LINE
  8
_0-0_
 62
3
 10
2385.7399
 20
2725.4508
 30
0
 11
2385.7399
 21
2694.8518
 31
0
  0
LINE
  8
_0-0_
 62
3
 10
2385.7399
 20
2694.8518
 30
0
 11
2387.9
 21
2691.6559
 31
0
  0
LINE
  8
_0-0_
 62
3
 10
2385.7399
 20
2725.4508
 30
0
 11
2387.9
 21
2728.6558
 31
0
  0
LINE
  8
_0-0_
 62
3
 10
2387.9
 20
2719.3828
 30
0
 11
2403.569
 21
2719.3828
 31
0
  0
LINE
  8
_0-0_
 62
3
 10
2385.7399
 20
2722.5968
 30
0
 11
2387.9
 21
2719.3828
 31
0
  0
LINE
  8
_0-0_
 62
3
 10
2385.7399
 20
2716.1869
 30
0
 11
2387.9
 21
2719.3828
 31
0
  0
LINE
  8
_0-0_
 62
3
 10
2387.9
 20
2700.9198
 30
0
 11
2403.569
 21
2700.9198
 31
0
  0
LINE
  8
_0-0_
 62
3
 10
2385.7399
 20
2697.7148
 30
0
 11
2387.9
 21
2700.9198
 31
0
  0
LINE
  8
_0-0_
 62
3
 10
2385.7399
 20
2704.1159
 30
0
 11
2387.9
 21
2700.9198
 31
0
  0
LINE
  8
_0-0_
 62
3
 10
2405.7399
 20
2694.8518
 30
0
 11
2403.569
 21
2691.6559
 31
0
  0
LINE
  8
_0-0_
 62
3
 10
2405.7399
 20
2725.4508
 30
0
 11
2403.569
 21
2728.6558
 31
0
  0
LINE
  8
_0-0_
 62
3
 10
2405.7399
 20
2722.5968
 30
0
 11
2403.569
 21
2719.3828
 31
0
  0
LINE
  8
_0-0_
 62
3
 10
2405.7399
 20
2716.1869
 30
0
 11
2403.569
 21
2719.3828
 31
0
  0
LINE
  8
_0-0_
 62
3
 10
2405.7399
 20
2697.7148
 30
0
 11
2403.569
 21
2700.9198
 31
0
  0
LINE
  8
_0-0_
 62
3
 10
2405.7399
 20
2704.1159
 30
0
 11
2403.569
 21
2700.9198
 31
0
  0
LINE
  8
_0-0_
 62
4
 10
2417.37
 20
2720.7359
 30
0
 11
2413.73
 21
2700.7359
 31
0
  0
LINE
  8
_0-0_
 62
4
 10
2413.7799
 20
2720.7359
 30
0
 11
2410.1399
 21
2700.7359
 31
0
  0
LINE
  8
_0-0_
 62
4
 10
2409.7899
 20
2720.7359
 30
0
 11
2406.6699
 21
2703.5549
 31
0
  0
LINE
  8
_0-0_
 62
3
 10
2417.37
 20
2700.7359
 30
0
 11
2405.7399
 21
2700.7359
 31
0
  0
LINE
  8
_0-0_
 62
3
 10
2417.37
 20
2720.7359
 30
0
 11
2405.7399
 21
2720.7359
 31
0
  0
LINE
  8
_0-0_
 62
3
 10
2417.37
 20
2700.7359
 30
0
 11
2417.37
 21
2720.7359
 31
0
  0
LINE
  8
_0-0_
 62
3
 10
2381.2399
 20
2730.1508
 30
0
 11
2385.7399
 21
2730.1508
 31
0
  0
LINE
  8
_0-0_
 62
3
 10
2385.7399
 20
2730.1508
 30
0
 11
2385.7399
 21
2690.1509
 31
0
  0
LINE
  8
_0-0_
 62
3
 10
2385.7399
 20
2690.1509
 30
0
 11
2381.2399
 21
2690.1509
 31
0
  0
LINE
  8
_0-0_
 62
3
 10
2381.2399
 20
2690.1509
 30
0
 11
2381.2399
 21
2730.1508
 31
0
  0
LINE
  8
_0-0_
 62
3
 10
2354.24
 20
2690.6559
 30
0
 11
2354.24
 21
2729.6558
 31
0
  0
LINE
  8
_0-0_
 62
3
 10
2341.24
 20
2697.0028
 30
0
 11
2341.24
 21
2723.3089
 31
0
  0
LINE
  8
_0-0_
 62
3
 10
2354.24
 20
2690.6559
 30
0
 11
2352.5135
 21
2690.7549
 31
0
  0
LINE
  8
_0-0_
 62
3
 10
2352.5135
 20
2690.7549
 30
0
 11
2350.8159
 21
2691.0526
 31
0
  0
LINE
  8
_0-0_
 62
3
 10
2350.8159
 20
2691.0526
 30
0
 11
2349.1475
 21
2691.5485
 31
0
  0
LINE
  8
_0-0_
 62
3
 10
2349.1475
 20
2691.5485
 30
0
 11
2347.508
 21
2692.2426
 31
0
  0
LINE
  8
_0-0_
 62
3
 10
2347.508
 20
2692.2426
 30
0
 11
2345.8975
 21
2693.1351
 31
0
  0
LINE
  8
_0-0_
 62
3
 10
2345.8975
 20
2693.1351
 30
0
 11
2344.3159
 21
2694.2261
 31
0
  0
LINE
  8
_0-0_
 62
3
 10
2344.3159
 20
2694.2261
 30
0
 11
2342.7635
 21
2695.5153
 31
0
  0
LINE
  8
_0-0_
 62
3
 10
2342.7635
 20
2695.5153
 30
0
 11
2341.24
 21
2697.0028
 31
0
  0
LINE
  8
_0-0_
 62
3
 10
2354.24
 20
2729.6558
 30
0
 11
2352.5135
 21
2729.5566
 31
0
  0
LINE
  8
_0-0_
 62
3
 10
2352.5135
 20
2729.5566
 30
0
 11
2350.8159
 21
2729.2591
 31
0
  0
LINE
  8
_0-0_
 62
3
 10
2350.8159
 20
2729.2591
 30
0
 11
2349.1475
 21
2728.7632
 31
0
  0
LINE
  8
_0-0_
 62
3
 10
2349.1475
 20
2728.7632
 30
0
 11
2347.508
 21
2728.0691
 31
0
  0
LINE
  8
_0-0_
 62
3
 10
2347.508
 20
2728.0691
 30
0
 11
2345.8975
 21
2727.1766
 31
0
  0
LINE
  8
_0-0_
 62
3
 10
2345.8975
 20
2727.1766
 30
0
 11
2344.3159
 21
2726.0856
 31
0
  0
LINE
  8
_0-0_
 62
3
 10
2344.3159
 20
2726.0856
 30
0
 11
2342.7635
 21
2724.7964
 31
0
  0
LINE
  8
_0-0_
 62
3
 10
2342.7635
 20
2724.7964
 30
0
 11
2341.24
 21
2723.3089
 31
0
  0
LINE
  8
_0-0_
 62
4
 10
2381.2399
 20
2700.1508
 30
0
 11
2354.24
 21
2700.1508
 31
0
  0
LINE
  8
_0-0_
 62
4
 10
2381.2399
 20
2720.1508
 30
0
 11
2354.24
 21
2720.1508
 31
0
  0
LINE
  8
_0-0_
 62
3
 10
2405.7399
 20
2605.4508
 30
0
 11
2405.7399
 21
2574.8518
 31
0
  0
LINE
  8
_0-0_
 62
3
 10
2387.9
 20
2571.6559
 30
0
 11
2403.569
 21
2571.6559
 31
0
  0
LINE
  8
_0-0_
 62
3
 10
2387.9
 20
2608.6558
 30
0
 11
2403.569
 21
2608.6558
 31
0
  0
LINE
  8
_0-0_
 62
3
 10
2385.7399
 20
2605.4508
 30
0
 11
2385.7399
 21
2574.8518
 31
0
  0
LINE
  8
_0-0_
 62
3
 10
2385.7399
 20
2574.8518
 30
0
 11
2387.9
 21
2571.6559
 31
0
  0
LINE
  8
_0-0_
 62
3
 10
2385.7399
 20
2605.4508
 30
0
 11
2387.9
 21
2608.6558
 31
0
  0
LINE
  8
_0-0_
 62
3
 10
2387.9
 20
2599.3828
 30
0
 11
2403.569
 21
2599.3828
 31
0
  0
LINE
  8
_0-0_
 62
3
 10
2385.7399
 20
2602.5968
 30
0
 11
2387.9
 21
2599.3828
 31
0
  0
LINE
  8
_0-0_
 62
3
 10
2385.7399
 20
2596.1869
 30
0
 11
2387.9
 21
2599.3828
 31
0
  0
LINE
  8
_0-0_
 62
3
 10
2387.9
 20
2580.9198
 30
0
 11
2403.569
 21
2580.9198
 31
0
  0
LINE
  8
_0-0_
 62
3
 10
2385.7399
 20
2577.7148
 30
0
 11
2387.9
 21
2580.9198
 31
0
  0
LINE
  8
_0-0_
 62
3
 10
2385.7399
 20
2584.1159
 30
0
 11
2387.9
 21
2580.9198
 31
0
  0
LINE
  8
_0-0_
 62
3
 10
2405.7399
 20
2574.8518
 30
0
 11
2403.569
 21
2571.6559
 31
0
  0
LINE
  8
_0-0_
 62
3
 10
2405.7399
 20
2605.4508
 30
0
 11
2403.569
 21
2608.6558
 31
0
  0
LINE
  8
_0-0_
 62
3
 10
2405.7399
 20
2602.5968
 30
0
 11
2403.569
 21
2599.3828
 31
0
  0
LINE
  8
_0-0_
 62
3
 10
2405.7399
 20
2596.1869
 30
0
 11
2403.569
 21
2599.3828
 31
0
  0
LINE
  8
_0-0_
 62
3
 10
2405.7399
 20
2577.7148
 30
0
 11
2403.569
 21
2580.9198
 31
0
  0
LINE
  8
_0-0_
 62
3
 10
2405.7399
 20
2584.1159
 30
0
 11
2403.569
 21
2580.9198
 31
0
  0
LINE
  8
_0-0_
 62
4
 10
2417.37
 20
2600.7359
 30
0
 11
2413.73
 21
2580.7359
 31
0
  0
LINE
  8
_0-0_
 62
4
 10
2413.7799
 20
2600.7359
 30
0
 11
2410.1399
 21
2580.7359
 31
0
  0
LINE
  8
_0-0_
 62
4
 10
2409.7899
 20
2600.7359
 30
0
 11
2406.6699
 21
2583.5549
 31
0
  0
LINE
  8
_0-0_
 62
3
 10
2417.37
 20
2580.7359
 30
0
 11
2405.7399
 21
2580.7359
 31
0
  0
LINE
  8
_0-0_
 62
3
 10
2417.37
 20
2600.7359
 30
0
 11
2405.7399
 21
2600.7359
 31
0
  0
LINE
  8
_0-0_
 62
3
 10
2417.37
 20
2580.7359
 30
0
 11
2417.37
 21
2600.7359
 31
0
  0
LINE
  8
_0-0_
 62
3
 10
2381.2399
 20
2610.1508
 30
0
 11
2385.7399
 21
2610.1508
 31
0
  0
LINE
  8
_0-0_
 62
3
 10
2385.7399
 20
2610.1508
 30
0
 11
2385.7399
 21
2570.1508
 31
0
  0
LINE
  8
_0-0_
 62
3
 10
2385.7399
 20
2570.1508
 30
0
 11
2381.2399
 21
2570.1508
 31
0
  0
LINE
  8
_0-0_
 62
3
 10
2381.2399
 20
2570.1508
 30
0
 11
2381.2399
 21
2610.1508
 31
0
  0
LINE
  8
_0-0_
 62
3
 10
2354.24
 20
2570.6559
 30
0
 11
2354.24
 21
2609.6558
 31
0
  0
LINE
  8
_0-0_
 62
3
 10
2341.24
 20
2577.0028
 30
0
 11
2341.24
 21
2603.3088
 31
0
  0
LINE
  8
_0-0_
 62
3
 10
2354.24
 20
2570.6559
 30
0
 11
2352.5135
 21
2570.755
 31
0
  0
LINE
  8
_0-0_
 62
3
 10
2352.5135
 20
2570.755
 30
0
 11
2350.8159
 21
2571.0526
 31
0
  0
LINE
  8
_0-0_
 62
3
 10
2350.8159
 20
2571.0526
 30
0
 11
2349.1475
 21
2571.5485
 31
0
  0
LINE
  8
_0-0_
 62
3
 10
2349.1475
 20
2571.5485
 30
0
 11
2347.508
 21
2572.2426
 31
0
  0
LINE
  8
_0-0_
 62
3
 10
2347.508
 20
2572.2426
 30
0
 11
2345.8975
 21
2573.1351
 31
0
  0
LINE
  8
_0-0_
 62
3
 10
2345.8975
 20
2573.1351
 30
0
 11
2344.3159
 21
2574.2261
 31
0
  0
LINE
  8
_0-0_
 62
3
 10
2344.3159
 20
2574.2261
 30
0
 11
2342.7635
 21
2575.5153
 31
0
  0
LINE
  8
_0-0_
 62
3
 10
2342.7635
 20
2575.5153
 30
0
 11
2341.24
 21
2577.0028
 31
0
  0
LINE
  8
_0-0_
 62
3
 10
2354.24
 20
2609.6558
 30
0
 11
2352.5135
 21
2609.5566
 31
0
  0
LINE
  8
_0-0_
 62
3
 10
2352.5135
 20
2609.5566
 30
0
 11
2350.8159
 21
2609.2591
 31
0
  0
LINE
  8
_0-0_
 62
3
 10
2350.8159
 20
2609.2591
 30
0
 11
2349.1475
 21
2608.7633
 31
0
  0
LINE
  8
_0-0_
 62
3
 10
2349.1475
 20
2608.7633
 30
0
 11
2347.508
 21
2608.0691
 31
0
  0
LINE
  8
_0-0_
 62
3
 10
2347.508
 20
2608.0691
 30
0
 11
2345.8975
 21
2607.1766
 31
0
  0
LINE
  8
_0-0_
 62
3
 10
2345.8975
 20
2607.1766
 30
0
 11
2344.3159
 21
2606.0856
 31
0
  0
LINE
  8
_0-0_
 62
3
 10
2344.3159
 20
2606.0856
 30
0
 11
2342.7635
 21
2604.7964
 31
0
  0
LINE
  8
_0-0_
 62
3
 10
2342.7635
 20
2604.7964
 30
0
 11
2341.24
 21
2603.3088
 31
0
  0
LINE
  8
_0-0_
 62
4
 10
2381.2399
 20
2580.1508
 30
0
 11
2354.24
 21
2580.1508
 31
0
  0
LINE
  8
_0-0_
 62
4
 10
2381.2399
 20
2600.1508
 30
0
 11
2354.24
 21
2600.1508
 31
0
  0
LINE
  8
_0-0_
 62
4
 10
2330.05
 20
2710.1513
 30
0
 11
2512.6229
 21
2710.1513
 31
0
  0
LINE
  8
_0-0_
 62
4
 10
2501.6229
 20
2710.1513
 30
0
 11
2558.6229
 21
2710.1513
 31
0
  0
LINE
  8
_0-0_
 62
4
 10
2547.6229
 20
2590.1513
 30
0
 11
2547.6229
 21
2710.1513
 31
0
  0
LINE
  8
_0-0_
 62
4
 10
1989.0499
 20
2715.2079
 30
0
 11
2293.869
 21
2715.2079
 31
0
  0
LINE
  8
_0-0_
 62
4
 10
2293.869
 20
2715.2079
 30
0
 11
2358.4289
 21
2779.7679
 31
0
  0
LINE
  8
_0-0_
 62
4
 10
2293.869
 20
2715.2079
 30
0
 11
2376.9899
 21
2779.7679
 31
0
  0
LINE
  8
_0-0_
 62
4
 10
2362.7399
 20
2891.1743
 30
0
 11
2354.24
 21
2891.1743
 31
0
  0
LINE
  8
_0-0_
 62
4
 10
2354.24
 20
2891.1743
 30
0
 11
2309.5499
 21
2891.1743
 31
0
  0
LINE
  8
_0-0_
 62
3
 10
2354.24
 20
2990.1515
 30
0
 11
2363.24
 21
2990.1515
 31
0
  0
LINE
  8
_0-0_
 62
3
 10
2363.24
 20
2990.1515
 30
0
 11
2363.24
 21
2550.1513
 31
0
  0
LINE
  8
_0-0_
 62
3
 10
2363.24
 20
2550.1513
 30
0
 11
2354.24
 21
2550.1513
 31
0
  0
LINE
  8
_0-0_
 62
3
 10
2354.24
 20
2550.1513
 30
0
 11
2354.24
 21
2990.1515
 31
0
  0
LINE
  8
_0-0_
 62
3
 10
2372.2399
 20
2990.1515
 30
0
 11
2381.2399
 21
2990.1515
 31
0
  0
LINE
  8
_0-0_
 62
3
 10
2381.2399
 20
2990.1515
 30
0
 11
2381.2399
 21
2550.1513
 31
0
  0
LINE
  8
_0-0_
 62
3
 10
2381.2399
 20
2550.1513
 30
0
 11
2372.2399
 21
2550.1513
 31
0
  0
LINE
  8
_0-0_
 62
3
 10
2372.2399
 20
2550.1513
 30
0
 11
2372.2399
 21
2990.1515
 31
0
  0
LINE
  8
_0-0_
 62
4
 10
392.43001
 20
3815.4813
 30
0
 11
1672.43
 21
3815.4813
 31
0
  0
LINE
  8
_0-0_
 62
4
 10
1672.43
 20
3815.4813
 30
0
 11
1672.43
 21
3415.4815
 31
0
  0
LINE
  8
_0-0_
 62
4
 10
392.43001
 20
3415.4815
 30
0
 11
392.43001
 21
3815.4813
 31
0
  0
LINE
  8
_0-0_
 62
4
 10
392.43001
 20
3715.4812
 30
0
 11
1672.43
 21
3715.4812
 31
0
  0
LINE
  8
_0-0_
 62
4
 10
392.43001
 20
3515.4813
 30
0
 11
1672.43
 21
3515.4813
 31
0
  0
LINE
  8
_0-0_
 62
4
 10
392.43001
 20
3415.4815
 30
0
 11
1672.43
 21
3415.4815
 31
0
  0
LINE
  8
_0-0_
 62
4
 10
392.43001
 20
3615.4814
 30
0
 11
1272.43
 21
3615.4814
 31
0
  0
LINE
  8
_0-0_
 62
4
 10
792.42999
 20
3415.4815
 30
0
 11
792.42999
 21
3815.4813
 31
0
  0
LINE
  8
_0-0_
 62
4
 10
1272.43
 20
3415.4815
 30
0
 11
1272.43
 21
3715.4812
 31
0
  0
LINE
  8
_0-0_
 62
2
 10
2970
 20
2134.9613
 30
0
 11
5891.8999
 21
2134.9613
 31
0
  0
CIRCLE
  8
_0-0_
 62
4
 10
1879.9299
 20
1077.0714
 30
0
 40
5.9996338
  0
CIRCLE
  8
_0-0_
 62
4
 10
1879.9299
 20
1677.0714
 30
0
 40
5.9996338
  0
CIRCLE
  8
_0-0_
 62
4
 10
1085.7999
 20
948.38136
 30
0
 40
5.9996338
  0
CIRCLE
  8
_0-0_
 62
4
 10
1125.8
 20
948.38136
 30
0
 40
5.9996338
  0
CIRCLE
  8
_0-0_
 62
4
 10
1185.8
 20
948.38136
 30
0
 40
5.9996338
  0
CIRCLE
  8
_0-0_
 62
4
 10
1275.7999
 20
948.38136
 30
0
 40
5.9996338
  0
CIRCLE
  8
_0-0_
 62
4
 10
1335.7999
 20
948.38136
 30
0
 40
5.9996338
  0
CIRCLE
  8
_0-0_
 62
4
 10
1375.8
 20
948.38136
 30
0
 40
5.9996338
  0
CIRCLE
  8
_0-0_
 62
4
 10
1025.7999
 20
1875.1413
 30
0
 40
5.9996338
  0
CIRCLE
  8
_0-0_
 62
4
 10
1065.8
 20
1875.1413
 30
0
 40
5.9996338
  0
CIRCLE
  8
_0-0_
 62
4
 10
1125.8
 20
1875.1413
 30
0
 40
5.9996338
  0
CIRCLE
  8
_0-0_
 62
4
 10
1185.8
 20
1875.1413
 30
0
 40
5.9996338
  0
CIRCLE
  8
_0-0_
 62
4
 10
1185.8
 20
1875.1413
 30
0
 40
5.9996338
  0
CIRCLE
  8
_0-0_
 62
4
 10
1275.7999
 20
1875.1413
 30
0
 40
5.9996338
  0
CIRCLE
  8
_0-0_
 62
4
 10
1435.8
 20
1877.1413
 30
0
 40
5.9996338
  0
CIRCLE
  8
_0-0_
 62
4
 10
1395.8
 20
1877.1413
 30
0
 40
5.9996338
  0
CIRCLE
  8
_0-0_
 62
4
 10
1335.7999
 20
1875.1413
 30
0
 40
5.9996338
  0
CIRCLE
  8
_0-0_
 62
4
 10
1275.7999
 20
1875.1413
 30
0
 40
5.9996338
  0
CIRCLE
  8
_0-0_
 62
4
 10
1095.813
 20
1656.6434
 30
0
 40
5.9996338
  0
CIRCLE
  8
_0-0_
 62
4
 10
1098.8
 20
1686.6394
 30
0
 40
5.9996338
  0
CIRCLE
  8
_0-0_
 62
4
 10
1025.7999
 20
1925.1414
 30
0
 40
5.9996338
  0
CIRCLE
  8
_0-0_
 62
4
 10
1435.8
 20
1925.1414
 30
0
 40
5.9996338
  0
CIRCLE
  8
_0-0_
 62
4
 10
1085.7999
 20
898.38138
 30
0
 40
5.9996338
  0
CIRCLE
  8
_0-0_
 62
4
 10
1375.8
 20
898.38138
 30
0
 40
5.9996338
  0
CIRCLE
  8
_0-0_
 62
4
 10
1406.5179
 20
1708.6884
 30
0
 40
5.9996338
  0
CIRCLE
  8
_0-0_
 62
4
 10
1065.8
 20
1875.1413
 30
0
 40
5.9996338
  0
CIRCLE
  8
_0-0_
 62
4
 10
1125.8
 20
1875.1413
 30
0
 40
5.9996338
  0
CIRCLE
  8
_0-0_
 62
4
 10
1395.8
 20
1875.1413
 30
0
 40
5.9996338
  0
CIRCLE
  8
_0-0_
 62
4
 10
1335.7999
 20
1875.1413
 30
0
 40
5.9996338
  0
CIRCLE
  8
_0-0_
 62
4
 10
962.10931
 20
1689.0714
 30
0
 40
5.9996338
  0
CIRCLE
  8
_0-0_
 62
4
 10
962.10931
 20
1677.0714
 30
0
 40
5.9996338
  0
CIRCLE
  8
_0-0_
 62
4
 10
962.10931
 20
1093.0714
 30
0
 40
5.9996338
  0
CIRCLE
  8
_0-0_
 62
4
 10
962.10931
 20
1105.0713
 30
0
 40
5.9996338
  0
CIRCLE
  8
_0-0_
 62
4
 10
1335.7999
 20
948.38136
 30
0
 40
5.9996338
  0
CIRCLE
  8
_0-0_
 62
4
 10
1275.7999
 20
948.38136
 30
0
 40
5.9996338
  0
CIRCLE
  8
_0-0_
 62
4
 10
1185.8
 20
948.38136
 30
0
 40
5.9996338
  0
CIRCLE
  8
_0-0_
 62
4
 10
1125.8
 20
948.38136
 30
0
 40
5.9996338
  0
CIRCLE
  8
_0-0_
 62
4
 10
1125.8
 20
1557.0714
 30
0
 40
5.9996338
  0
CIRCLE
  8
_0-0_
 62
3
 10
1275.7999
 20
1557.0714
 30
0
 40
16.017705
  0
CIRCLE
  8
_0-0_
 62
3
 10
1275.7999
 20
1557.0714
 30
0
 40
9.9999998
  0
CIRCLE
  8
_0-0_
 62
3
 10
1185.8
 20
1557.0714
 30
0
 40
16.017705
  0
CIRCLE
  8
_0-0_
 62
3
 10
1185.8
 20
1557.0714
 30
0
 40
9.9999998
  0
CIRCLE
  8
_0-0_
 62
3
 10
1275.7999
 20
1197.0714
 30
0
 40
16.017705
  0
CIRCLE
  8
_0-0_
 62
3
 10
1275.7999
 20
1197.0714
 30
0
 40
9.9999998
  0
CIRCLE
  8
_0-0_
 62
3
 10
1185.8
 20
1197.0714
 30
0
 40
16.017705
  0
CIRCLE
  8
_0-0_
 62
3
 10
1185.8
 20
1197.0714
 30
0
 40
9.9999998
  0
CIRCLE
  8
_0-0_
 62
3
 10
1275.7999
 20
1317.0713
 30
0
 40
16.017705
  0
CIRCLE
  8
_0-0_
 62
3
 10
1275.7999
 20
1317.0713
 30
0
 40
9.9999998
  0
CIRCLE
  8
_0-0_
 62
3
 10
1185.8
 20
1317.0713
 30
0
 40
16.017705
  0
CIRCLE
  8
_0-0_
 62
3
 10
1185.8
 20
1317.0713
 30
0
 40
9.9999998
  0
CIRCLE
  8
_0-0_
 62
3
 10
1275.7999
 20
1437.0713
 30
0
 40
16.017705
  0
CIRCLE
  8
_0-0_
 62
3
 10
1275.7999
 20
1437.0713
 30
0
 40
9.9999998
  0
CIRCLE
  8
_0-0_
 62
3
 10
1185.8
 20
1437.0713
 30
0
 40
16.017705
  0
CIRCLE
  8
_0-0_
 62
3
 10
1185.8
 20
1437.0713
 30
0
 40
9.9999998
  0
CIRCLE
  8
_0-0_
 62
4
 10
1103.9982
 20
1375.5598
 30
0
 40
5.9996338
  0
CIRCLE
  8
_0-0_
 62
3
 10
1125.8
 20
1557.0714
 30
0
 40
16.017705
  0
CIRCLE
  8
_0-0_
 62
3
 10
1125.8
 20
1557.0714
 30
0
 40
9.9999998
  0
CIRCLE
  8
_0-0_
 62
3
 10
1125.8
 20
1197.0714
 30
0
 40
16.017705
  0
CIRCLE
  8
_0-0_
 62
3
 10
1125.8
 20
1197.0714
 30
0
 40
9.9999998
  0
CIRCLE
  8
_0-0_
 62
3
 10
1125.8
 20
1317.0713
 30
0
 40
16.017705
  0
CIRCLE
  8
_0-0_
 62
3
 10
1125.8
 20
1317.0713
 30
0
 40
9.9999998
  0
CIRCLE
  8
_0-0_
 62
3
 10
1125.8
 20
1437.0713
 30
0
 40
16.017705
  0
CIRCLE
  8
_0-0_
 62
3
 10
1125.8
 20
1437.0713
 30
0
 40
9.9999998
  0
CIRCLE
  8
_0-0_
 62
3
 10
1335.7999
 20
1557.0714
 30
0
 40
16.017705
  0
CIRCLE
  8
_0-0_
 62
3
 10
1335.7999
 20
1557.0714
 30
0
 40
9.9999998
  0
CIRCLE
  8
_0-0_
 62
3
 10
1335.7999
 20
1197.0714
 30
0
 40
16.017705
  0
CIRCLE
  8
_0-0_
 62
3
 10
1335.7999
 20
1197.0714
 30
0
 40
9.9999998
  0
CIRCLE
  8
_0-0_
 62
3
 10
1335.7999
 20
1317.0713
 30
0
 40
16.017705
  0
CIRCLE
  8
_0-0_
 62
3
 10
1335.7999
 20
1317.0713
 30
0
 40
9.9999998
  0
CIRCLE
  8
_0-0_
 62
3
 10
1335.7999
 20
1437.0713
 30
0
 40
16.017705
  0
CIRCLE
  8
_0-0_
 62
3
 10
1335.7999
 20
1437.0713
 30
0
 40
9.9999998
  0
CIRCLE
  8
_0-0_
 62
4
 10
1486.9299
 20
1597.0713
 30
0
 40
5.9996338
  0
CIRCLE
  8
_0-0_
 62
4
 10
1486.9299
 20
1557.0714
 30
0
 40
5.9996338
  0
CIRCLE
  8
_0-0_
 62
4
 10
1486.9299
 20
1197.0714
 30
0
 40
5.9996338
  0
CIRCLE
  8
_0-0_
 62
4
 10
1486.9299
 20
1157.0713
 30
0
 40
5.9996338
  0
CIRCLE
  8
_0-0_
 62
4
 10
1536.93
 20
1597.0713
 30
0
 40
5.9996338
  0
CIRCLE
  8
_0-0_
 62
4
 10
1536.93
 20
1157.0713
 30
0
 40
5.9996338
  0
CIRCLE
  8
_0-0_
 62
4
 10
1486.9299
 20
1197.0714
 30
0
 40
5.9996338
  0
CIRCLE
  8
_0-0_
 62
4
 10
1486.9299
 20
1317.0713
 30
0
 40
5.9996338
  0
CIRCLE
  8
_0-0_
 62
4
 10
1486.9299
 20
1317.0713
 30
0
 40
5.9996338
  0
CIRCLE
  8
_0-0_
 62
4
 10
1486.9299
 20
1437.0713
 30
0
 40
5.9996338
  0
CIRCLE
  8
_0-0_
 62
4
 10
1486.9299
 20
1437.0713
 30
0
 40
5.9996338
  0
CIRCLE
  8
_0-0_
 62
4
 10
1486.9299
 20
1557.0714
 30
0
 40
5.9996338
  0
CIRCLE
  8
_0-0_
 62
4
 10
1661.3262
 20
1609.7113
 30
0
 40
5.9996338
  0
ARC
  8
_0-0_
 62
2
 10
2349.74
 20
1648.0713
 30
0
 40
13
 50
0
 51
90
  0
ARC
  8
_0-0_
 62
2
 10
2385.7399
 20
1648.0713
 30
0
 40
13
 50
90
 51
180
  0
ARC
  8
_0-0_
 62
2
 10
2349.74
 20
1106.0713
 30
0
 40
13
 50
270
 51
0
  0
ARC
  8
_0-0_
 62
2
 10
2385.7399
 20
1106.0713
 30
0
 40
13
 50
180
 51
270
  0
CIRCLE
  8
_0-0_
 62
4
 10
1548.0745
 20
2329.9613
 30
0
 40
5.9996338
  0
CIRCLE
  8
_0-0_
 62
4
 10
1548.0745
 20
2289.9614
 30
0
 40
5.9996338
  0
CIRCLE
  8
_0-0_
 62
4
 10
1025.7999
 20
2613.6384
 30
0
 40
5.9996338
  0
CIRCLE
  8
_0-0_
 62
4
 10
1065.8
 20
2613.6384
 30
0
 40
5.9996338
  0
CIRCLE
  8
_0-0_
 62
4
 10
1125.8
 20
2613.6384
 30
0
 40
5.9996338
  0
CIRCLE
  8
_0-0_
 62
4
 10
1185.8
 20
2613.6384
 30
0
 40
5.9996338
  0
CIRCLE
  8
_0-0_
 62
4
 10
1185.8
 20
2613.6384
 30
0
 40
5.9996338
  0
CIRCLE
  8
_0-0_
 62
4
 10
1275.7999
 20
2613.6384
 30
0
 40
5.9996338
  0
CIRCLE
  8
_0-0_
 62
4
 10
1435.8
 20
2613.6384
 30
0
 40
5.9996338
  0
CIRCLE
  8
_0-0_
 62
4
 10
1395.8
 20
2613.6384
 30
0
 40
5.9996338
  0
CIRCLE
  8
_0-0_
 62
4
 10
1335.7999
 20
2613.6384
 30
0
 40
5.9996338
  0
CIRCLE
  8
_0-0_
 62
4
 10
1275.7999
 20
2613.6384
 30
0
 40
5.9996338
  0
CIRCLE
  8
_0-0_
 62
4
 10
1548.0745
 20
2449.9613
 30
0
 40
5.9996338
  0
CIRCLE
  8
_0-0_
 62
4
 10
1548.0745
 20
2329.9613
 30
0
 40
5.9996338
  0
CIRCLE
  8
_0-0_
 62
4
 10
1548.0745
 20
2449.9613
 30
0
 40
5.9996338
  0
CIRCLE
  8
_0-0_
 62
4
 10
1548.0745
 20
2489.9613
 30
0
 40
5.9996338
  0
CIRCLE
  8
_0-0_
 62
4
 10
1025.7999
 20
2663.6383
 30
0
 40
5.9996338
  0
CIRCLE
  8
_0-0_
 62
4
 10
1435.8
 20
2663.6383
 30
0
 40
5.9996338
  0
CIRCLE
  8
_0-0_
 62
4
 10
1149.4279
 20
2307.0864
 30
0
 40
5.9996338
  0
CIRCLE
  8
_0-0_
 62
3
 10
1185.8
 20
2329.9613
 30
0
 40
16.017705
  0
CIRCLE
  8
_0-0_
 62
3
 10
1185.8
 20
2329.9613
 30
0
 40
9.9999998
  0
CIRCLE
  8
_0-0_
 62
3
 10
1125.8
 20
2329.9613
 30
0
 40
16.017705
  0
CIRCLE
  8
_0-0_
 62
3
 10
1125.8
 20
2329.9613
 30
0
 40
9.9999998
  0
CIRCLE
  8
_0-0_
 62
3
 10
1275.7999
 20
2329.9613
 30
0
 40
16.017705
  0
CIRCLE
  8
_0-0_
 62
3
 10
1275.7999
 20
2329.9613
 30
0
 40
9.9999998
  0
CIRCLE
  8
_0-0_
 62
3
 10
1335.7999
 20
2329.9613
 30
0
 40
16.017705
  0
CIRCLE
  8
_0-0_
 62
3
 10
1335.7999
 20
2329.9613
 30
0
 40
9.9999998
  0
CIRCLE
  8
_0-0_
 62
3
 10
1185.8
 20
2449.9613
 30
0
 40
16.017705
  0
CIRCLE
  8
_0-0_
 62
3
 10
1185.8
 20
2449.9613
 30
0
 40
9.9999998
  0
CIRCLE
  8
_0-0_
 62
3
 10
1125.8
 20
2449.9613
 30
0
 40
16.017705
  0
CIRCLE
  8
_0-0_
 62
3
 10
1125.8
 20
2449.9613
 30
0
 40
9.9999998
  0
CIRCLE
  8
_0-0_
 62
3
 10
1275.7999
 20
2449.9613
 30
0
 40
16.017705
  0
CIRCLE
  8
_0-0_
 62
3
 10
1275.7999
 20
2449.9613
 30
0
 40
9.9999998
  0
CIRCLE
  8
_0-0_
 62
3
 10
1335.7999
 20
2449.9613
 30
0
 40
16.017705
  0
CIRCLE
  8
_0-0_
 62
3
 10
1335.7999
 20
2449.9613
 30
0
 40
9.9999998
  0
CIRCLE
  8
_0-0_
 62
4
 10
1397.1103
 20
2450.9679
 30
0
 40
5.9996338
  0
CIRCLE
  8
_0-0_
 62
4
 10
1598.0744
 20
2489.9613
 30
0
 40
5.9996338
  0
CIRCLE
  8
_0-0_
 62
4
 10
1598.0744
 20
2289.9614
 30
0
 40
5.9996338
  0
CIRCLE
  8
_0-0_
 62
3
 10
1395.8
 20
2329.9613
 30
0
 40
16.017705
  0
CIRCLE
  8
_0-0_
 62
3
 10
1395.8
 20
2329.9613
 30
0
 40
9.9999998
  0
CIRCLE
  8
_0-0_
 62
3
 10
1395.8
 20
2449.9613
 30
0
 40
16.017705
  0
CIRCLE
  8
_0-0_
 62
3
 10
1395.8
 20
2449.9613
 30
0
 40
9.9999998
  0
CIRCLE
  8
_0-0_
 62
3
 10
1065.8
 20
2329.9613
 30
0
 40
16.017705
  0
CIRCLE
  8
_0-0_
 62
3
 10
1065.8
 20
2329.9613
 30
0
 40
9.9999998
  0
CIRCLE
  8
_0-0_
 62
3
 10
1065.8
 20
2449.9613
 30
0
 40
16.017705
  0
CIRCLE
  8
_0-0_
 62
3
 10
1065.8
 20
2449.9613
 30
0
 40
9.9999998
  0
CIRCLE
  8
_0-0_
 62
4
 10
1395.8
 20
2613.6384
 30
0
 40
5.9996338
  0
CIRCLE
  8
_0-0_
 62
4
 10
1335.7999
 20
2613.6384
 30
0
 40
5.9996338
  0
CIRCLE
  8
_0-0_
 62
4
 10
1065.8
 20
2613.6384
 30
0
 40
5.9996338
  0
CIRCLE
  8
_0-0_
 62
4
 10
1125.8
 20
2613.6384
 30
0
 40
5.9996338
  0
CIRCLE
  8
_0-0_
 62
4
 10
948.79999
 20
2454.9253
 30
0
 40
5.9996338
  0
CIRCLE
  8
_0-0_
 62
4
 10
2267.7399
 20
3268.2212
 30
0
 40
5.9996338
  0
CIRCLE
  8
_0-0_
 62
4
 10
2307.7399
 20
3268.2212
 30
0
 40
5.9996338
  0
CIRCLE
  8
_0-0_
 62
4
 10
2427.7399
 20
3268.2212
 30
0
 40
5.9996338
  0
CIRCLE
  8
_0-0_
 62
4
 10
2467.74
 20
3268.2212
 30
0
 40
5.9996338
  0
CIRCLE
  8
_0-0_
 62
4
 10
2267.7399
 20
2291.4613
 30
0
 40
5.9996338
  0
CIRCLE
  8
_0-0_
 62
4
 10
2347.74
 20
2291.4613
 30
0
 40
5.9996338
  0
CIRCLE
  8
_0-0_
 62
4
 10
2267.7399
 20
2341.4614
 30
0
 40
5.9996338
  0
CIRCLE
  8
_0-0_
 62
4
 10
2307.7399
 20
2341.4614
 30
0
 40
5.9996338
  0
CIRCLE
  8
_0-0_
 62
4
 10
2307.7399
 20
2341.4614
 30
0
 40
5.9996338
  0
CIRCLE
  8
_0-0_
 62
4
 10
2347.74
 20
2341.4614
 30
0
 40
5.9996338
  0
CIRCLE
  8
_0-0_
 62
4
 10
2298.991
 20
3047.2103
 30
0
 40
5.9996338
  0
CIRCLE
  8
_0-0_
 62
4
 10
2360
 20
3079.9614
 30
0
 40
5.9996338
  0
CIRCLE
  8
_0-0_
 62
4
 10
2425.7869
 20
3104.2683
 30
0
 40
5.9996338
  0
CIRCLE
  8
_0-0_
 62
4
 10
2267.7399
 20
3318.2215
 30
0
 40
5.9996338
  0
CIRCLE
  8
_0-0_
 62
4
 10
2467.74
 20
3318.2215
 30
0
 40
5.9996338
  0
CIRCLE
  8
_0-0_
 62
4
 10
2307.7399
 20
3268.2212
 30
0
 40
5.9996338
  0
CIRCLE
  8
_0-0_
 62
4
 10
2427.7399
 20
3268.2212
 30
0
 40
5.9996338
  0
CIRCLE
  8
_0-0_
 62
4
 10
2217.502
 20
3082.1514
 30
0
 40
5.9996338
  0
CIRCLE
  8
_0-0_
 62
4
 10
2217.502
 20
3070.1513
 30
0
 40
5.9996338
  0
CIRCLE
  8
_0-0_
 62
4
 10
2217.502
 20
2486.1514
 30
0
 40
5.9996338
  0
CIRCLE
  8
_0-0_
 62
4
 10
2217.502
 20
2498.1514
 30
0
 40
5.9996338
  0
ARC
  8
_0-0_
 62
2
 10
2349.74
 20
3041.1512
 30
0
 40
13
 50
0
 51
90
  0
ARC
  8
_0-0_
 62
2
 10
2385.7399
 20
3041.1512
 30
0
 40
13
 50
90
 51
180
  0
ARC
  8
_0-0_
 62
2
 10
2349.74
 20
2499.1514
 30
0
 40
13
 50
270
 51
0
  0
ARC
  8
_0-0_
 62
2
 10
2385.7399
 20
2499.1514
 30
0
 40
13
 50
180
 51
270
  0
CIRCLE
  8
_0-0_
 62
4
 10
2547.6229
 20
2990.1515
 30
0
 40
5.9996338
  0
CIRCLE
  8
_0-0_
 62
4
 10
2547.6229
 20
2950.1515
 30
0
 40
5.9996338
  0
CIRCLE
  8
_0-0_
 62
4
 10
2547.6229
 20
2590.1513
 30
0
 40
5.9996338
  0
CIRCLE
  8
_0-0_
 62
4
 10
2547.6229
 20
2550.1513
 30
0
 40
5.9996338
  0
CIRCLE
  8
_0-0_
 62
4
 10
2597.6229
 20
2990.1515
 30
0
 40
5.9996338
  0
CIRCLE
  8
_0-0_
 62
4
 10
2597.6229
 20
2550.1513
 30
0
 40
5.9996338
  0
CIRCLE
  8
_0-0_
 62
4
 10
2398.3033
 20
2952.2543
 30
0
 40
5.9996338
  0
CIRCLE
  8
_0-0_
 62
4
 10
2547.6229
 20
2710.1513
 30
0
 40
5.9996338
  0
CIRCLE
  8
_0-0_
 62
4
 10
2547.6229
 20
2830.1513
 30
0
 40
5.9996338
  0
CIRCLE
  8
_0-0_
 62
4
 10
2547.6229
 20
2830.1513
 30
0
 40
5.9996338
  0
CIRCLE
  8
_0-0_
 62
4
 10
2547.6229
 20
2950.1515
 30
0
 40
5.9996338
  0
CIRCLE
  8
_0-0_
 62
4
 10
2547.6229
 20
2590.1513
 30
0
 40
5.9996338
  0
CIRCLE
  8
_0-0_
 62
4
 10
2547.6229
 20
2710.1513
 30
0
 40
5.9996338
  0
CIRCLE
  8
_0-0_
 62
4
 10
2358.4289
 20
2779.7679
 30
0
 40
5.9996338
  0
CIRCLE
  8
_0-0_
 62
4
 10
2376.9899
 20
2779.7679
 30
0
 40
5.9996338
  0
CIRCLE
  8
_0-0_
 62
4
 10
2362.7399
 20
2891.1743
 30
0
 40
5.9996338
  0
CIRCLE
  8
_0-0_
 62
4
 10
2354.24
 20
2891.1743
 30
0
 40
5.9996338
  0
TEXT
  8
_0-0_
 62
7
 10
3830.9168
 20
4000.2612
 30
0
 40
40
  1
설계:보유내력
  0
TEXT
  8
_0-0_
 62
2
 10
769.05004
 20
4002.9275
 30
0
 40
80
  1
철골보접합표준도 (5)
  0
TEXT
  8
_0-0_
 62
7
 10
3038.3334
 20
4075.2612
 30
0
 40
40
  1
보재질 : SS400,SN400
  0
TEXT
  8
_0-0_
 62
7
 10
3034.3333
 20
4000.2612
 30
0
 40
40
  1
볼트 : HTB-F10T,HTB-S10T
  0
TEXT
  8
_0-0_
 62
7
 10
4446.2499
 20
4075.2612
 30
0
 40
40
  1
참고문헌 SCSS-H97
  0
TEXT
  8
_0-0_
 62
7
 10
3832.3335
 20
4075.2612
 30
0
 40
40
  1
용지사이즈 : A2
  0
TEXT
  8
_0-0_
 62
7
 10
1879.9299
 20
1344.5713
 30
0
 40
40
  1
600
 50
90
  0
TEXT
  8
_0-0_
 62
7
 10
1334.9845
 20
948.42834
 30
0
 40
40
  1
40
  0
TEXT
  8
_0-0_
 62
7
 10
1083.4844
 20
948.42834
 30
0
 40
40
  1
40
  0
TEXT
  8
_0-0_
 62
7
 10
1198.3
 20
897.92837
 30
0
 40
40
  1
290
  0
TEXT
  8
_0-0_
 62
7
 10
1209.5499
 20
948.42834
 30
0
 40
40
  1
90
  0
TEXT
  8
_0-0_
 62
7
 10
1136.1565
 20
1874.9753
 30
0
 40
40
  1
60
  0
TEXT
  8
_0-0_
 62
7
 10
1198.2997
 20
1925.1883
 30
0
 40
40
  1
410
  0
TEXT
  8
_0-0_
 62
7
 10
1022.1565
 20
1874.9753
 30
0
 40
40
  1
40
  0
TEXT
  8
_0-0_
 62
7
 10
1282.9445
 20
1874.9753
 30
0
 40
40
  1
60
  0
TEXT
  8
_0-0_
 62
7
 10
1396.9445
 20
1876.9754
 30
0
 40
40
  1
40
  0
TEXT
  8
_0-0_
 62
7
 10
1209.9444
 20
1874.9753
 30
0
 40
40
  1
90
  0
TEXT
  8
_0-0_
 62
7
 10
544.6325
 20
1583.9753
 30
0
 40
40
  1
PL-410x80x12(내첨판)
  0
TEXT
  8
_0-0_
 62
7
 10
552.67478
 20
1742.7354
 30
0
 40
40
  1
PL-410x200x12(외첨판)
  0
TEXT
  8
_0-0_
 62
7
 10
961.52647
 20
1660.0253
 30
0
 40
40
  1
12
 50
90
  0
TEXT
  8
_0-0_
 62
7
 10
1473.7677
 20
1774.9753
 30
0
 40
40
  1
M20
  0
TEXT
  8
_0-0_
 62
7
 10
1076.1565
 20
1874.9753
 30
0
 40
40
  1
60
  0
TEXT
  8
_0-0_
 62
7
 10
1342.9445
 20
1874.9753
 30
0
 40
40
  1
60
  0
TEXT
  8
_0-0_
 62
7
 10
961.52647
 20
1076.1174
 30
0
 40
40
  1
12
 50
90
  0
TEXT
  8
_0-0_
 62
7
 10
1133.9844
 20
948.42834
 30
0
 40
40
  1
60
  0
TEXT
  8
_0-0_
 62
7
 10
1285.4844
 20
948.42834
 30
0
 40
40
  1
60
  0
TEXT
  8
_0-0_
 62
7
 10
1008.9435
 20
1509.6951
 30
0
 40
40
  1
M20
  0
TEXT
  8
_0-0_
 62
7
 10
736.2128
 20
1313.7958
 30
0
 40
40
  1
PL-440x290x9
  0
TEXT
  8
_0-0_
 62
7
 10
1487.4629
 20
1155.3578
 30
0
 40
40
  1
40
 50
90
  0
TEXT
  8
_0-0_
 62
7
 10
1537.463
 20
1344.5948
 30
0
 40
40
  1
440
 50
90
  0
TEXT
  8
_0-0_
 62
7
 10
1487.4629
 20
1556.8579
 30
0
 40
40
  1
40
 50
90
  0
TEXT
  8
_0-0_
 62
7
 10
1487.4629
 20
1224.5713
 30
0
 40
40
  1
120
 50
90
  0
TEXT
  8
_0-0_
 62
7
 10
1487.4629
 20
1344.5713
 30
0
 40
40
  1
120
 50
90
  0
TEXT
  8
_0-0_
 62
7
 10
1487.4629
 20
1464.5713
 30
0
 40
40
  1
120
 50
90
  0
TEXT
  8
_0-0_
 62
7
 10
1723.8441
 20
1733.8913
 30
0
 40
40
  1
H-600x200x11x17
  0
TEXT
  8
_0-0_
 62
7
 10
2177.0733
 20
983.92838
 30
0
 40
40
  1
H-600x200x11x17
  0
TEXT
  8
_0-0_
 62
7
 10
1548.0275
 20
2288.5079
 30
0
 40
40
  1
40
 50
90
  0
TEXT
  8
_0-0_
 62
7
 10
1598.5274
 20
2357.4614
 30
0
 40
40
  1
200
 50
90
  0
TEXT
  8
_0-0_
 62
7
 10
1548.0264
 20
2447.9548
 30
0
 40
40
  1
40
 50
90
  0
TEXT
  8
_0-0_
 62
7
 10
1136.1565
 20
2613.4724
 30
0
 40
40
  1
60
  0
TEXT
  8
_0-0_
 62
7
 10
1198.3
 20
2663.6854
 30
0
 40
40
  1
410
  0
TEXT
  8
_0-0_
 62
7
 10
1022.1565
 20
2613.4724
 30
0
 40
40
  1
40
  0
TEXT
  8
_0-0_
 62
7
 10
1282.9445
 20
2613.4724
 30
0
 40
40
  1
60
  0
TEXT
  8
_0-0_
 62
7
 10
1396.9445
 20
2613.4724
 30
0
 40
40
  1
40
  0
TEXT
  8
_0-0_
 62
7
 10
1209.9444
 20
2613.4724
 30
0
 40
40
  1
90
  0
TEXT
  8
_0-0_
 62
7
 10
1548.0275
 20
2357.4614
 30
0
 40
40
  1
120
 50
90
  0
TEXT
  8
_0-0_
 62
7
 10
566.95276
 20
2227.6333
 30
0
 40
40
  1
PL-410x200x12(외첨판)
  0
TEXT
  8
_0-0_
 62
7
 10
1464.36
 20
2517.2549
 30
0
 40
40
  1
M20
  0
TEXT
  8
_0-0_
 62
7
 10
1342.9445
 20
2613.4724
 30
0
 40
40
  1
60
  0
TEXT
  8
_0-0_
 62
7
 10
1076.1565
 20
2613.4724
 30
0
 40
40
  1
60
  0
TEXT
  8
_0-0_
 62
7
 10
476.9785
 20
2532.9253
 30
0
 40
40
  1
H-600x200x11x17
  0
TEXT
  8
_0-0_
 62
7
 10
2335.2399
 20
3318.2683
 30
0
 40
40
  1
200
  0
TEXT
  8
_0-0_
 62
7
 10
2335.2399
 20
3268.2555
 30
0
 40
40
  1
120
  0
TEXT
  8
_0-0_
 62
7
 10
2265.7394
 20
3268.2555
 30
0
 40
40
  1
40
  0
TEXT
  8
_0-0_
 62
7
 10
2426.2414
 20
3268.2555
 30
0
 40
40
  1
40
  0
TEXT
  8
_0-0_
 62
7
 10
2286.9899
 20
2291.0083
 30
0
 40
40
  1
80
  0
TEXT
  8
_0-0_
 62
7
 10
2354.4895
 20
2341.0084
 30
0
 40
40
  1
40
  0
TEXT
  8
_0-0_
 62
7
 10
2218.4915
 20
2341.0084
 30
0
 40
40
  1
40
  0
TEXT
  8
_0-0_
 62
7
 10
2475.8437
 20
3154.6552
 30
0
 40
40
  1
M20
  0
TEXT
  8
_0-0_
 62
7
 10
1761.8224
 20
2984.0554
 30
0
 40
40
  1
PL-410x80x12(내첨판)
  0
TEXT
  8
_0-0_
 62
7
 10
1777.8647
 20
3161.8152
 30
0
 40
40
  1
PL-410x200x12(외첨판)
  0
TEXT
  8
_0-0_
 62
7
 10
2215.1689
 20
3054.1288
 30
0
 40
40
  1
12
 50
90
  0
TEXT
  8
_0-0_
 62
7
 10
2215.1689
 20
2472.1738
 30
0
 40
40
  1
12
 50
90
  0
TEXT
  8
_0-0_
 62
7
 10
2548.156
 20
2548.4379
 30
0
 40
40
  1
40
 50
90
  0
TEXT
  8
_0-0_
 62
7
 10
2598.1559
 20
2737.6514
 30
0
 40
40
  1
440
 50
90
  0
TEXT
  8
_0-0_
 62
7
 10
2548.156
 20
2949.9379
 30
0
 40
40
  1
40
 50
90
  0
TEXT
  8
_0-0_
 62
7
 10
2475.8437
 20
3030.125
 30
0
 40
40
  1
M20
  0
TEXT
  8
_0-0_
 62
7
 10
2547.6589
 20
2617.6513
 30
0
 40
40
  1
120
 50
90
  0
TEXT
  8
_0-0_
 62
7
 10
1985.7645
 20
2715.1248
 30
0
 40
40
  1
PL-440x290x9
  0
TEXT
  8
_0-0_
 62
7
 10
2313.8928
 20
2891.0084
 30
0
 40
40
  1
9
  0
TEXT
  8
_0-0_
 62
7
 10
2547.6589
 20
2737.6513
 30
0
 40
40
  1
120
 50
90
  0
TEXT
  8
_0-0_
 62
7
 10
2547.6589
 20
2857.6513
 30
0
 40
40
  1
120
 50
90
  0
TEXT
  8
_0-0_
 62
7
 10
423.48899
 20
3744.3154
 30
0
 40
40
  1
보사이즈
  0
TEXT
  8
_0-0_
 62
7
 10
811.66846
 20
3744.3154
 30
0
 40
40
  1
H-600x200x11x17
  0
TEXT
  8
_0-0_
 62
7
 10
810.33501
 20
3544.3154
 30
0
 40
40
  1
PL-410x80x12 (4매)
  0
TEXT
  8
_0-0_
 62
7
 10
423.48899
 20
3644.3152
 30
0
 40
40
  1
플랜지
  0
TEXT
  8
_0-0_
 62
7
 10
809.66821
 20
3644.3152
 30
0
 40
40
  1
PL-410x200x12 (2매)
  0
TEXT
  8
_0-0_
 62
7
 10
1283.156
 20
3594.3153
 30
0
 40
40
  1
볼트M20 (24본)
  0
TEXT
  8
_0-0_
 62
7
 10
424.82249
 20
3444.3153
 30
0
 40
40
  1
웨브
  0
TEXT
  8
_0-0_
 62
7
 10
810.33501
 20
3444.3153
 30
0
 40
40
  1
PL-440x220x9 (2매)
  0
TEXT
  8
_0-0_
 62
7
 10
1283.156
 20
3444.3153
 30
0
 40
40
  1
볼트M20 (16본)
  0
TEXT
  8
_0-0_
 62
7
 10
624.48948
 20
3544.3154
 30
0
 40
40
  1
내첨판
  0
TEXT
  8
_0-0_
 62
7
 10
624.48948
 20
3644.3152
 30
0
 40
40
  1
외첨판
  0
TEXT
  8
_0-0_
 62
7
 10
625.82298
 20
3444.3153
 30
0
 40
40
  1
첨판
  0
TEXT
  8
_0-0_
 62
7
 10
4444.9165
 20
4000.2612
 30
0
 40
40
  1
배포 : http://www.kozo-kogaku.co.jp (Ver1.00)
  0
LINE
  8
0
 10
3914.424483601895
 20
2841.1287768530806
 30
0
 11
4726.832684549763
 21
1795.1532181327016
 31
0
  0
ENDSEC
  0
EOF